<svg width="92" height="113" viewBox="0 0 92 113" fill="none" xmlns="http://www.w3.org/2000/svg">
<path d="M82.4232 91.7584C80.6089 89.5786 78.6455 87.5571 76.464 85.7466C74.7436 84.3193 72.8658 83.1141 70.919 82.0284C70.0989 81.5758 69.5162 80.9871 69.2759 80.0346C69.0164 79.0128 68.4448 78.1297 67.851 77.2661C66.4206 75.1752 64.5345 73.6007 62.3392 72.3845C61.9498 72.1679 61.5522 71.9679 61.1601 71.7513C60.7403 71.5209 60.489 71.1599 60.42 70.6906C60.2709 69.6604 60.2377 68.6052 60.3454 67.5667C60.489 66.2004 61.2125 63.0349 59.3182 62.6322C58.741 62.51 58.1446 62.5739 57.5564 62.6322C53.8395 62.9932 50.1005 63.0987 46.3698 62.9516C42.6391 62.8044 39.2563 62.199 35.6857 62.274C35.2826 62.2823 32.4549 62.5961 32.2809 62.1602C32.5929 63.0876 32.2836 69.6632 31.4607 70.1519C30.7814 70.5573 30.0772 70.9322 29.4117 71.357C25.7611 73.7118 22.6683 76.5664 21.1467 80.8038C20.9479 81.3536 20.5779 81.7091 20.0891 81.9923C19.1474 82.5421 18.2251 83.1197 17.2918 83.6834C13.6577 85.8771 10.4793 88.6206 7.63775 91.7668C6.29569 93.2524 6.37301 93.7716 8.03816 94.9268C11.1834 97.1122 14.5911 98.8227 18.065 100.397C19.8654 101.216 21.7266 101.888 23.621 102.471C30.6295 104.626 37.8148 105.518 45.1188 105.587C49.2361 105.645 53.312 105.196 57.3741 104.612C61.196 104.06 64.946 103.141 68.6077 101.899C73.3712 100.286 77.7315 97.8647 81.9068 95.0684C83.3565 94.0993 83.536 93.0996 82.4177 91.7612L82.4232 91.7584ZM37.6933 88.2513C37.4917 87.5904 37.2846 86.9323 36.9781 85.9632C37.7734 86.2936 38.2649 86.5102 38.7675 86.7074C42.0177 87.9958 45.3563 88.3735 48.7998 87.6876C49.7691 87.4932 50.7052 87.1739 51.6248 86.8046C51.9424 86.6796 52.2682 86.563 52.6023 86.4769C52.815 86.4241 53.0028 86.5408 53.0608 86.7546C53.2955 87.6432 53 88.4956 52.2516 88.9566C51.3183 89.5258 50.3297 89.959 49.2748 90.2673C46.5934 91.0476 43.9176 91.0559 41.2252 90.3561C40.4078 90.1479 39.6042 89.9146 38.8448 89.5453C38.2815 89.2732 37.8811 88.8677 37.6961 88.2568L37.6933 88.2513ZM52.873 103.066C52.6797 103.105 52.4808 103.118 52.2848 103.132C49.9182 103.249 47.5627 103.546 45.2321 103.396C44.0032 103.396 42.8186 103.402 41.6311 103.393C41.2859 103.391 40.9435 103.368 40.6011 103.318C40.22 103.266 39.9881 103.021 39.919 102.638C39.8859 102.441 39.8666 102.244 39.8555 102.044C39.7616 99.0587 39.3419 96.1153 38.7675 93.1913C38.6598 92.6581 38.5991 92.1111 38.5411 91.5696C38.5052 91.2197 38.7648 91.0059 39.1127 91.1086C40.2504 91.4419 41.3743 91.7862 42.5562 91.9695C45.2928 92.3832 47.9659 92.2249 50.5837 91.2864C50.6749 91.253 50.7715 91.2225 50.8626 91.1892C52.8592 90.4561 52.8398 90.2617 52.8702 92.5415C52.9061 95.3711 53.2209 98.1812 53.5744 100.989C53.6213 101.383 53.6904 101.777 53.6876 102.172C53.6821 102.685 53.4059 102.963 52.8702 103.071L52.873 103.066ZM56.7059 80.6455C55.0048 82.32 53.1712 83.825 50.9897 84.8302C49.272 85.6244 47.4882 86.1825 46.2234 86.1242C41.8935 86.0354 38.5742 84.9246 35.6719 82.6532C34.5315 81.7618 33.5567 80.7094 33.0154 79.3265C32.7945 78.7601 32.8801 78.4796 33.3855 78.2186C33.7362 78.0353 34.1062 77.8965 34.4762 77.7493C39.9632 75.5584 45.4585 73.3897 50.9372 71.1738C50.951 71.1682 50.9703 71.1626 50.9841 71.1571C52.8868 70.3879 54.8861 70.1213 56.8826 69.7992C57.0621 69.7687 57.2471 69.7826 57.4294 69.802C57.4432 69.8048 57.4597 69.8048 57.4735 69.8076C57.7994 69.8492 58.0148 70.0575 58.0783 70.374C58.1418 70.6628 58.1667 70.9627 58.1722 71.2571C58.1888 72.8954 58.2826 74.5282 58.4124 76.1609C58.6002 78.5407 58.3959 78.9767 56.7059 80.6428V80.6455Z" fill="black"/>
</svg>
