<svg width="91" height="113" viewBox="0 0 91 113" fill="none" xmlns="http://www.w3.org/2000/svg">
<path d="M82.3763 89.9901C81.104 87.634 79.4747 85.5847 77.4204 83.8888C72.8895 80.1546 67.5004 78.0861 62.1467 75.9436C61.2395 75.5792 60.1987 75.6916 59.3105 75.2724C58.643 74.9573 58.406 74.3464 58.3351 73.6423C58.2834 73.1245 58.2207 72.519 58.207 71.8971C58.2016 71.7245 58.2016 71.5519 58.207 71.3793L58.3215 63.2286L54.7442 63.0834L36.8141 62.3547C35.3538 62.2944 33.8907 62.1848 32.4303 62.1602L32.1252 69.9519C32.0462 71.1546 31.8909 72.3656 31.8527 73.5683C31.8282 74.3738 31.4004 74.6012 30.722 74.8368C24.9597 76.8477 19.4289 79.3463 14.4621 82.9628C11.9637 84.7792 9.89305 86.9956 8.64521 89.8778C7.63714 92.212 7.78699 92.8449 9.7214 94.4723C13.0508 97.2695 16.7316 99.5407 20.7394 101.168C28.4798 104.313 36.558 105.779 44.7098 105.574C47.4125 105.563 49.9054 105.628 52.3875 105.286C58.5939 104.428 64.7895 103.445 70.541 100.806C74.7613 98.8668 78.6737 96.3901 81.8886 92.9271C82.7332 92.0175 83.003 91.1545 82.3763 89.9901ZM56.319 83.8997C50.4503 88.1682 41.0916 88.412 35.163 84.3299C33.1659 82.9573 31.7655 81.0696 31.2479 78.6203C31.1416 78.1135 31.1253 77.6395 31.3677 77.2888C31.444 77.1738 31.5503 77.0751 31.6892 76.9902L41.1624 74.2149L53.0441 70.7354L55.3081 70.0724L56.0901 69.8423V72.782C56.0956 72.9491 56.0956 73.1163 56.0901 73.2806C56.0792 73.6724 56.0519 74.0532 56.0656 74.4286C56.1364 76.4532 56.3053 76.7354 58.207 77.371C58.7056 77.5354 58.7956 77.8669 58.8092 78.3025C58.8718 80.571 58.2452 82.497 56.319 83.8997Z" fill="black"/>
</svg>
