<svg width="91" height="113" viewBox="0 0 91 113" fill="none" xmlns="http://www.w3.org/2000/svg">
<path d="M82.3214 91.3116C79.4279 85.5913 74.9183 81.6524 69.0407 79.2336C68.4406 78.9856 68.0566 78.7189 67.9819 78.0468C67.7472 75.9294 66.3072 74.9613 64.4591 74.3586C63.0457 73.8973 61.5762 73.8706 60.1282 73.6813C59.6375 73.6173 59.1761 73.6119 58.9147 73.0572C58.6507 72.4972 58.5867 71.8865 58.6507 71.2785C58.6907 70.8971 58.7227 68.7023 58.7467 66.6409C58.7707 64.5794 57.0746 62.7687 54.9492 62.726L34.9294 62.326C32.7613 62.2833 30.9772 64.0301 30.9772 66.1982V69.041C30.9345 69.769 30.9718 70.5078 31.0838 71.2171C31.2332 72.1585 30.9772 72.5665 30.0678 72.8546C27.9797 73.5106 26.0729 74.5533 24.3021 75.8467C23.6274 76.3401 23.1341 76.9428 23.1287 77.8255C23.1234 78.8762 22.558 79.3643 21.5793 79.6656C16.0217 81.383 12.0748 85.1993 8.65858 89.6928C8.17589 90.3302 7.94654 90.9756 8.2879 91.789C9.18395 93.9277 10.512 95.7278 12.3761 97.1013C17.4057 100.808 23.3474 102.606 29.1957 104.144C34.5027 105.542 40.1297 105.939 45.3647 105.686C53.1518 105.944 60.3682 104.515 67.4912 102.579C73.0542 101.064 78.1372 98.6507 81.9507 94.0824C82.7214 93.1597 82.8521 92.3543 82.3214 91.3089V91.3116ZM42.1778 102.627C42.0285 103.379 41.4391 103.256 40.9057 103.187C38.4016 102.859 35.8815 102.619 33.3986 102.176C30.3985 101.646 27.3476 101.24 24.5635 99.8614C23.7528 99.5014 22.9021 99.2507 22.078 98.936C18.5311 97.5839 14.8563 96.4559 12.3068 93.317C11.6294 92.4823 11.4641 91.8156 12.1014 90.9622C13.0775 89.6502 13.9549 88.2448 15.0403 87.0314C16.7497 85.1166 18.5951 83.3351 21.0086 82.2604C22.8221 81.4524 23.0754 81.559 23.2354 83.4605C23.2647 83.8098 23.3581 84.1619 23.4701 84.4952C24.8862 88.7568 27.2063 92.5117 30.0438 95.9545C31.2172 97.3759 32.1532 97.3759 33.54 96.1519C34.8467 94.9971 35.9161 93.6477 36.8468 92.1836C37.2895 91.4903 37.8362 91.3729 38.5509 91.6849C40.3484 92.469 41.9378 93.4637 42.4712 95.5332C43.0952 97.928 42.6445 100.28 42.1778 102.627ZM46.6261 94.4024C44.5219 88.9435 40.2577 85.7699 36.3935 82.2978C35.0654 81.103 34.012 79.8896 33.556 78.3882L56.7706 69.4944V72.1132C56.8533 72.3479 56.7706 72.6652 56.7706 72.9132C56.7706 74.5106 56.8346 76.1054 57.1226 77.6815C57.1866 78.0282 57.192 78.4762 57.408 78.6949C58.8027 80.0896 57.616 80.8443 56.6933 81.607C54.2025 83.6658 51.581 85.5699 49.7676 88.3434C48.5755 90.1649 47.6154 92.0956 46.6261 94.4024ZM79.2732 93.4957C76.7238 96.6346 73.0462 97.76 69.4993 99.1147C68.678 99.4267 67.8246 99.6801 67.0139 100.04C64.2297 101.416 61.1815 101.824 58.1787 102.355C55.6959 102.795 53.1758 103.038 50.6716 103.366C50.1383 103.435 49.5489 103.558 49.3995 102.806C48.9329 100.459 48.4822 98.104 49.1062 95.7092C49.6422 93.6397 51.229 92.6477 53.0264 91.8636C53.7411 91.5516 54.2878 91.6689 54.7305 92.3623C55.6612 93.8237 56.7306 95.1758 58.04 96.3305C59.4241 97.5519 60.3602 97.5546 61.5336 96.1305C64.3737 92.6903 66.6912 88.9355 68.1073 84.6739C68.2193 84.3379 68.3126 83.9885 68.3419 83.6392C68.5046 81.7377 68.7553 81.631 70.5687 82.4391C72.9849 83.5112 74.8276 85.2953 76.5371 87.2074C77.6251 88.4234 78.4999 89.8262 79.4786 91.1409C80.1133 91.9943 79.9479 92.661 79.2732 93.4957Z" fill="#009F42"/>
</svg>
