<svg width="91" height="114" viewBox="0 0 91 114" fill="none" xmlns="http://www.w3.org/2000/svg">
<path d="M82.3214 91.8116C79.4279 86.0913 74.9183 82.1524 69.0407 79.7336C68.4406 79.4856 68.0566 79.2189 67.9819 78.5468C67.7472 76.4294 66.3072 75.4613 64.4591 74.8586C63.0457 74.3973 61.5762 74.3706 60.1282 74.1813C59.6375 74.1173 59.1761 74.1119 58.9147 73.5572C58.6507 72.9972 58.5867 72.3865 58.6507 71.7785C58.6907 71.3971 58.7227 69.2023 58.7467 67.1409C58.7707 65.0794 57.0746 63.2687 54.9492 63.226L34.9294 62.826C32.7613 62.7833 30.9772 64.5301 30.9772 66.6982V69.541C30.9345 70.269 30.9718 71.0078 31.0838 71.7171C31.2332 72.6585 30.9772 73.0665 30.0678 73.3546C27.9797 74.0106 26.0729 75.0533 24.3021 76.3467C23.6274 76.8401 23.1341 77.4428 23.1287 78.3255C23.1234 79.3762 22.558 79.8643 21.5793 80.1656C16.0217 81.883 12.0748 85.6993 8.65858 90.1928C8.17589 90.8302 7.94654 91.4756 8.2879 92.289C9.18395 94.4277 10.512 96.2278 12.3761 97.6013C17.4057 101.308 23.3474 103.106 29.1957 104.644C34.5027 106.042 40.1297 106.439 45.3647 106.186C53.1518 106.444 60.3682 105.015 67.4912 103.079C73.0542 101.564 78.1372 99.1507 81.9507 94.5824C82.7214 93.6597 82.8521 92.8543 82.3214 91.8089V91.8116ZM42.1778 103.127C42.0285 103.879 41.4391 103.756 40.9057 103.687C38.4016 103.359 35.8815 103.119 33.3986 102.676C30.3985 102.146 27.3476 101.74 24.5635 100.361C23.7528 100.001 22.9021 99.7507 22.078 99.436C18.5311 98.0839 14.8563 96.9559 12.3068 93.817C11.6294 92.9823 11.4641 92.3156 12.1014 91.4622C13.0775 90.1502 13.9549 88.7448 15.0403 87.5314C16.7497 85.6166 18.5951 83.8351 21.0086 82.7604C22.8221 81.9524 23.0754 82.059 23.2354 83.9605C23.2647 84.3098 23.3581 84.6619 23.4701 84.9952C24.8862 89.2568 27.2063 93.0117 30.0438 96.4545C31.2172 97.8759 32.1532 97.8759 33.54 96.6519C34.8467 95.4971 35.9161 94.1477 36.8468 92.6836C37.2895 91.9903 37.8362 91.8729 38.5509 92.1849C40.3484 92.969 41.9378 93.9637 42.4712 96.0332C43.0952 98.428 42.6445 100.78 42.1778 103.127ZM46.6261 94.9024C44.5219 89.4435 40.2577 86.2699 36.3935 82.7978C35.0654 81.603 34.012 80.3896 33.556 78.8882L56.7706 69.9944V72.6132C56.8533 72.8479 56.7706 73.1652 56.7706 73.4132C56.7706 75.0106 56.8346 76.6054 57.1226 78.1815C57.1866 78.5282 57.192 78.9762 57.408 79.1949C58.8027 80.5896 57.616 81.3443 56.6933 82.107C54.2025 84.1658 51.581 86.0699 49.7676 88.8434C48.5755 90.6649 47.6154 92.5956 46.6261 94.9024ZM79.2732 93.9957C76.7238 97.1346 73.0462 98.26 69.4993 99.6147C68.678 99.9267 67.8246 100.18 67.0139 100.54C64.2297 101.916 61.1815 102.324 58.1787 102.855C55.6959 103.295 53.1758 103.538 50.6716 103.866C50.1383 103.935 49.5489 104.058 49.3995 103.306C48.9329 100.959 48.4822 98.604 49.1062 96.2092C49.6422 94.1397 51.229 93.1477 53.0264 92.3636C53.7411 92.0516 54.2878 92.1689 54.7305 92.8623C55.6612 94.3237 56.7306 95.6758 58.04 96.8305C59.4241 98.0519 60.3602 98.0546 61.5336 96.6305C64.3737 93.1903 66.6912 89.4355 68.1073 85.1739C68.2193 84.8379 68.3126 84.4885 68.3419 84.1392C68.5046 82.2377 68.7553 82.131 70.5687 82.9391C72.9849 84.0112 74.8276 85.7953 76.5371 87.7074C77.6251 88.9234 78.4999 90.3262 79.4786 91.6409C80.1133 92.4943 79.9479 93.161 79.2732 93.9957Z" fill="#6A00FF"/>
</svg>
