<svg width="91" height="113" viewBox="0 0 91 113" fill="none" xmlns="http://www.w3.org/2000/svg">
<path d="M82.5497 92.114C82.1836 91.4382 81.6973 90.8502 81.17 90.2898C78.4734 87.4243 75.397 85.0258 72.0692 82.9516C70.8999 82.2208 69.7032 81.5229 68.4847 80.8801C67.7552 80.4982 67.4246 79.9734 67.4847 79.163C67.5093 78.8305 67.4902 78.4898 67.4875 78.1574C67.482 76.4815 67.4875 74.8084 67.4574 73.1325C67.4492 72.561 67.3809 71.9868 67.2771 71.4236C67.0913 70.4236 66.5257 69.6983 65.6159 69.223C64.7225 68.7559 63.7909 68.4098 62.81 68.1955C62.0696 68.0334 61.3292 67.8795 60.4741 67.6982C60.7008 67.2724 61.0096 61.5139 61.2527 61.3875L54.5207 61.3326C53.6956 61.4974 52.8569 61.6265 52.0017 61.7227C50.1056 61.9397 48.2095 62.0386 46.3079 61.9727C44.1058 61.8958 41.942 61.6485 39.8218 61.2144L32.456 61.1567L32.4724 61.165C32.7319 61.3161 32.762 67.4317 32.5161 67.6048C32.2484 67.7944 31.9478 67.9455 31.6527 68.0966C30.5899 68.6323 29.5353 69.1873 28.4561 69.6846C26.8278 70.4318 25.9562 71.6819 25.806 73.4622C25.7951 73.605 25.7759 73.7452 25.7568 73.8908C25.5874 75.3634 25.3661 76.8304 25.2596 78.3058C25.1257 80.1822 25.1831 80.1383 23.2951 81.2839C23.1749 81.3581 23.0465 81.4185 22.9208 81.49C20.3198 82.9873 17.7653 84.5643 15.3173 86.3061C13.5305 87.5809 11.812 88.9463 10.3366 90.5837C9.76287 91.2211 9.21917 91.8915 8.74105 92.6031C8.20828 93.397 8.30116 93.9657 8.98966 94.6498C9.25741 94.9136 9.56614 95.1471 9.87761 95.3642C15.0413 98.9687 20.6422 101.65 26.7185 103.296C32.3986 104.834 38.2126 105.428 44.073 105.587C45.5402 105.628 47.0128 105.414 48.4854 105.409C50.2504 105.403 52.0017 105.213 53.7448 105.002C57.9004 104.494 62.0177 103.735 66.0312 102.491C70.501 101.103 74.8151 99.3588 78.7548 96.7736C79.8695 96.0428 80.9705 95.2845 82.0388 94.4877C82.965 93.7982 83.0825 93.1223 82.5443 92.114H82.5497ZM57.7556 77.4046C57.7911 78.2756 57.4878 78.9899 56.884 79.5943C56.5808 79.8992 56.2994 80.2234 55.9961 80.5256C53.7475 82.7867 51.5209 85.0725 49.2313 87.2924C48.174 88.3172 47.0101 89.2293 45.8708 90.1661C45.4118 90.5453 45.1768 90.5151 44.7807 90.0535C42.543 87.4463 39.9639 85.1742 37.6416 82.6549C36.8684 81.8142 36.1362 80.9323 35.4149 80.0476C35.1144 79.6822 34.8657 79.2701 34.6335 78.8552C34.4341 78.5008 34.5188 78.1876 34.8657 78.0036C35.24 77.803 35.6362 77.6354 36.0296 77.4761C42.7288 74.7864 49.4335 72.0995 56.1354 69.4126C57.1682 69.0005 57.4113 69.1186 57.4223 70.256C57.4414 72.0281 57.8239 73.7699 57.7529 75.5447C57.7529 76.1656 57.7337 76.7865 57.7556 77.4046Z" fill="black"/>
</svg>
