<svg width="92" height="113" viewBox="0 0 92 113" fill="none" xmlns="http://www.w3.org/2000/svg">
<path d="M83.1121 93.5797C82.2343 90.0411 81.1098 86.6565 78.0998 84.2487C75.8559 82.4519 73.4406 80.9451 70.9007 79.6314C70.3059 79.3259 69.9164 78.9864 69.919 78.263C69.9398 74.8706 67.966 72.8414 65.2027 71.3711C63.4471 70.4388 61.6057 69.6605 59.9462 68.5454C59.5463 68.279 59.1307 68.0335 59.0892 67.4773C59.019 66.5397 58.9827 66.2577 58.9619 64.6385C58.9463 63.2622 57.8322 62.155 56.4635 62.1602C51.5473 62.1758 40.6759 62.215 35.3908 62.2281C33.9754 62.2307 32.8483 63.4163 32.908 64.837C32.9937 66.8584 32.9885 67.6862 32.6172 68.2425C32.4847 68.4357 32.2224 68.5637 31.9939 68.6682C29.9915 69.5953 28.0411 70.6268 26.166 71.789C24.5636 72.7787 23.0028 73.9618 22.5301 75.8708C22.0601 77.7694 21.3614 79.0647 19.411 79.9736C16.8867 81.1488 15.2531 83.5723 13.4507 85.685C11.5159 87.9544 9.91872 90.391 9.23309 93.3604C8.94222 94.6165 9.2201 95.5306 10.2901 96.2905C12.0198 97.5206 13.6585 98.8733 15.3882 100.103C17.9385 101.921 20.6317 103.538 23.6547 104.376C31.1316 106.449 38.7125 107.904 46.2908 107.758C55.8246 107.747 62.2602 106.617 70.9734 103.297C75.5858 101.54 79.484 98.7114 82.6291 94.8646C82.9381 94.4885 83.242 94.1046 83.1121 93.5771V93.5797ZM63.7379 80.7048C63.7717 79.8299 63.9301 79.1744 64.9612 79.0595C66.2597 78.9107 67.3712 79.3389 67.4959 80.2974C67.8881 83.3085 68.2023 86.3353 68.0023 89.383C67.9816 89.7016 67.9322 90.0463 67.5323 90.0332C67.0934 90.0176 66.6622 89.8635 66.5142 89.383C66.4545 89.1897 66.535 88.9547 66.548 88.7405C66.5817 88.1033 66.387 87.5993 65.6909 87.5027C65.0001 87.4086 64.6599 87.8291 64.5171 88.4506C64.4521 88.7327 64.53 89.114 64.0704 89.0957C63.6263 89.0774 63.4886 88.751 63.4782 88.3801C63.46 87.5993 63.473 86.8158 63.473 86.035H63.4263C63.5328 84.2591 63.673 82.4833 63.7379 80.7048ZM62.7381 92.6709C62.8108 91.4853 63.5587 91.0126 65.2079 91.1066C67.3998 91.2319 68.3867 91.8874 68.327 93.1775C68.2309 95.259 67.231 96.5334 65.7714 96.4315C64.1249 96.3192 62.629 94.465 62.7381 92.6709ZM34.0975 74.1916L56.8946 67.2579L56.9024 67.4016C56.9622 68.441 57.105 69.4777 57.1466 70.5171C57.2037 71.9483 57.5101 73.2828 58.4996 74.3613C59.0866 75.0064 58.9204 75.4791 58.3438 76.0066C55.6429 78.4745 52.49 79.9448 48.8749 80.4776C43.756 81.2297 39.1176 79.8691 34.7727 77.268C33.2924 76.3801 33.2119 75.6828 34.0975 74.1916ZM24.0546 85.45H24.1091C24.1091 83.9771 24.0702 82.5041 24.1195 81.0312C24.1663 79.6732 25.1012 79.4878 26.2076 79.5531C27.236 79.6158 27.9684 79.7568 27.9944 81.1461C28.0411 83.4756 28.1294 85.8208 28.5917 88.1242C28.6592 88.4585 28.6203 88.8163 28.5995 89.161C28.5839 89.4274 28.4878 89.6807 28.184 89.746C27.8931 89.806 27.6567 89.6702 27.5425 89.4143C26.8698 87.9205 25.7557 87.9022 25.5973 89.7329C25.5505 90.2866 24.9142 90.2422 24.5117 90.2552C24.0182 90.2683 24.0624 89.8139 24.0598 89.4796C24.0468 88.1373 24.0546 86.7923 24.0546 85.45ZM27.0672 91.5218C28.8644 91.5244 29.4072 91.9501 29.402 93.3447C29.3942 95.5018 28.3086 96.9852 26.7348 96.9878C25.2519 96.993 23.7897 95.0161 23.8676 93.1096C23.904 92.2008 25.2804 91.5192 27.0672 91.5218ZM53.7574 102.577C53.7496 102.707 53.7418 102.838 53.7288 102.966C53.521 104.969 53.5132 104.909 51.4875 105.104C49.5891 105.29 47.6932 105.272 45.5324 105.285C44.0755 105.206 42.3484 105.418 40.6291 105.102C39.7435 104.94 39.3384 104.499 39.3748 103.611C39.3826 103.394 39.367 103.177 39.354 102.96C39.2085 100.55 39.2008 100.419 41.6082 100.268C44.878 100.059 48.1503 99.7325 51.433 99.918C53.7236 100.049 53.9002 100.263 53.7574 102.577ZM69.4827 101.459C65.4312 102.882 61.2707 103.841 57.0323 104.48C56.3155 104.59 56.0428 104.345 56.0792 103.548C56.2661 99.1554 55.0014 97.7347 50.6461 97.7713C46.7634 97.8026 42.8652 97.8548 39.0268 98.5443C37.053 98.8995 36.9231 99.1528 36.9127 101.132C36.9127 101.48 36.9127 101.827 36.9127 102.174C36.9153 105.141 37.2685 104.838 34.3728 104.384C30.833 103.827 27.2932 103.206 23.891 102.018C21.5069 101.187 21.4393 101.085 21.4679 98.5835C21.4835 97.3064 21.3095 96.0006 21.8445 94.7184C22.447 95.1075 22.4081 95.7316 22.5821 96.2357C23.3664 98.5025 24.6493 99.4557 26.914 99.3983C28.9735 99.3434 30.5031 98.0794 31.0823 95.9458C31.1498 95.6951 31.2225 95.4418 31.2589 95.1858C31.5809 92.9634 31.3056 93.2141 33.6898 93.4935C42.2056 94.4912 50.7292 94.956 59.2554 93.6267C60.2163 93.4779 60.6942 93.5353 60.9461 94.6792C61.3876 96.6849 64.0756 98.7219 66.1272 98.8707C67.4154 98.9647 68.3763 98.4268 69.1009 97.3795C69.358 97.0087 69.4229 96.4707 70.067 96.2879C70.1319 97.7843 70.2099 99.239 70.254 100.694C70.2696 101.182 69.8437 101.331 69.4827 101.459Z" fill="black"/>
</svg>
