<svg width="92" height="113" viewBox="0 0 92 113" fill="none" xmlns="http://www.w3.org/2000/svg">
<path d="M44.6783 57.4392C44.2125 57.4672 43.7411 57.3312 43.3293 57.0274C43.0517 56.8225 42.7591 56.5709 42.9417 56.1815C43.128 55.7828 43.5007 55.848 43.8305 55.9766C44.3988 56.1983 44.9503 56.2803 45.5391 56.0213C46.1335 55.7604 46.2825 55.4083 45.8726 54.8754C45.608 54.5325 45.3192 54.2083 45.0863 53.845C44.9 53.5562 44.7621 53.2059 45.0752 52.9115C45.3956 52.6078 45.7198 52.8183 46.0068 52.9953C46.8397 53.5115 47.5235 55.0375 47.2813 55.7958C46.9682 56.7778 45.9285 57.4467 44.6801 57.4392H44.6783Z" fill="black"/>
<path d="M54.5306 49.8122C54.4822 50.5892 54.281 51.3196 53.6512 51.8711C52.9282 52.5046 51.9836 52.4692 51.3165 51.7798C51.0296 51.4835 50.8376 51.1295 50.7296 50.7364C50.5563 50.0973 50.5488 49.4433 50.7109 48.8042C50.8731 48.1688 51.2941 47.7141 51.8736 47.4253C52.6115 47.0583 53.4444 47.2837 53.9381 47.9564C54.2698 48.4073 54.525 49.1992 54.5269 49.8122H54.5306Z" fill="black"/>
<path d="M39.6626 49.7395C39.59 50.4662 39.4558 51.2227 38.8465 51.8003C38.1404 52.4692 37.2236 52.486 36.5044 51.8394C35.3287 50.7811 35.3641 48.7185 36.5771 47.6974C37.2982 47.0918 38.1646 47.1216 38.8409 47.7607C39.3943 48.2843 39.6105 48.9439 39.6645 49.7377L39.6626 49.7395Z" fill="black"/>
<path d="M57.4317 40.2694C57.1168 40.3327 56.8075 40.2973 56.5149 40.1892C56.0808 40.029 55.6485 39.8557 55.2349 39.647C54.0722 39.0526 52.8797 38.5477 51.5847 38.3111C51.2829 38.257 50.9904 38.1378 50.7034 38.026C50.4705 37.9347 50.273 37.7819 50.1258 37.5732C49.8612 37.2006 49.8985 36.8037 50.2246 36.4832C50.4053 36.3062 50.6177 36.1814 50.8543 36.0994C51.2978 35.9447 51.7543 35.8683 52.2257 35.8516C53.5076 35.9391 54.7169 36.2969 55.8535 36.8987C56.4031 37.1894 56.9193 37.5304 57.4056 37.9179C57.7503 38.1937 58.0279 38.5253 58.1844 38.9409C58.4192 39.5613 58.0838 40.1408 57.4317 40.2694Z" fill="black"/>
<path d="M34.3276 40.2694C34.6425 40.3327 34.9518 40.2973 35.2444 40.1892C35.6785 40.029 36.1108 39.8557 36.5244 39.647C37.6871 39.0526 38.8796 38.5477 40.1746 38.3111C40.4764 38.257 40.7689 38.1378 41.0559 38.026C41.2888 37.9347 41.4863 37.7819 41.6335 37.5732C41.8981 37.2006 41.8608 36.8037 41.5347 36.4832C41.354 36.3062 41.1416 36.1814 40.905 36.0994C40.4615 35.9447 40.005 35.8683 39.5336 35.8516C38.2517 35.9391 37.0424 36.2969 35.9058 36.8987C35.3562 37.1894 34.84 37.5304 34.3537 37.9179C34.009 38.1937 33.7314 38.5253 33.5749 38.9409C33.3401 39.5613 33.6755 40.1408 34.3276 40.2694Z" fill="black"/>
<path d="M47.9219 60.2561C48.5127 60.2561 49.1036 60.2456 49.6944 60.2602C49.97 60.2686 50.2539 60.2916 50.5148 60.3709C50.9491 60.5024 51.1766 60.8699 51.1704 61.3271C51.1662 61.6486 51.0618 61.945 50.9178 62.2227C50.233 63.5546 49.4501 64.8261 48.4835 65.9764C48.3061 66.1893 48.1035 66.3835 47.8927 66.563C46.4062 67.8323 44.638 67.9931 42.9678 66.968C41.2538 65.9158 40.3498 64.3334 40.0722 62.3667C40.0534 62.229 40.0492 62.0891 40.0555 61.9513C40.0784 61.4753 40.2475 61.2456 40.6818 61.1016C40.8133 61.0578 40.9511 61.0264 41.0868 61.0056C43.3561 60.682 45.6087 60.2101 47.9198 60.2519L47.9219 60.2561ZM45.0659 66.1246C45.9135 66.135 46.592 65.8156 47.1286 65.229C47.924 64.3563 48.5816 63.3793 49.162 62.3521C49.2121 62.2624 49.2476 62.1621 49.281 62.064C49.3583 61.8427 49.2205 61.659 48.9699 61.6465C48.901 61.6423 48.8301 61.6381 48.7633 61.6465C47.1474 61.8281 45.5148 61.7947 43.9052 62.0578C43.2914 62.158 42.6713 62.2352 42.0659 62.3667C41.688 62.4482 41.5669 62.705 41.688 63.0807C42.0555 64.206 42.7298 65.1037 43.7215 65.753C44.1369 66.0265 44.6025 66.1497 45.068 66.1267L45.0659 66.1246Z" fill="black"/>
<path fill-rule="evenodd" clip-rule="evenodd" d="M47.1286 65.229C46.592 65.8156 45.9135 66.135 45.0659 66.1246L45.068 66.1267C44.6025 66.1497 44.1369 66.0265 43.7215 65.753C42.7298 65.1037 42.0555 64.206 41.688 63.0807C41.5669 62.705 41.688 62.4482 42.0659 62.3667C42.4913 62.2743 42.9239 62.2087 43.3564 62.1431C43.5395 62.1153 43.7226 62.0876 43.9052 62.0578C44.8381 61.9053 45.7787 61.8524 46.7193 61.7995C47.4016 61.7612 48.0839 61.7228 48.7633 61.6465C48.8301 61.6381 48.901 61.6423 48.9699 61.6465C49.2205 61.659 49.3583 61.8427 49.281 62.064C49.2476 62.1621 49.2121 62.2624 49.162 62.3521C48.5816 63.3793 47.924 64.3563 47.1286 65.229Z" fill="#EFEFEF"/>
</svg>
