<svg width="92" height="113" viewBox="0 0 92 113" fill="none" xmlns="http://www.w3.org/2000/svg">
<path d="M44.6783 57.0994C44.2125 57.1273 43.7411 56.9913 43.3293 56.6876C43.0517 56.4826 42.7591 56.2311 42.9417 55.8417C43.128 55.4429 43.5007 55.5082 43.8305 55.6367C44.3988 55.8584 44.9503 55.9404 45.5391 55.6814C46.1335 55.4206 46.2825 55.0684 45.8726 54.5355C45.608 54.1927 45.3192 53.8685 45.0863 53.5051C44.9 53.2163 44.7621 52.866 45.0752 52.5716C45.3956 52.2679 45.7198 52.4785 46.0068 52.6555C46.8397 53.1716 47.5235 54.6976 47.2813 55.456C46.9682 56.4379 45.9285 57.1068 44.6801 57.0994H44.6783Z" fill="black"/>
<path d="M54.5306 49.4723C54.4822 50.2493 54.281 50.9797 53.6512 51.5312C52.9282 52.1647 51.9836 52.1293 51.3165 51.4399C51.0296 51.1437 50.8376 50.7897 50.7296 50.3965C50.5563 49.7574 50.5488 49.1034 50.7109 48.4643C50.8731 47.8289 51.2941 47.3743 51.8736 47.0855C52.6115 46.7184 53.4444 46.9439 53.9381 47.6165C54.2698 48.0674 54.525 48.8593 54.5269 49.4723H54.5306Z" fill="black"/>
<path d="M39.6626 49.3997C39.59 50.1264 39.4558 50.8828 38.8465 51.4605C38.1404 52.1294 37.2236 52.1461 36.5044 51.4996C35.3287 50.4413 35.3641 48.3786 36.5771 47.3576C37.2982 46.752 38.1646 46.7818 38.8409 47.4209C39.3943 47.9445 39.6105 48.6041 39.6645 49.3978L39.6626 49.3997Z" fill="black"/>
<path d="M57.4317 39.9295C57.1168 39.9929 56.8075 39.9575 56.5149 39.8494C56.0808 39.6892 55.6485 39.5159 55.2349 39.3072C54.0722 38.7128 52.8797 38.2079 51.5847 37.9712C51.2829 37.9172 50.9904 37.7979 50.7034 37.6861C50.4705 37.5948 50.273 37.4421 50.1258 37.2334C49.8612 36.8607 49.8985 36.4638 50.2246 36.1434C50.4053 35.9664 50.6177 35.8415 50.8543 35.7595C51.2978 35.6049 51.7543 35.5285 52.2257 35.5117C53.5076 35.5993 54.7169 35.957 55.8535 36.5589C56.4031 36.8495 56.9193 37.1905 57.4056 37.5781C57.7503 37.8538 58.0279 38.1855 58.1844 38.601C58.4192 39.2215 58.0838 39.801 57.4317 39.9295Z" fill="black"/>
<path d="M34.3276 39.9295C34.6425 39.9929 34.9518 39.9575 35.2444 39.8494C35.6785 39.6892 36.1108 39.5159 36.5244 39.3072C37.6871 38.7128 38.8796 38.2079 40.1746 37.9712C40.4764 37.9172 40.7689 37.7979 41.0559 37.6861C41.2888 37.5948 41.4863 37.4421 41.6335 37.2334C41.8981 36.8607 41.8608 36.4638 41.5347 36.1434C41.354 35.9664 41.1416 35.8415 40.905 35.7595C40.4615 35.6049 40.005 35.5285 39.5336 35.5117C38.2517 35.5993 37.0424 35.957 35.9058 36.5589C35.3562 36.8495 34.84 37.1905 34.3537 37.5781C34.009 37.8538 33.7314 38.1855 33.5749 38.601C33.3401 39.2215 33.6755 39.801 34.3276 39.9295Z" fill="black"/>
<path d="M47.9219 59.9162C48.5127 59.9162 49.1036 59.9058 49.6944 59.9204C49.97 59.9288 50.2539 59.9517 50.5148 60.0311C50.9491 60.1626 51.1766 60.53 51.1704 60.9872C51.1662 61.3087 51.0618 61.6052 50.9178 61.8828C50.233 63.2148 49.4501 64.4862 48.4835 65.6365C48.3061 65.8495 48.1035 66.0436 47.8927 66.2232C46.4062 67.4925 44.638 67.6533 42.9678 66.6282C41.2538 65.576 40.3498 63.9935 40.0722 62.0269C40.0534 61.8891 40.0492 61.7492 40.0555 61.6114C40.0784 61.1355 40.2475 60.9058 40.6818 60.7617C40.8133 60.7179 40.9511 60.6866 41.0868 60.6657C43.3561 60.3421 45.6087 59.8703 47.9198 59.9121L47.9219 59.9162ZM45.0659 65.7848C45.9135 65.7952 46.592 65.4758 47.1286 64.8891C47.924 64.0165 48.5816 63.0394 49.162 62.0123C49.2121 61.9225 49.2476 61.8223 49.281 61.7242C49.3583 61.5029 49.2205 61.3192 48.9699 61.3066C48.901 61.3025 48.8301 61.2983 48.7633 61.3066C47.1474 61.4883 45.5148 61.4549 43.9052 61.7179C43.2914 61.8181 42.6713 61.8954 42.0659 62.0269C41.688 62.1083 41.5669 62.3651 41.688 62.7409C42.0555 63.8662 42.7298 64.7639 43.7215 65.4132C44.1369 65.6866 44.6025 65.8098 45.068 65.7869L45.0659 65.7848Z" fill="black"/>
<path fill-rule="evenodd" clip-rule="evenodd" d="M47.1286 64.8891C46.592 65.4758 45.9135 65.7952 45.0659 65.7848L45.068 65.7869C44.6025 65.8098 44.1369 65.6866 43.7215 65.4132C42.7298 64.7639 42.0555 63.8662 41.688 62.7409C41.5669 62.3651 41.688 62.1083 42.0659 62.0269C42.4913 61.9345 42.9239 61.8689 43.3564 61.8033C43.5395 61.7755 43.7226 61.7477 43.9052 61.7179C44.8381 61.5655 45.7787 61.5126 46.7193 61.4597C47.4016 61.4214 48.0839 61.383 48.7633 61.3066C48.8301 61.2983 48.901 61.3025 48.9699 61.3066C49.2205 61.3192 49.3583 61.5029 49.281 61.7242C49.2476 61.8223 49.2121 61.9225 49.162 62.0123C48.5816 63.0394 47.924 64.0165 47.1286 64.8891Z" fill="#EFEFEF"/>
</svg>
