<svg width="91" height="113" viewBox="0 0 91 113" fill="none" xmlns="http://www.w3.org/2000/svg">
<path d="M44.1783 57.0994C43.7125 57.1273 43.2411 56.9913 42.8293 56.6876C42.5517 56.4826 42.2591 56.2311 42.4417 55.8417C42.628 55.4429 43.0007 55.5082 43.3305 55.6367C43.8988 55.8584 44.4503 55.9404 45.0391 55.6814C45.6335 55.4206 45.7825 55.0684 45.3726 54.5355C45.108 54.1927 44.8192 53.8685 44.5863 53.5051C44.4 53.2163 44.2621 52.866 44.5752 52.5716C44.8956 52.2679 45.2198 52.4785 45.5068 52.6555C46.3397 53.1716 47.0235 54.6976 46.7813 55.456C46.4682 56.4379 45.4285 57.1068 44.1801 57.0994H44.1783Z" fill="black"/>
<path d="M54.0306 49.4723C53.9822 50.2493 53.781 50.9797 53.1512 51.5312C52.4282 52.1647 51.4836 52.1293 50.8165 51.4399C50.5296 51.1437 50.3376 50.7897 50.2296 50.3965C50.0563 49.7574 50.0488 49.1034 50.2109 48.4643C50.3731 47.8289 50.7941 47.3743 51.3736 47.0855C52.1115 46.7184 52.9444 46.9439 53.4381 47.6165C53.7698 48.0674 54.025 48.8593 54.0269 49.4723H54.0306Z" fill="black"/>
<path d="M39.1626 49.3997C39.09 50.1264 38.9558 50.8828 38.3465 51.4605C37.6404 52.1294 36.7236 52.1461 36.0044 51.4996C34.8287 50.4413 34.8641 48.3786 36.0771 47.3576C36.7982 46.752 37.6646 46.7818 38.3409 47.4209C38.8943 47.9445 39.1105 48.6041 39.1645 49.3978L39.1626 49.3997Z" fill="black"/>
<path d="M56.9317 39.9295C56.6168 39.9929 56.3075 39.9575 56.0149 39.8494C55.5808 39.6892 55.1485 39.5159 54.7349 39.3072C53.5722 38.7128 52.3797 38.2079 51.0847 37.9712C50.7829 37.9172 50.4904 37.7979 50.2034 37.6861C49.9705 37.5948 49.773 37.4421 49.6258 37.2334C49.3612 36.8607 49.3985 36.4638 49.7246 36.1434C49.9053 35.9664 50.1177 35.8415 50.3543 35.7595C50.7978 35.6049 51.2543 35.5285 51.7257 35.5117C53.0076 35.5993 54.2169 35.957 55.3535 36.5589C55.9031 36.8495 56.4193 37.1905 56.9056 37.5781C57.2503 37.8538 57.5279 38.1855 57.6844 38.601C57.9192 39.2215 57.5838 39.801 56.9317 39.9295Z" fill="black"/>
<path d="M33.8276 39.9295C34.1425 39.9929 34.4518 39.9575 34.7444 39.8494C35.1785 39.6892 35.6108 39.5159 36.0244 39.3072C37.1871 38.7128 38.3796 38.2079 39.6746 37.9712C39.9764 37.9172 40.2689 37.7979 40.5559 37.6861C40.7888 37.5948 40.9863 37.4421 41.1335 37.2334C41.3981 36.8607 41.3608 36.4638 41.0347 36.1434C40.854 35.9664 40.6416 35.8415 40.405 35.7595C39.9615 35.6049 39.505 35.5285 39.0336 35.5117C37.7517 35.5993 36.5424 35.957 35.4058 36.5589C34.8562 36.8495 34.34 37.1905 33.8537 37.5781C33.509 37.8538 33.2314 38.1855 33.0749 38.601C32.8401 39.2215 33.1755 39.801 33.8276 39.9295Z" fill="black"/>
<path d="M47.4219 59.9162C48.0127 59.9162 48.6036 59.9058 49.1944 59.9204C49.47 59.9288 49.7539 59.9517 50.0148 60.0311C50.4491 60.1626 50.6766 60.53 50.6704 60.9872C50.6662 61.3087 50.5618 61.6052 50.4178 61.8828C49.733 63.2148 48.9501 64.4862 47.9835 65.6365C47.8061 65.8495 47.6035 66.0436 47.3927 66.2232C45.9062 67.4925 44.138 67.6533 42.4678 66.6282C40.7538 65.576 39.8498 63.9935 39.5722 62.0269C39.5534 61.8891 39.5492 61.7492 39.5555 61.6114C39.5784 61.1355 39.7475 60.9058 40.1818 60.7617C40.3133 60.7179 40.4511 60.6866 40.5868 60.6657C42.8561 60.3421 45.1087 59.8703 47.4198 59.9121L47.4219 59.9162ZM44.5659 65.7848C45.4135 65.7952 46.092 65.4758 46.6286 64.8891C47.424 64.0165 48.0816 63.0394 48.662 62.0123C48.7121 61.9225 48.7476 61.8223 48.781 61.7242C48.8583 61.5029 48.7205 61.3192 48.4699 61.3066C48.401 61.3025 48.3301 61.2983 48.2633 61.3066C46.6474 61.4883 45.0148 61.4549 43.4052 61.7179C42.7914 61.8181 42.1713 61.8954 41.5659 62.0269C41.188 62.1083 41.0669 62.3651 41.188 62.7409C41.5555 63.8662 42.2298 64.7639 43.2215 65.4132C43.6369 65.6866 44.1025 65.8098 44.568 65.7869L44.5659 65.7848Z" fill="black"/>
<path fill-rule="evenodd" clip-rule="evenodd" d="M46.6286 64.8891C46.092 65.4758 45.4135 65.7952 44.5659 65.7848L44.568 65.7869C44.1025 65.8098 43.6369 65.6866 43.2215 65.4132C42.2298 64.7639 41.5555 63.8662 41.188 62.7409C41.0669 62.3651 41.188 62.1083 41.5659 62.0269C41.9913 61.9345 42.4239 61.8689 42.8564 61.8033C43.0395 61.7755 43.2226 61.7477 43.4052 61.7179C44.3381 61.5655 45.2787 61.5126 46.2193 61.4597C46.9016 61.4214 47.5839 61.383 48.2633 61.3066C48.3301 61.2983 48.401 61.3025 48.4699 61.3066C48.7205 61.3192 48.8583 61.5029 48.781 61.7242C48.7476 61.8223 48.7121 61.9225 48.662 62.0123C48.0816 63.0394 47.424 64.0165 46.6286 64.8891Z" fill="#EFEFEF"/>
</svg>
