<svg width="91" height="113" viewBox="0 0 91 113" fill="none" xmlns="http://www.w3.org/2000/svg">
<path d="M44.1783 57.4392C43.7125 57.4672 43.2411 57.3312 42.8293 57.0274C42.5517 56.8225 42.2591 56.5709 42.4417 56.1815C42.628 55.7828 43.0007 55.848 43.3305 55.9766C43.8988 56.1983 44.4503 56.2803 45.0391 56.0213C45.6335 55.7604 45.7825 55.4083 45.3726 54.8754C45.108 54.5325 44.8192 54.2083 44.5863 53.845C44.4 53.5562 44.2621 53.2059 44.5752 52.9115C44.8956 52.6078 45.2198 52.8183 45.5068 52.9953C46.3397 53.5115 47.0235 55.0375 46.7813 55.7958C46.4682 56.7778 45.4285 57.4467 44.1801 57.4392H44.1783Z" fill="black"/>
<path d="M54.0306 49.8122C53.9822 50.5892 53.781 51.3196 53.1512 51.8711C52.4282 52.5046 51.4836 52.4692 50.8165 51.7798C50.5296 51.4835 50.3376 51.1295 50.2296 50.7364C50.0563 50.0973 50.0488 49.4433 50.2109 48.8042C50.3731 48.1688 50.7941 47.7141 51.3736 47.4253C52.1115 47.0583 52.9444 47.2837 53.4381 47.9564C53.7698 48.4073 54.025 49.1992 54.0269 49.8122H54.0306Z" fill="black"/>
<path d="M39.1626 49.7395C39.09 50.4662 38.9558 51.2227 38.3465 51.8003C37.6404 52.4692 36.7236 52.486 36.0044 51.8394C34.8287 50.7811 34.8641 48.7185 36.0771 47.6974C36.7982 47.0918 37.6646 47.1216 38.3409 47.7607C38.8943 48.2843 39.1105 48.9439 39.1645 49.7377L39.1626 49.7395Z" fill="black"/>
<path d="M56.9317 40.2694C56.6168 40.3327 56.3075 40.2973 56.0149 40.1892C55.5808 40.029 55.1485 39.8557 54.7349 39.647C53.5722 39.0526 52.3797 38.5477 51.0847 38.3111C50.7829 38.257 50.4904 38.1378 50.2034 38.026C49.9705 37.9347 49.773 37.7819 49.6258 37.5732C49.3612 37.2006 49.3985 36.8037 49.7246 36.4832C49.9053 36.3062 50.1177 36.1814 50.3543 36.0994C50.7978 35.9447 51.2543 35.8683 51.7257 35.8516C53.0076 35.9391 54.2169 36.2969 55.3535 36.8987C55.9031 37.1894 56.4193 37.5304 56.9056 37.9179C57.2503 38.1937 57.5279 38.5253 57.6844 38.9409C57.9192 39.5613 57.5838 40.1408 56.9317 40.2694Z" fill="black"/>
<path d="M33.8276 40.2694C34.1425 40.3327 34.4518 40.2973 34.7444 40.1892C35.1785 40.029 35.6108 39.8557 36.0244 39.647C37.1871 39.0526 38.3796 38.5477 39.6746 38.3111C39.9764 38.257 40.2689 38.1378 40.5559 38.026C40.7888 37.9347 40.9863 37.7819 41.1335 37.5732C41.3981 37.2006 41.3608 36.8037 41.0347 36.4832C40.854 36.3062 40.6416 36.1814 40.405 36.0994C39.9615 35.9447 39.505 35.8683 39.0336 35.8516C37.7517 35.9391 36.5424 36.2969 35.4058 36.8987C34.8562 37.1894 34.34 37.5304 33.8537 37.9179C33.509 38.1937 33.2314 38.5253 33.0749 38.9409C32.8401 39.5613 33.1755 40.1408 33.8276 40.2694Z" fill="black"/>
<path d="M47.4219 60.2561C48.0127 60.2561 48.6036 60.2456 49.1944 60.2602C49.47 60.2686 49.7539 60.2916 50.0148 60.3709C50.4491 60.5024 50.6766 60.8699 50.6704 61.3271C50.6662 61.6486 50.5618 61.945 50.4178 62.2227C49.733 63.5546 48.9501 64.8261 47.9835 65.9764C47.8061 66.1893 47.6035 66.3835 47.3927 66.563C45.9062 67.8323 44.138 67.9931 42.4678 66.968C40.7538 65.9158 39.8498 64.3334 39.5722 62.3667C39.5534 62.229 39.5492 62.0891 39.5555 61.9513C39.5784 61.4753 39.7475 61.2456 40.1818 61.1016C40.3133 61.0578 40.4511 61.0264 40.5868 61.0056C42.8561 60.682 45.1087 60.2101 47.4198 60.2519L47.4219 60.2561ZM44.5659 66.1246C45.4135 66.135 46.092 65.8156 46.6286 65.229C47.424 64.3563 48.0816 63.3793 48.662 62.3521C48.7121 62.2624 48.7476 62.1621 48.781 62.064C48.8583 61.8427 48.7205 61.659 48.4699 61.6465C48.401 61.6423 48.3301 61.6381 48.2633 61.6465C46.6474 61.8281 45.0148 61.7947 43.4052 62.0578C42.7914 62.158 42.1713 62.2352 41.5659 62.3667C41.188 62.4482 41.0669 62.705 41.188 63.0807C41.5555 64.206 42.2298 65.1037 43.2215 65.753C43.6369 66.0265 44.1025 66.1497 44.568 66.1267L44.5659 66.1246Z" fill="black"/>
<path fill-rule="evenodd" clip-rule="evenodd" d="M46.6286 65.229C46.092 65.8156 45.4135 66.135 44.5659 66.1246L44.568 66.1267C44.1025 66.1497 43.6369 66.0265 43.2215 65.753C42.2298 65.1037 41.5555 64.206 41.188 63.0807C41.0669 62.705 41.188 62.4482 41.5659 62.3667C41.9913 62.2743 42.4239 62.2087 42.8564 62.1431C43.0395 62.1153 43.2226 62.0876 43.4052 62.0578C44.3381 61.9053 45.2787 61.8524 46.2193 61.7995C46.9016 61.7612 47.5839 61.7228 48.2633 61.6465C48.3301 61.6381 48.401 61.6423 48.4699 61.6465C48.7205 61.659 48.8583 61.8427 48.781 62.064C48.7476 62.1621 48.7121 62.2624 48.662 62.3521C48.0816 63.3793 47.424 64.3563 46.6286 65.229Z" fill="#EFEFEF"/>
</svg>
