<svg width="91" height="114" viewBox="0 0 91 114" fill="none" xmlns="http://www.w3.org/2000/svg">
<path d="M44.1783 57.7693C43.7125 57.7972 43.2411 57.6612 42.8293 57.3575C42.5517 57.1526 42.2591 56.901 42.4417 56.5116C42.628 56.1129 43.0007 56.1781 43.3305 56.3066C43.8988 56.5284 44.4503 56.6103 45.0391 56.3514C45.6335 56.0905 45.7825 55.7383 45.3726 55.2054C45.108 54.8626 44.8192 54.5384 44.5863 54.1751C44.4 53.8863 44.2621 53.536 44.5752 53.2416C44.8956 52.9379 45.2198 53.1484 45.5068 53.3254C46.3397 53.8415 47.0235 55.3676 46.7813 56.1259C46.4682 57.1078 45.4285 57.7768 44.1801 57.7693H44.1783Z" fill="black"/>
<path d="M54.0306 50.1423C53.9822 50.9192 53.781 51.6496 53.1512 52.2012C52.4282 52.8347 51.4836 52.7993 50.8165 52.1099C50.5296 51.8136 50.3376 51.4596 50.2296 51.0664C50.0563 50.4273 50.0488 49.7733 50.2109 49.1342C50.3731 48.4989 50.7941 48.0442 51.3736 47.7554C52.1115 47.3884 52.9444 47.6138 53.4381 48.2864C53.7698 48.7374 54.025 49.5292 54.0269 50.1423H54.0306Z" fill="black"/>
<path d="M39.1626 50.0696C39.09 50.7963 38.9558 51.5528 38.3465 52.1304C37.6404 52.7993 36.7236 52.8161 36.0044 52.1695C34.8287 51.1112 34.8641 49.0485 36.0771 48.0275C36.7982 47.4219 37.6646 47.4517 38.3409 48.0908C38.8943 48.6144 39.1105 49.274 39.1645 50.0677L39.1626 50.0696Z" fill="black"/>
<path d="M56.9317 40.5994C56.6168 40.6628 56.3075 40.6274 56.0149 40.5193C55.5808 40.3591 55.1485 40.1858 54.7349 39.9771C53.5722 39.3827 52.3797 38.8778 51.0847 38.6411C50.7829 38.5871 50.4904 38.4679 50.2034 38.3561C49.9705 38.2648 49.773 38.112 49.6258 37.9033C49.3612 37.5306 49.3985 37.1338 49.7246 36.8133C49.9053 36.6363 50.1177 36.5114 50.3543 36.4295C50.7978 36.2748 51.2543 36.1984 51.7257 36.1816C53.0076 36.2692 54.2169 36.627 55.3535 37.2288C55.9031 37.5195 56.4193 37.8604 56.9056 38.248C57.2503 38.5238 57.5279 38.8554 57.6844 39.2709C57.9192 39.8914 57.5838 40.4709 56.9317 40.5994Z" fill="black"/>
<path d="M33.8276 40.5994C34.1425 40.6628 34.4518 40.6274 34.7444 40.5193C35.1785 40.3591 35.6108 40.1858 36.0244 39.9771C37.1871 39.3827 38.3796 38.8778 39.6746 38.6411C39.9764 38.5871 40.2689 38.4679 40.5559 38.3561C40.7888 38.2648 40.9863 38.112 41.1335 37.9033C41.3981 37.5306 41.3608 37.1338 41.0347 36.8133C40.854 36.6363 40.6416 36.5114 40.405 36.4295C39.9615 36.2748 39.505 36.1984 39.0336 36.1816C37.7517 36.2692 36.5424 36.627 35.4058 37.2288C34.8562 37.5195 34.34 37.8604 33.8537 38.248C33.509 38.5238 33.2314 38.8554 33.0749 39.2709C32.8401 39.8914 33.1755 40.4709 33.8276 40.5994Z" fill="black"/>
<path d="M47.4219 60.5862C48.0127 60.5862 48.6036 60.5757 49.1944 60.5903C49.47 60.5987 49.7539 60.6216 50.0148 60.701C50.4491 60.8325 50.6766 61.1999 50.6704 61.6571C50.6662 61.9787 50.5618 62.2751 50.4178 62.5528C49.733 63.8847 48.9501 65.1561 47.9835 66.3065C47.8061 66.5194 47.6035 66.7136 47.3927 66.8931C45.9062 68.1624 44.138 68.3232 42.4678 67.2981C40.7538 66.2459 39.8498 64.6634 39.5722 62.6968C39.5534 62.559 39.5492 62.4192 39.5555 62.2814C39.5784 61.8054 39.7475 61.5757 40.1818 61.4317C40.3133 61.3878 40.4511 61.3565 40.5868 61.3356C42.8561 61.012 45.1087 60.5402 47.4198 60.582L47.4219 60.5862ZM44.5659 66.4547C45.4135 66.4651 46.092 66.1457 46.6286 65.5591C47.424 64.6864 48.0816 63.7094 48.662 62.6822C48.7121 62.5924 48.7476 62.4922 48.781 62.3941C48.8583 62.1728 48.7205 61.9891 48.4699 61.9766C48.401 61.9724 48.3301 61.9682 48.2633 61.9766C46.6474 62.1582 45.0148 62.1248 43.4052 62.3878C42.7914 62.488 42.1713 62.5653 41.5659 62.6968C41.188 62.7782 41.0669 63.035 41.188 63.4108C41.5555 64.5361 42.2298 65.4338 43.2215 66.0831C43.6369 66.3566 44.1025 66.4797 44.568 66.4568L44.5659 66.4547Z" fill="black"/>
<path fill-rule="evenodd" clip-rule="evenodd" d="M46.6286 65.5591C46.092 66.1457 45.4135 66.4651 44.5659 66.4547L44.568 66.4568C44.1025 66.4797 43.6369 66.3566 43.2215 66.0831C42.2298 65.4338 41.5555 64.5361 41.188 63.4108C41.0669 63.035 41.188 62.7782 41.5659 62.6968C41.9913 62.6044 42.4239 62.5388 42.8564 62.4732C43.0395 62.4454 43.2226 62.4176 43.4052 62.3878C44.3381 62.2354 45.2787 62.1825 46.2193 62.1296C46.9016 62.0913 47.5839 62.0529 48.2633 61.9766C48.3301 61.9682 48.401 61.9724 48.4699 61.9766C48.7205 61.9891 48.8583 62.1728 48.781 62.3941C48.7476 62.4922 48.7121 62.5924 48.662 62.6822C48.0816 63.7094 47.424 64.6864 46.6286 65.5591Z" fill="#EFEFEF"/>
</svg>
