<svg width="92" height="113" viewBox="0 0 92 113" fill="none" xmlns="http://www.w3.org/2000/svg">
<path d="M44.9283 57.4392C44.4625 57.4672 43.9911 57.3312 43.5793 57.0274C43.3017 56.8225 43.0091 56.5709 43.1917 56.1815C43.378 55.7828 43.7507 55.848 44.0805 55.9766C44.6488 56.1983 45.2003 56.2803 45.7891 56.0213C46.3835 55.7604 46.5325 55.4083 46.1226 54.8754C45.858 54.5325 45.5692 54.2083 45.3363 53.845C45.15 53.5562 45.0121 53.2059 45.3252 52.9115C45.6456 52.6078 45.9698 52.8183 46.2568 52.9953C47.0897 53.5115 47.7735 55.0375 47.5313 55.7958C47.2182 56.7778 46.1785 57.4467 44.9301 57.4392H44.9283Z" fill="black"/>
<path d="M54.7806 49.8122C54.7322 50.5892 54.531 51.3196 53.9012 51.8711C53.1782 52.5046 52.2336 52.4692 51.5665 51.7798C51.2796 51.4835 51.0876 51.1295 50.9796 50.7364C50.8063 50.0973 50.7988 49.4433 50.9609 48.8042C51.1231 48.1688 51.5441 47.7141 52.1236 47.4253C52.8615 47.0583 53.6944 47.2837 54.1881 47.9564C54.5198 48.4073 54.775 49.1992 54.7769 49.8122H54.7806Z" fill="black"/>
<path d="M39.9126 49.7395C39.84 50.4662 39.7058 51.2227 39.0965 51.8003C38.3904 52.4692 37.4736 52.486 36.7544 51.8394C35.5787 50.7811 35.6141 48.7185 36.8271 47.6974C37.5482 47.0918 38.4146 47.1216 39.0909 47.7607C39.6443 48.2843 39.8605 48.9439 39.9145 49.7377L39.9126 49.7395Z" fill="black"/>
<path d="M57.6817 40.2694C57.3668 40.3327 57.0575 40.2973 56.7649 40.1892C56.3308 40.029 55.8985 39.8557 55.4849 39.647C54.3222 39.0526 53.1297 38.5477 51.8347 38.3111C51.5329 38.257 51.2404 38.1378 50.9534 38.026C50.7205 37.9347 50.523 37.7819 50.3758 37.5732C50.1112 37.2006 50.1485 36.8037 50.4746 36.4832C50.6553 36.3062 50.8677 36.1814 51.1043 36.0994C51.5478 35.9447 52.0043 35.8683 52.4757 35.8516C53.7576 35.9391 54.9669 36.2969 56.1035 36.8987C56.6531 37.1894 57.1693 37.5304 57.6556 37.9179C58.0003 38.1937 58.2779 38.5253 58.4344 38.9409C58.6692 39.5613 58.3338 40.1408 57.6817 40.2694Z" fill="black"/>
<path d="M34.5776 40.2694C34.8925 40.3327 35.2018 40.2973 35.4944 40.1892C35.9285 40.029 36.3608 39.8557 36.7744 39.647C37.9371 39.0526 39.1296 38.5477 40.4246 38.3111C40.7264 38.257 41.0189 38.1378 41.3059 38.026C41.5388 37.9347 41.7363 37.7819 41.8835 37.5732C42.1481 37.2006 42.1108 36.8037 41.7847 36.4832C41.604 36.3062 41.3916 36.1814 41.155 36.0994C40.7115 35.9447 40.255 35.8683 39.7836 35.8516C38.5017 35.9391 37.2924 36.2969 36.1558 36.8987C35.6062 37.1894 35.09 37.5304 34.6037 37.9179C34.259 38.1937 33.9814 38.5253 33.8249 38.9409C33.5901 39.5613 33.9255 40.1408 34.5776 40.2694Z" fill="black"/>
<path d="M48.1719 60.2561C48.7627 60.2561 49.3536 60.2456 49.9444 60.2602C50.22 60.2686 50.5039 60.2916 50.7648 60.3709C51.1991 60.5024 51.4266 60.8699 51.4204 61.3271C51.4162 61.6486 51.3118 61.945 51.1678 62.2227C50.483 63.5546 49.7001 64.8261 48.7335 65.9764C48.5561 66.1893 48.3535 66.3835 48.1427 66.563C46.6562 67.8323 44.888 67.9931 43.2178 66.968C41.5038 65.9158 40.5998 64.3334 40.3222 62.3667C40.3034 62.229 40.2992 62.0891 40.3055 61.9513C40.3284 61.4753 40.4975 61.2456 40.9318 61.1016C41.0633 61.0578 41.2011 61.0264 41.3368 61.0056C43.6061 60.682 45.8587 60.2101 48.1698 60.2519L48.1719 60.2561ZM45.3159 66.1246C46.1635 66.135 46.842 65.8156 47.3786 65.229C48.174 64.3563 48.8316 63.3793 49.412 62.3521C49.4621 62.2624 49.4976 62.1621 49.531 62.064C49.6083 61.8427 49.4705 61.659 49.2199 61.6465C49.151 61.6423 49.0801 61.6381 49.0133 61.6465C47.3974 61.8281 45.7648 61.7947 44.1552 62.0578C43.5414 62.158 42.9213 62.2352 42.3159 62.3667C41.938 62.4482 41.8169 62.705 41.938 63.0807C42.3055 64.206 42.9798 65.1037 43.9715 65.753C44.3869 66.0265 44.8525 66.1497 45.318 66.1267L45.3159 66.1246Z" fill="black"/>
<path fill-rule="evenodd" clip-rule="evenodd" d="M47.3786 65.229C46.842 65.8156 46.1635 66.135 45.3159 66.1246L45.318 66.1267C44.8525 66.1497 44.3869 66.0265 43.9715 65.753C42.9798 65.1037 42.3055 64.206 41.938 63.0807C41.8169 62.705 41.938 62.4482 42.3159 62.3667C42.7413 62.2743 43.1739 62.2087 43.6064 62.1431C43.7895 62.1153 43.9726 62.0876 44.1552 62.0578C45.0881 61.9053 46.0287 61.8524 46.9693 61.7995C47.6516 61.7612 48.3339 61.7228 49.0133 61.6465C49.0801 61.6381 49.151 61.6423 49.2199 61.6465C49.4705 61.659 49.6083 61.8427 49.531 62.064C49.4976 62.1621 49.4621 62.2624 49.412 62.3521C48.8316 63.3793 48.174 64.3563 47.3786 65.229Z" fill="#EFEFEF"/>
</svg>
