<svg width="91" height="113" viewBox="0 0 91 113" fill="none" xmlns="http://www.w3.org/2000/svg">
<path d="M44.4283 57.4392C43.9625 57.4672 43.4911 57.3312 43.0793 57.0274C42.8017 56.8225 42.5091 56.5709 42.6917 56.1815C42.878 55.7828 43.2507 55.848 43.5805 55.9766C44.1488 56.1983 44.7003 56.2803 45.2891 56.0213C45.8835 55.7604 46.0325 55.4083 45.6226 54.8754C45.358 54.5325 45.0692 54.2083 44.8363 53.845C44.65 53.5562 44.5121 53.2059 44.8252 52.9115C45.1456 52.6078 45.4698 52.8183 45.7568 52.9953C46.5897 53.5115 47.2735 55.0375 47.0313 55.7958C46.7182 56.7778 45.6785 57.4467 44.4301 57.4392H44.4283Z" fill="black"/>
<path d="M54.2806 49.8122C54.2322 50.5892 54.031 51.3196 53.4012 51.8711C52.6782 52.5046 51.7336 52.4692 51.0665 51.7798C50.7796 51.4835 50.5876 51.1295 50.4796 50.7364C50.3063 50.0973 50.2988 49.4433 50.4609 48.8042C50.6231 48.1688 51.0441 47.7141 51.6236 47.4253C52.3615 47.0583 53.1944 47.2837 53.6881 47.9564C54.0198 48.4073 54.275 49.1992 54.2769 49.8122H54.2806Z" fill="black"/>
<path d="M39.4126 49.7395C39.34 50.4662 39.2058 51.2227 38.5965 51.8003C37.8904 52.4692 36.9736 52.486 36.2544 51.8394C35.0787 50.7811 35.1141 48.7185 36.3271 47.6974C37.0482 47.0918 37.9146 47.1216 38.5909 47.7607C39.1443 48.2843 39.3605 48.9439 39.4145 49.7377L39.4126 49.7395Z" fill="black"/>
<path d="M57.1817 40.2694C56.8668 40.3327 56.5575 40.2973 56.2649 40.1892C55.8308 40.029 55.3985 39.8557 54.9849 39.647C53.8222 39.0526 52.6297 38.5477 51.3347 38.3111C51.0329 38.257 50.7404 38.1378 50.4534 38.026C50.2205 37.9347 50.023 37.7819 49.8758 37.5732C49.6112 37.2006 49.6485 36.8037 49.9746 36.4832C50.1553 36.3062 50.3677 36.1814 50.6043 36.0994C51.0478 35.9447 51.5043 35.8683 51.9757 35.8516C53.2576 35.9391 54.4669 36.2969 55.6035 36.8987C56.1531 37.1894 56.6693 37.5304 57.1556 37.9179C57.5003 38.1937 57.7779 38.5253 57.9344 38.9409C58.1692 39.5613 57.8338 40.1408 57.1817 40.2694Z" fill="black"/>
<path d="M34.0776 40.2694C34.3925 40.3327 34.7018 40.2973 34.9944 40.1892C35.4285 40.029 35.8608 39.8557 36.2744 39.647C37.4371 39.0526 38.6296 38.5477 39.9246 38.3111C40.2264 38.257 40.5189 38.1378 40.8059 38.026C41.0388 37.9347 41.2363 37.7819 41.3835 37.5732C41.6481 37.2006 41.6108 36.8037 41.2847 36.4832C41.104 36.3062 40.8916 36.1814 40.655 36.0994C40.2115 35.9447 39.755 35.8683 39.2836 35.8516C38.0017 35.9391 36.7924 36.2969 35.6558 36.8987C35.1062 37.1894 34.59 37.5304 34.1037 37.9179C33.759 38.1937 33.4814 38.5253 33.3249 38.9409C33.0901 39.5613 33.4255 40.1408 34.0776 40.2694Z" fill="black"/>
<path d="M47.6719 60.2561C48.2627 60.2561 48.8536 60.2456 49.4444 60.2602C49.72 60.2686 50.0039 60.2916 50.2648 60.3709C50.6991 60.5024 50.9266 60.8699 50.9204 61.3271C50.9162 61.6486 50.8118 61.945 50.6678 62.2227C49.983 63.5546 49.2001 64.8261 48.2335 65.9764C48.0561 66.1893 47.8535 66.3835 47.6427 66.563C46.1562 67.8323 44.388 67.9931 42.7178 66.968C41.0038 65.9158 40.0998 64.3334 39.8222 62.3667C39.8034 62.229 39.7992 62.0891 39.8055 61.9513C39.8284 61.4753 39.9975 61.2456 40.4318 61.1016C40.5633 61.0578 40.7011 61.0264 40.8368 61.0056C43.1061 60.682 45.3587 60.2101 47.6698 60.2519L47.6719 60.2561ZM44.8159 66.1246C45.6635 66.135 46.342 65.8156 46.8786 65.229C47.674 64.3563 48.3316 63.3793 48.912 62.3521C48.9621 62.2624 48.9976 62.1621 49.031 62.064C49.1083 61.8427 48.9705 61.659 48.7199 61.6465C48.651 61.6423 48.5801 61.6381 48.5133 61.6465C46.8974 61.8281 45.2648 61.7947 43.6552 62.0578C43.0414 62.158 42.4213 62.2352 41.8159 62.3667C41.438 62.4482 41.3169 62.705 41.438 63.0807C41.8055 64.206 42.4798 65.1037 43.4715 65.753C43.8869 66.0265 44.3525 66.1497 44.818 66.1267L44.8159 66.1246Z" fill="black"/>
<path fill-rule="evenodd" clip-rule="evenodd" d="M46.8786 65.229C46.342 65.8156 45.6635 66.135 44.8159 66.1246L44.818 66.1267C44.3525 66.1497 43.8869 66.0265 43.4715 65.753C42.4798 65.1037 41.8055 64.206 41.438 63.0807C41.3169 62.705 41.438 62.4482 41.8159 62.3667C42.2413 62.2743 42.6739 62.2087 43.1064 62.1431C43.2895 62.1153 43.4726 62.0876 43.6552 62.0578C44.5881 61.9053 45.5287 61.8524 46.4693 61.7995C47.1516 61.7612 47.8339 61.7228 48.5133 61.6465C48.5801 61.6381 48.651 61.6423 48.7199 61.6465C48.9705 61.659 49.1083 61.8427 49.031 62.064C48.9976 62.1621 48.9621 62.2624 48.912 62.3521C48.3316 63.3793 47.674 64.3563 46.8786 65.229Z" fill="#EFEFEF"/>
</svg>
