<svg width="91" height="113" viewBox="0 0 91 113" fill="none" xmlns="http://www.w3.org/2000/svg">
<path d="M44.4283 57.0994C43.9625 57.1273 43.4911 56.9913 43.0793 56.6876C42.8017 56.4826 42.5091 56.2311 42.6917 55.8417C42.878 55.4429 43.2507 55.5082 43.5805 55.6367C44.1488 55.8584 44.7003 55.9404 45.2891 55.6814C45.8835 55.4206 46.0325 55.0684 45.6226 54.5355C45.358 54.1927 45.0692 53.8685 44.8363 53.5051C44.65 53.2163 44.5121 52.866 44.8252 52.5716C45.1456 52.2679 45.4698 52.4785 45.7568 52.6555C46.5897 53.1716 47.2735 54.6976 47.0313 55.456C46.7182 56.4379 45.6785 57.1068 44.4301 57.0994H44.4283Z" fill="black"/>
<path d="M54.2806 49.4723C54.2322 50.2493 54.031 50.9797 53.4012 51.5312C52.6782 52.1647 51.7336 52.1293 51.0665 51.4399C50.7796 51.1437 50.5876 50.7897 50.4796 50.3965C50.3063 49.7574 50.2988 49.1034 50.4609 48.4643C50.6231 47.8289 51.0441 47.3743 51.6236 47.0855C52.3615 46.7184 53.1944 46.9439 53.6881 47.6165C54.0198 48.0674 54.275 48.8593 54.2769 49.4723H54.2806Z" fill="black"/>
<path d="M39.4126 49.3997C39.34 50.1264 39.2058 50.8828 38.5965 51.4605C37.8904 52.1294 36.9736 52.1461 36.2544 51.4996C35.0787 50.4413 35.1141 48.3786 36.3271 47.3576C37.0482 46.752 37.9146 46.7818 38.5909 47.4209C39.1443 47.9445 39.3605 48.6041 39.4145 49.3978L39.4126 49.3997Z" fill="black"/>
<path d="M57.1817 39.9295C56.8668 39.9929 56.5575 39.9575 56.2649 39.8494C55.8308 39.6892 55.3985 39.5159 54.9849 39.3072C53.8222 38.7128 52.6297 38.2079 51.3347 37.9712C51.0329 37.9172 50.7404 37.7979 50.4534 37.6861C50.2205 37.5948 50.023 37.4421 49.8758 37.2334C49.6112 36.8607 49.6485 36.4638 49.9746 36.1434C50.1553 35.9664 50.3677 35.8415 50.6043 35.7595C51.0478 35.6049 51.5043 35.5285 51.9757 35.5117C53.2576 35.5993 54.4669 35.957 55.6035 36.5589C56.1531 36.8495 56.6693 37.1905 57.1556 37.5781C57.5003 37.8538 57.7779 38.1855 57.9344 38.601C58.1692 39.2215 57.8338 39.801 57.1817 39.9295Z" fill="black"/>
<path d="M34.0776 39.9295C34.3925 39.9929 34.7018 39.9575 34.9944 39.8494C35.4285 39.6892 35.8608 39.5159 36.2744 39.3072C37.4371 38.7128 38.6296 38.2079 39.9246 37.9712C40.2264 37.9172 40.5189 37.7979 40.8059 37.6861C41.0388 37.5948 41.2363 37.4421 41.3835 37.2334C41.6481 36.8607 41.6108 36.4638 41.2847 36.1434C41.104 35.9664 40.8916 35.8415 40.655 35.7595C40.2115 35.6049 39.755 35.5285 39.2836 35.5117C38.0017 35.5993 36.7924 35.957 35.6558 36.5589C35.1062 36.8495 34.59 37.1905 34.1037 37.5781C33.759 37.8538 33.4814 38.1855 33.3249 38.601C33.0901 39.2215 33.4255 39.801 34.0776 39.9295Z" fill="black"/>
<path d="M47.6719 59.9162C48.2627 59.9162 48.8536 59.9058 49.4444 59.9204C49.72 59.9288 50.0039 59.9517 50.2648 60.0311C50.6991 60.1626 50.9266 60.53 50.9204 60.9872C50.9162 61.3087 50.8118 61.6052 50.6678 61.8828C49.983 63.2148 49.2001 64.4862 48.2335 65.6365C48.0561 65.8495 47.8535 66.0436 47.6427 66.2232C46.1562 67.4925 44.388 67.6533 42.7178 66.6282C41.0038 65.576 40.0998 63.9935 39.8222 62.0269C39.8034 61.8891 39.7992 61.7492 39.8055 61.6114C39.8284 61.1355 39.9975 60.9058 40.4318 60.7617C40.5633 60.7179 40.7011 60.6866 40.8368 60.6657C43.1061 60.3421 45.3587 59.8703 47.6698 59.9121L47.6719 59.9162ZM44.8159 65.7848C45.6635 65.7952 46.342 65.4758 46.8786 64.8891C47.674 64.0165 48.3316 63.0394 48.912 62.0123C48.9621 61.9225 48.9976 61.8223 49.031 61.7242C49.1083 61.5029 48.9705 61.3192 48.7199 61.3066C48.651 61.3025 48.5801 61.2983 48.5133 61.3066C46.8974 61.4883 45.2648 61.4549 43.6552 61.7179C43.0414 61.8181 42.4213 61.8954 41.8159 62.0269C41.438 62.1083 41.3169 62.3651 41.438 62.7409C41.8055 63.8662 42.4798 64.7639 43.4715 65.4132C43.8869 65.6866 44.3525 65.8098 44.818 65.7869L44.8159 65.7848Z" fill="black"/>
<path fill-rule="evenodd" clip-rule="evenodd" d="M46.8786 64.8891C46.342 65.4758 45.6635 65.7952 44.8159 65.7848L44.818 65.7869C44.3525 65.8098 43.8869 65.6866 43.4715 65.4132C42.4798 64.7639 41.8055 63.8662 41.438 62.7409C41.3169 62.3651 41.438 62.1083 41.8159 62.0269C42.2413 61.9345 42.6739 61.8689 43.1064 61.8033C43.2895 61.7755 43.4726 61.7477 43.6552 61.7179C44.5881 61.5655 45.5287 61.5126 46.4693 61.4597C47.1516 61.4214 47.8339 61.383 48.5133 61.3066C48.5801 61.2983 48.651 61.3025 48.7199 61.3066C48.9705 61.3192 49.1083 61.5029 49.031 61.7242C48.9976 61.8223 48.9621 61.9225 48.912 62.0123C48.3316 63.0394 47.674 64.0165 46.8786 64.8891Z" fill="#EFEFEF"/>
</svg>
