<svg width="92" height="114" viewBox="0 0 92 114" fill="none" xmlns="http://www.w3.org/2000/svg">
<path d="M44.9283 57.7693C44.4625 57.7972 43.9911 57.6612 43.5793 57.3575C43.3017 57.1526 43.0091 56.901 43.1917 56.5116C43.378 56.1129 43.7507 56.1781 44.0805 56.3066C44.6488 56.5284 45.2003 56.6103 45.7891 56.3514C46.3835 56.0905 46.5325 55.7383 46.1226 55.2054C45.858 54.8626 45.5692 54.5384 45.3363 54.1751C45.15 53.8863 45.0121 53.536 45.3252 53.2416C45.6456 52.9379 45.9698 53.1484 46.2568 53.3254C47.0897 53.8415 47.7735 55.3676 47.5313 56.1259C47.2182 57.1078 46.1785 57.7768 44.9301 57.7693H44.9283Z" fill="black"/>
<path d="M54.7806 50.1423C54.7322 50.9192 54.531 51.6496 53.9012 52.2012C53.1782 52.8347 52.2336 52.7993 51.5665 52.1099C51.2796 51.8136 51.0876 51.4596 50.9796 51.0664C50.8063 50.4273 50.7988 49.7733 50.9609 49.1342C51.1231 48.4989 51.5441 48.0442 52.1236 47.7554C52.8615 47.3884 53.6944 47.6138 54.1881 48.2864C54.5198 48.7374 54.775 49.5292 54.7769 50.1423H54.7806Z" fill="black"/>
<path d="M39.9126 50.0696C39.84 50.7963 39.7058 51.5528 39.0965 52.1304C38.3904 52.7993 37.4736 52.8161 36.7544 52.1695C35.5787 51.1112 35.6141 49.0485 36.8271 48.0275C37.5482 47.4219 38.4146 47.4517 39.0909 48.0908C39.6443 48.6144 39.8605 49.274 39.9145 50.0677L39.9126 50.0696Z" fill="black"/>
<path d="M57.6817 40.5994C57.3668 40.6628 57.0575 40.6274 56.7649 40.5193C56.3308 40.3591 55.8985 40.1858 55.4849 39.9771C54.3222 39.3827 53.1297 38.8778 51.8347 38.6411C51.5329 38.5871 51.2404 38.4679 50.9534 38.3561C50.7205 38.2648 50.523 38.112 50.3758 37.9033C50.1112 37.5306 50.1485 37.1338 50.4746 36.8133C50.6553 36.6363 50.8677 36.5114 51.1043 36.4295C51.5478 36.2748 52.0043 36.1984 52.4757 36.1816C53.7576 36.2692 54.9669 36.627 56.1035 37.2288C56.6531 37.5195 57.1693 37.8604 57.6556 38.248C58.0003 38.5238 58.2779 38.8554 58.4344 39.2709C58.6692 39.8914 58.3338 40.4709 57.6817 40.5994Z" fill="black"/>
<path d="M34.5776 40.5994C34.8925 40.6628 35.2018 40.6274 35.4944 40.5193C35.9285 40.3591 36.3608 40.1858 36.7744 39.9771C37.9371 39.3827 39.1296 38.8778 40.4246 38.6411C40.7264 38.5871 41.0189 38.4679 41.3059 38.3561C41.5388 38.2648 41.7363 38.112 41.8835 37.9033C42.1481 37.5306 42.1108 37.1338 41.7847 36.8133C41.604 36.6363 41.3916 36.5114 41.155 36.4295C40.7115 36.2748 40.255 36.1984 39.7836 36.1816C38.5017 36.2692 37.2924 36.627 36.1558 37.2288C35.6062 37.5195 35.09 37.8604 34.6037 38.248C34.259 38.5238 33.9814 38.8554 33.8249 39.2709C33.5901 39.8914 33.9255 40.4709 34.5776 40.5994Z" fill="black"/>
<path d="M48.1719 60.5862C48.7627 60.5862 49.3536 60.5757 49.9444 60.5903C50.22 60.5987 50.5039 60.6216 50.7648 60.701C51.1991 60.8325 51.4266 61.1999 51.4204 61.6571C51.4162 61.9787 51.3118 62.2751 51.1678 62.5528C50.483 63.8847 49.7001 65.1561 48.7335 66.3065C48.5561 66.5194 48.3535 66.7136 48.1427 66.8931C46.6562 68.1624 44.888 68.3232 43.2178 67.2981C41.5038 66.2459 40.5998 64.6634 40.3222 62.6968C40.3034 62.559 40.2992 62.4192 40.3055 62.2814C40.3284 61.8054 40.4975 61.5757 40.9318 61.4317C41.0633 61.3878 41.2011 61.3565 41.3368 61.3356C43.6061 61.012 45.8587 60.5402 48.1698 60.582L48.1719 60.5862ZM45.3159 66.4547C46.1635 66.4651 46.842 66.1457 47.3786 65.5591C48.174 64.6864 48.8316 63.7094 49.412 62.6822C49.4621 62.5924 49.4976 62.4922 49.531 62.3941C49.6083 62.1728 49.4705 61.9891 49.2199 61.9766C49.151 61.9724 49.0801 61.9682 49.0133 61.9766C47.3974 62.1582 45.7648 62.1248 44.1552 62.3878C43.5414 62.488 42.9213 62.5653 42.3159 62.6968C41.938 62.7782 41.8169 63.035 41.938 63.4108C42.3055 64.5361 42.9798 65.4338 43.9715 66.0831C44.3869 66.3566 44.8525 66.4797 45.318 66.4568L45.3159 66.4547Z" fill="black"/>
<path fill-rule="evenodd" clip-rule="evenodd" d="M47.3786 65.5591C46.842 66.1457 46.1635 66.4651 45.3159 66.4547L45.318 66.4568C44.8525 66.4797 44.3869 66.3566 43.9715 66.0831C42.9798 65.4338 42.3055 64.5361 41.938 63.4108C41.8169 63.035 41.938 62.7782 42.3159 62.6968C42.7413 62.6044 43.1739 62.5388 43.6064 62.4732C43.7895 62.4454 43.9726 62.4176 44.1552 62.3878C45.0881 62.2354 46.0287 62.1825 46.9693 62.1296C47.6516 62.0913 48.3339 62.0529 49.0133 61.9766C49.0801 61.9682 49.151 61.9724 49.2199 61.9766C49.4705 61.9891 49.6083 62.1728 49.531 62.3941C49.4976 62.4922 49.4621 62.5924 49.412 62.6822C48.8316 63.7094 48.174 64.6864 47.3786 65.5591Z" fill="#EFEFEF"/>
</svg>
