<svg width="92" height="114" viewBox="0 0 92 114" fill="none" xmlns="http://www.w3.org/2000/svg">
<path d="M44.6783 57.7693C44.2125 57.7972 43.7411 57.6612 43.3293 57.3575C43.0517 57.1526 42.7591 56.901 42.9417 56.5116C43.128 56.1129 43.5007 56.1781 43.8305 56.3066C44.3988 56.5284 44.9503 56.6103 45.5391 56.3514C46.1335 56.0905 46.2825 55.7383 45.8726 55.2054C45.608 54.8626 45.3192 54.5384 45.0863 54.1751C44.9 53.8863 44.7621 53.536 45.0752 53.2416C45.3956 52.9379 45.7198 53.1484 46.0068 53.3254C46.8397 53.8415 47.5235 55.3676 47.2813 56.1259C46.9682 57.1078 45.9285 57.7768 44.6801 57.7693H44.6783Z" fill="black"/>
<path d="M54.5306 50.1423C54.4822 50.9192 54.281 51.6496 53.6512 52.2012C52.9282 52.8347 51.9836 52.7993 51.3165 52.1099C51.0296 51.8136 50.8376 51.4596 50.7296 51.0664C50.5563 50.4273 50.5488 49.7733 50.7109 49.1342C50.8731 48.4989 51.2941 48.0442 51.8736 47.7554C52.6115 47.3884 53.4444 47.6138 53.9381 48.2864C54.2698 48.7374 54.525 49.5292 54.5269 50.1423H54.5306Z" fill="black"/>
<path d="M39.6626 50.0696C39.59 50.7963 39.4558 51.5528 38.8465 52.1304C38.1404 52.7993 37.2236 52.8161 36.5044 52.1695C35.3287 51.1112 35.3641 49.0485 36.5771 48.0275C37.2982 47.4219 38.1646 47.4517 38.8409 48.0908C39.3943 48.6144 39.6105 49.274 39.6645 50.0677L39.6626 50.0696Z" fill="black"/>
<path d="M57.4317 40.5994C57.1168 40.6628 56.8075 40.6274 56.5149 40.5193C56.0808 40.3591 55.6485 40.1858 55.2349 39.9771C54.0722 39.3827 52.8797 38.8778 51.5847 38.6411C51.2829 38.5871 50.9904 38.4679 50.7034 38.3561C50.4705 38.2648 50.273 38.112 50.1258 37.9033C49.8612 37.5306 49.8985 37.1338 50.2246 36.8133C50.4053 36.6363 50.6177 36.5114 50.8543 36.4295C51.2978 36.2748 51.7543 36.1984 52.2257 36.1816C53.5076 36.2692 54.7169 36.627 55.8535 37.2288C56.4031 37.5195 56.9193 37.8604 57.4056 38.248C57.7503 38.5238 58.0279 38.8554 58.1844 39.2709C58.4192 39.8914 58.0838 40.4709 57.4317 40.5994Z" fill="black"/>
<path d="M34.3276 40.5994C34.6425 40.6628 34.9518 40.6274 35.2444 40.5193C35.6785 40.3591 36.1108 40.1858 36.5244 39.9771C37.6871 39.3827 38.8796 38.8778 40.1746 38.6411C40.4764 38.5871 40.7689 38.4679 41.0559 38.3561C41.2888 38.2648 41.4863 38.112 41.6335 37.9033C41.8981 37.5306 41.8608 37.1338 41.5347 36.8133C41.354 36.6363 41.1416 36.5114 40.905 36.4295C40.4615 36.2748 40.005 36.1984 39.5336 36.1816C38.2517 36.2692 37.0424 36.627 35.9058 37.2288C35.3562 37.5195 34.84 37.8604 34.3537 38.248C34.009 38.5238 33.7314 38.8554 33.5749 39.2709C33.3401 39.8914 33.6755 40.4709 34.3276 40.5994Z" fill="black"/>
<path d="M47.9219 60.5862C48.5127 60.5862 49.1036 60.5757 49.6944 60.5903C49.97 60.5987 50.2539 60.6216 50.5148 60.701C50.9491 60.8325 51.1766 61.1999 51.1704 61.6571C51.1662 61.9787 51.0618 62.2751 50.9178 62.5528C50.233 63.8847 49.4501 65.1561 48.4835 66.3065C48.3061 66.5194 48.1035 66.7136 47.8927 66.8931C46.4062 68.1624 44.638 68.3232 42.9678 67.2981C41.2538 66.2459 40.3498 64.6634 40.0722 62.6968C40.0534 62.559 40.0492 62.4192 40.0555 62.2814C40.0784 61.8054 40.2475 61.5757 40.6818 61.4317C40.8133 61.3878 40.9511 61.3565 41.0868 61.3356C43.3561 61.012 45.6087 60.5402 47.9198 60.582L47.9219 60.5862ZM45.0659 66.4547C45.9135 66.4651 46.592 66.1457 47.1286 65.5591C47.924 64.6864 48.5816 63.7094 49.162 62.6822C49.2121 62.5924 49.2476 62.4922 49.281 62.3941C49.3583 62.1728 49.2205 61.9891 48.9699 61.9766C48.901 61.9724 48.8301 61.9682 48.7633 61.9766C47.1474 62.1582 45.5148 62.1248 43.9052 62.3878C43.2914 62.488 42.6713 62.5653 42.0659 62.6968C41.688 62.7782 41.5669 63.035 41.688 63.4108C42.0555 64.5361 42.7298 65.4338 43.7215 66.0831C44.1369 66.3566 44.6025 66.4797 45.068 66.4568L45.0659 66.4547Z" fill="black"/>
<path fill-rule="evenodd" clip-rule="evenodd" d="M47.1286 65.5591C46.592 66.1457 45.9135 66.4651 45.0659 66.4547L45.068 66.4568C44.6025 66.4797 44.1369 66.3566 43.7215 66.0831C42.7298 65.4338 42.0555 64.5361 41.688 63.4108C41.5669 63.035 41.688 62.7782 42.0659 62.6968C42.4913 62.6044 42.9239 62.5388 43.3564 62.4732C43.5395 62.4454 43.7226 62.4176 43.9052 62.3878C44.8381 62.2354 45.7787 62.1825 46.7193 62.1296C47.4016 62.0913 48.0839 62.0529 48.7633 61.9766C48.8301 61.9682 48.901 61.9724 48.9699 61.9766C49.2205 61.9891 49.3583 62.1728 49.281 62.3941C49.2476 62.4922 49.2121 62.5924 49.162 62.6822C48.5816 63.7094 47.924 64.6864 47.1286 65.5591Z" fill="#EFEFEF"/>
</svg>
