<svg width="91" height="114" viewBox="0 0 91 114" fill="none" xmlns="http://www.w3.org/2000/svg">
<path d="M44.4283 57.7693C43.9625 57.7972 43.4911 57.6612 43.0793 57.3575C42.8017 57.1526 42.5091 56.901 42.6917 56.5116C42.878 56.1129 43.2507 56.1781 43.5805 56.3066C44.1488 56.5284 44.7003 56.6103 45.2891 56.3514C45.8835 56.0905 46.0325 55.7383 45.6226 55.2054C45.358 54.8626 45.0692 54.5384 44.8363 54.1751C44.65 53.8863 44.5121 53.536 44.8252 53.2416C45.1456 52.9379 45.4698 53.1484 45.7568 53.3254C46.5897 53.8415 47.2735 55.3676 47.0313 56.1259C46.7182 57.1078 45.6785 57.7768 44.4301 57.7693H44.4283Z" fill="black"/>
<path d="M54.2806 50.1423C54.2322 50.9192 54.031 51.6496 53.4012 52.2012C52.6782 52.8347 51.7336 52.7993 51.0665 52.1099C50.7796 51.8136 50.5876 51.4596 50.4796 51.0664C50.3063 50.4273 50.2988 49.7733 50.4609 49.1342C50.6231 48.4989 51.0441 48.0442 51.6236 47.7554C52.3615 47.3884 53.1944 47.6138 53.6881 48.2864C54.0198 48.7374 54.275 49.5292 54.2769 50.1423H54.2806Z" fill="black"/>
<path d="M39.4126 50.0696C39.34 50.7963 39.2058 51.5528 38.5965 52.1304C37.8904 52.7993 36.9736 52.8161 36.2544 52.1695C35.0787 51.1112 35.1141 49.0485 36.3271 48.0275C37.0482 47.4219 37.9146 47.4517 38.5909 48.0908C39.1443 48.6144 39.3605 49.274 39.4145 50.0677L39.4126 50.0696Z" fill="black"/>
<path d="M57.1817 40.5994C56.8668 40.6628 56.5575 40.6274 56.2649 40.5193C55.8308 40.3591 55.3985 40.1858 54.9849 39.9771C53.8222 39.3827 52.6297 38.8778 51.3347 38.6411C51.0329 38.5871 50.7404 38.4679 50.4534 38.3561C50.2205 38.2648 50.023 38.112 49.8758 37.9033C49.6112 37.5306 49.6485 37.1338 49.9746 36.8133C50.1553 36.6363 50.3677 36.5114 50.6043 36.4295C51.0478 36.2748 51.5043 36.1984 51.9757 36.1816C53.2576 36.2692 54.4669 36.627 55.6035 37.2288C56.1531 37.5195 56.6693 37.8604 57.1556 38.248C57.5003 38.5238 57.7779 38.8554 57.9344 39.2709C58.1692 39.8914 57.8338 40.4709 57.1817 40.5994Z" fill="black"/>
<path d="M34.0776 40.5994C34.3925 40.6628 34.7018 40.6274 34.9944 40.5193C35.4285 40.3591 35.8608 40.1858 36.2744 39.9771C37.4371 39.3827 38.6296 38.8778 39.9246 38.6411C40.2264 38.5871 40.5189 38.4679 40.8059 38.3561C41.0388 38.2648 41.2363 38.112 41.3835 37.9033C41.6481 37.5306 41.6108 37.1338 41.2847 36.8133C41.104 36.6363 40.8916 36.5114 40.655 36.4295C40.2115 36.2748 39.755 36.1984 39.2836 36.1816C38.0017 36.2692 36.7924 36.627 35.6558 37.2288C35.1062 37.5195 34.59 37.8604 34.1037 38.248C33.759 38.5238 33.4814 38.8554 33.3249 39.2709C33.0901 39.8914 33.4255 40.4709 34.0776 40.5994Z" fill="black"/>
<path d="M47.6719 60.5862C48.2627 60.5862 48.8536 60.5757 49.4444 60.5903C49.72 60.5987 50.0039 60.6216 50.2648 60.701C50.6991 60.8325 50.9266 61.1999 50.9204 61.6571C50.9162 61.9787 50.8118 62.2751 50.6678 62.5528C49.983 63.8847 49.2001 65.1561 48.2335 66.3065C48.0561 66.5194 47.8535 66.7136 47.6427 66.8931C46.1562 68.1624 44.388 68.3232 42.7178 67.2981C41.0038 66.2459 40.0998 64.6634 39.8222 62.6968C39.8034 62.559 39.7992 62.4192 39.8055 62.2814C39.8284 61.8054 39.9975 61.5757 40.4318 61.4317C40.5633 61.3878 40.7011 61.3565 40.8368 61.3356C43.1061 61.012 45.3587 60.5402 47.6698 60.582L47.6719 60.5862ZM44.8159 66.4547C45.6635 66.4651 46.342 66.1457 46.8786 65.5591C47.674 64.6864 48.3316 63.7094 48.912 62.6822C48.9621 62.5924 48.9976 62.4922 49.031 62.3941C49.1083 62.1728 48.9705 61.9891 48.7199 61.9766C48.651 61.9724 48.5801 61.9682 48.5133 61.9766C46.8974 62.1582 45.2648 62.1248 43.6552 62.3878C43.0414 62.488 42.4213 62.5653 41.8159 62.6968C41.438 62.7782 41.3169 63.035 41.438 63.4108C41.8055 64.5361 42.4798 65.4338 43.4715 66.0831C43.8869 66.3566 44.3525 66.4797 44.818 66.4568L44.8159 66.4547Z" fill="black"/>
<path fill-rule="evenodd" clip-rule="evenodd" d="M46.8786 65.5591C46.342 66.1457 45.6635 66.4651 44.8159 66.4547L44.818 66.4568C44.3525 66.4797 43.8869 66.3566 43.4715 66.0831C42.4798 65.4338 41.8055 64.5361 41.438 63.4108C41.3169 63.035 41.438 62.7782 41.8159 62.6968C42.2413 62.6044 42.6739 62.5388 43.1064 62.4732C43.2895 62.4454 43.4726 62.4176 43.6552 62.3878C44.5881 62.2354 45.5287 62.1825 46.4693 62.1296C47.1516 62.0913 47.8339 62.0529 48.5133 61.9766C48.5801 61.9682 48.651 61.9724 48.7199 61.9766C48.9705 61.9891 49.1083 62.1728 49.031 62.3941C48.9976 62.4922 48.9621 62.5924 48.912 62.6822C48.3316 63.7094 47.674 64.6864 46.8786 65.5591Z" fill="#EFEFEF"/>
</svg>
