<svg width="92" height="113" viewBox="0 0 92 113" fill="none" xmlns="http://www.w3.org/2000/svg">
<path d="M44.9283 57.0994C44.4625 57.1273 43.9911 56.9913 43.5793 56.6876C43.3017 56.4826 43.0091 56.2311 43.1917 55.8417C43.378 55.4429 43.7507 55.5082 44.0805 55.6367C44.6488 55.8584 45.2003 55.9404 45.7891 55.6814C46.3835 55.4206 46.5325 55.0684 46.1226 54.5355C45.858 54.1927 45.5692 53.8685 45.3363 53.5051C45.15 53.2163 45.0121 52.866 45.3252 52.5716C45.6456 52.2679 45.9698 52.4785 46.2568 52.6555C47.0897 53.1716 47.7735 54.6976 47.5313 55.456C47.2182 56.4379 46.1785 57.1068 44.9301 57.0994H44.9283Z" fill="black"/>
<path d="M54.7806 49.4723C54.7322 50.2493 54.531 50.9797 53.9012 51.5312C53.1782 52.1647 52.2336 52.1293 51.5665 51.4399C51.2796 51.1437 51.0876 50.7897 50.9796 50.3965C50.8063 49.7574 50.7988 49.1034 50.9609 48.4643C51.1231 47.8289 51.5441 47.3743 52.1236 47.0855C52.8615 46.7184 53.6944 46.9439 54.1881 47.6165C54.5198 48.0674 54.775 48.8593 54.7769 49.4723H54.7806Z" fill="black"/>
<path d="M39.9126 49.3997C39.84 50.1264 39.7058 50.8828 39.0965 51.4605C38.3904 52.1294 37.4736 52.1461 36.7544 51.4996C35.5787 50.4413 35.6141 48.3786 36.8271 47.3576C37.5482 46.752 38.4146 46.7818 39.0909 47.4209C39.6443 47.9445 39.8605 48.6041 39.9145 49.3978L39.9126 49.3997Z" fill="black"/>
<path d="M57.6817 39.9295C57.3668 39.9929 57.0575 39.9575 56.7649 39.8494C56.3308 39.6892 55.8985 39.5159 55.4849 39.3072C54.3222 38.7128 53.1297 38.2079 51.8347 37.9712C51.5329 37.9172 51.2404 37.7979 50.9534 37.6861C50.7205 37.5948 50.523 37.4421 50.3758 37.2334C50.1112 36.8607 50.1485 36.4638 50.4746 36.1434C50.6553 35.9664 50.8677 35.8415 51.1043 35.7595C51.5478 35.6049 52.0043 35.5285 52.4757 35.5117C53.7576 35.5993 54.9669 35.957 56.1035 36.5589C56.6531 36.8495 57.1693 37.1905 57.6556 37.5781C58.0003 37.8538 58.2779 38.1855 58.4344 38.601C58.6692 39.2215 58.3338 39.801 57.6817 39.9295Z" fill="black"/>
<path d="M34.5776 39.9295C34.8925 39.9929 35.2018 39.9575 35.4944 39.8494C35.9285 39.6892 36.3608 39.5159 36.7744 39.3072C37.9371 38.7128 39.1296 38.2079 40.4246 37.9712C40.7264 37.9172 41.0189 37.7979 41.3059 37.6861C41.5388 37.5948 41.7363 37.4421 41.8835 37.2334C42.1481 36.8607 42.1108 36.4638 41.7847 36.1434C41.604 35.9664 41.3916 35.8415 41.155 35.7595C40.7115 35.6049 40.255 35.5285 39.7836 35.5117C38.5017 35.5993 37.2924 35.957 36.1558 36.5589C35.6062 36.8495 35.09 37.1905 34.6037 37.5781C34.259 37.8538 33.9814 38.1855 33.8249 38.601C33.5901 39.2215 33.9255 39.801 34.5776 39.9295Z" fill="black"/>
<path d="M48.1719 59.9162C48.7627 59.9162 49.3536 59.9058 49.9444 59.9204C50.22 59.9288 50.5039 59.9517 50.7648 60.0311C51.1991 60.1626 51.4266 60.53 51.4204 60.9872C51.4162 61.3087 51.3118 61.6052 51.1678 61.8828C50.483 63.2148 49.7001 64.4862 48.7335 65.6365C48.5561 65.8495 48.3535 66.0436 48.1427 66.2232C46.6562 67.4925 44.888 67.6533 43.2178 66.6282C41.5038 65.576 40.5998 63.9935 40.3222 62.0269C40.3034 61.8891 40.2992 61.7492 40.3055 61.6114C40.3284 61.1355 40.4975 60.9058 40.9318 60.7617C41.0633 60.7179 41.2011 60.6866 41.3368 60.6657C43.6061 60.3421 45.8587 59.8703 48.1698 59.9121L48.1719 59.9162ZM45.3159 65.7848C46.1635 65.7952 46.842 65.4758 47.3786 64.8891C48.174 64.0165 48.8316 63.0394 49.412 62.0123C49.4621 61.9225 49.4976 61.8223 49.531 61.7242C49.6083 61.5029 49.4705 61.3192 49.2199 61.3066C49.151 61.3025 49.0801 61.2983 49.0133 61.3066C47.3974 61.4883 45.7648 61.4549 44.1552 61.7179C43.5414 61.8181 42.9213 61.8954 42.3159 62.0269C41.938 62.1083 41.8169 62.3651 41.938 62.7409C42.3055 63.8662 42.9798 64.7639 43.9715 65.4132C44.3869 65.6866 44.8525 65.8098 45.318 65.7869L45.3159 65.7848Z" fill="black"/>
<path fill-rule="evenodd" clip-rule="evenodd" d="M47.3786 64.8891C46.842 65.4758 46.1635 65.7952 45.3159 65.7848L45.318 65.7869C44.8525 65.8098 44.3869 65.6866 43.9715 65.4132C42.9798 64.7639 42.3055 63.8662 41.938 62.7409C41.8169 62.3651 41.938 62.1083 42.3159 62.0269C42.7413 61.9345 43.1739 61.8689 43.6064 61.8033C43.7895 61.7755 43.9726 61.7477 44.1552 61.7179C45.0881 61.5655 46.0287 61.5126 46.9693 61.4597C47.6516 61.4214 48.3339 61.383 49.0133 61.3066C49.0801 61.2983 49.151 61.3025 49.2199 61.3066C49.4705 61.3192 49.6083 61.5029 49.531 61.7242C49.4976 61.8223 49.4621 61.9225 49.412 62.0123C48.8316 63.0394 48.174 64.0165 47.3786 64.8891Z" fill="#EFEFEF"/>
</svg>
