<svg width="91" height="113" viewBox="0 0 91 113" fill="none" xmlns="http://www.w3.org/2000/svg">
<g clip-path="url(#clip0_4520_16266)">
<path d="M74.1235 48.1683C73.739 45.3308 71.6705 43.106 69.1023 43.0937C67.883 43.0896 67.7391 42.6454 67.8563 41.6667C68.3271 37.7949 68.3785 33.9046 68.3066 30.5591C68.3066 27.919 68.321 25.8279 68.3045 23.7367C68.2572 18.7772 65.9378 15.6436 61.2209 14.0459C56.979 12.6127 52.5891 12.0925 48.1518 11.8951C44.2574 11.7224 40.365 11.9712 36.4973 12.3619C32.9401 12.7217 29.4426 13.4599 26.2575 15.2303C23.971 16.501 22.5502 18.3516 22.3014 21.041C22.2089 22.0486 22.1328 23.0479 22.1349 24.0595C22.1513 30.041 22.0218 36.0245 22.3467 42.0018C22.3898 42.8325 22.1657 43.18 21.261 43.3178C18.6476 43.7187 16.505 45.7523 16.3282 48.082C16.1616 50.2307 16.1411 52.3979 16.7271 54.524C17.8601 58.6364 20.7449 61.476 24.4584 61.8749C25.4638 61.9839 25.8977 62.3314 26.1506 63.271C27.2424 67.3505 29.239 70.7967 33.1622 72.8076C33.1622 72.8076 33.1643 72.8076 33.1663 72.8097C33.1704 72.8117 33.1787 72.8179 33.191 72.8241C33.2239 72.8488 33.2856 72.8899 33.3822 72.9475C35.0498 74.0043 46.0195 80.3641 57.2134 72.8117V72.8076C57.6041 72.2216 58.1182 71.6767 58.7473 71.136C61.1613 69.0551 63.1311 66.5136 64.1017 63.4088C64.4841 62.1792 65.1277 61.7453 66.3162 61.7104C67.5478 61.6754 68.6171 61.1367 69.5362 60.3348C73.2496 57.1066 74.7877 53.0497 74.1256 48.1642L74.1235 48.1683ZM24.3946 60.1004C22.6304 59.9441 21.187 59.0579 20.2432 57.6597C18.259 54.7296 17.64 51.4562 18.4235 47.9771C18.7792 46.4021 20.1568 45.2629 21.5304 45.2897C22.7908 45.3143 24.1376 46.5542 24.4625 48.0676C24.6187 48.7955 24.7154 49.546 24.483 50.3294C23.237 49.4925 22.0485 48.6947 20.8559 47.899C20.4529 47.6296 19.9697 47.3644 19.5893 47.79C19.1637 48.2691 19.6202 48.7029 19.943 48.9826C20.7305 49.6611 21.5591 50.3006 22.4248 50.8722C22.9512 51.2218 22.9142 51.4665 22.5317 51.8674C21.8593 52.5686 21.1972 53.2841 20.8045 54.193C20.6277 54.6042 20.4652 55.0525 20.9649 55.3321C21.3885 55.5686 21.8059 55.437 22.1266 55.0648C22.6181 54.4911 23.1136 53.9216 23.5927 53.3376C24.08 52.7392 24.5529 52.8482 24.6126 53.5391C24.7894 55.5459 25.0876 57.5343 25.324 59.5308C25.4022 60.1806 24.8182 60.1354 24.3967 60.0963L24.3946 60.1004ZM63.8138 54.4418C63.4869 56.6851 63.2463 58.951 62.7569 61.1593C61.7658 65.6192 59.0023 68.9831 55.3423 71.4362C54.5137 71.9934 53.611 72.4478 52.6651 72.8097C51.0552 73.4265 49.3197 73.7761 47.5761 73.9036C44.0579 74.1606 40.6179 73.9755 37.3342 72.8097C36.4028 72.4786 35.4816 72.0695 34.5769 71.5698C31.6468 69.9454 29.6523 67.6219 28.5461 64.5109C26.5927 59.0127 26.2904 53.3232 26.6482 47.5597C26.7962 45.1889 26.7099 42.8079 26.934 40.435C27.2733 36.8799 27.8182 33.3617 28.5234 29.8642C28.6838 29.0766 29.1259 28.688 29.9237 28.6366C34.7352 28.3241 39.5199 27.553 43.914 27.7319C49.7454 27.627 55.0791 28.2213 60.4108 28.8361C61.2806 28.9348 61.5211 29.4221 61.6898 30.1602C62.3683 33.117 62.6335 36.1314 63.0181 39.1293C63.2792 41.1608 63.7501 43.1656 64.077 45.193C64.5746 48.2897 64.2579 51.3719 63.8097 54.4438L63.8138 54.4418ZM72.5094 49.9511C72.5197 53.4898 71.0927 56.5309 68.5142 59.0785C67.7349 59.8516 66.7439 59.9811 65.7384 60.0922C65.2079 60.1497 65.0126 59.8125 65.0701 59.354C65.3374 57.1786 65.3498 54.9723 65.9193 52.8359C66.09 52.1902 66.3162 52.0257 66.8097 52.5809C67.0729 52.8749 67.3751 53.1361 67.665 53.4054C68.0866 53.8023 68.2696 54.2012 67.7822 54.6926C67.5355 54.9414 67.2065 55.254 67.6034 55.6015C67.9426 55.8975 68.286 55.6385 68.58 55.4328C69.9741 54.4582 70.0605 52.9058 68.7877 51.7708C68.1338 51.1882 68.1551 50.6214 68.8515 50.0703C69.3881 49.6488 69.9515 49.2519 70.4532 48.7914C70.8439 48.4315 71.103 47.9401 70.6486 47.4672C70.2085 47.0107 69.6431 47.0189 69.199 47.4569C68.4567 48.1868 67.774 48.9785 67.0502 49.731C66.859 49.9325 66.6472 50.2307 66.3347 50.1258C65.9831 50.0045 66.1291 49.6323 66.1147 49.363C66.053 48.3719 66.2422 47.4363 66.7562 46.5645C67.9097 44.6009 70.482 44.5618 71.6684 46.5357C72.2688 47.535 72.6266 48.631 72.5135 49.9511H72.5094Z" fill="black"/>
<path fill-rule="evenodd" clip-rule="evenodd" d="M63.5718 56.1841C63.6506 55.6028 63.7293 55.0215 63.8138 54.4418L63.8097 54.4438C64.2579 51.3719 64.5746 48.2897 64.077 45.193C63.9435 44.3652 63.786 43.5412 63.6286 42.7175C63.4005 41.524 63.1726 40.3314 63.0181 39.1293C62.932 38.4581 62.8518 37.786 62.7717 37.1139C62.494 34.7844 62.2164 32.455 61.6898 30.1602C61.5211 29.4221 61.2806 28.9348 60.4108 28.8361C55.0791 28.2213 49.7454 27.627 43.914 27.7319C40.9956 27.6131 37.9048 27.9133 34.7483 28.2199C33.1523 28.375 31.5395 28.5317 29.9237 28.6366C29.1259 28.688 28.6838 29.0766 28.5234 29.8642C27.8182 33.3617 27.2733 36.8799 26.934 40.435C26.8063 41.7869 26.7794 43.1414 26.7525 44.4952C26.7322 45.5176 26.7119 46.5396 26.6482 47.5597C26.2904 53.3232 26.5927 59.0127 28.5461 64.5109C29.6523 67.6219 31.6468 69.9454 34.5769 71.5698C35.4816 72.0695 36.4028 72.4786 37.3342 72.8097C40.6179 73.9755 44.0579 74.1606 47.5761 73.9036C49.3197 73.7761 51.0552 73.4265 52.6651 72.8097C53.611 72.4478 54.5137 71.9934 55.3423 71.4362C59.0023 68.9831 61.7658 65.6192 62.7569 61.1593C63.1198 59.5217 63.3459 57.8524 63.5718 56.1841Z" fill="white"/>
</g>
<defs>
<clipPath id="clip0_4520_16266">
<rect width="58.0462" height="64.6198" fill="white" transform="translate(16.2266 11.8398)"/>
</clipPath>
</defs>
</svg>
