<svg width="91" height="113" viewBox="0 0 91 113" fill="none" xmlns="http://www.w3.org/2000/svg">
<path d="M73.3448 47.6734C73.17 46.393 72.5745 45.265 71.5583 44.5008C70.5767 43.7671 70.2352 43.1045 70.3958 41.7651C70.6458 39.6758 70.6458 37.5174 70.3368 35.3955C70.3003 35.1476 70.2495 34.8752 70.4161 34.674C71.347 33.5562 71.3063 32.1477 71.477 30.8389C71.8205 28.2252 70.7068 26.3086 68.3105 25.1826C67.8512 24.9652 67.7801 24.7071 67.8532 24.266C68.0097 23.3433 67.9691 22.4368 67.589 21.5507C66.3188 18.5773 64.012 16.9635 60.88 16.4636C60 16.3233 59.3537 16.0185 58.7846 15.2502C56.0164 11.5207 51.4841 10.4354 47.1551 12.3987C46.7547 12.5776 46.4783 12.4922 46.1755 12.2849C44.0577 10.8236 41.7346 10.3561 39.1921 10.7057C36.4219 11.0898 33.5541 11.6345 32.0766 14.1649C31.0055 15.9981 29.6234 16.4493 27.8512 16.6729C27.5727 16.7075 27.2963 16.7908 27.024 16.8639C23.7782 17.7501 21.5811 20.569 21.6299 23.9225C21.6441 24.8798 21.3129 25.457 20.571 26.0505C17.437 28.5666 16.1017 31.8266 18.689 35.739C18.9309 36.1049 19.126 36.489 19.0264 36.9341C18.6281 38.7694 19.0406 40.5335 19.5162 42.2834C19.6646 42.8362 19.626 43.1817 19.1036 43.5273C18.1545 44.1553 17.5793 45.1044 17.2257 46.1735C16.4981 48.3664 16.2989 50.598 16.742 52.8886C17.5671 57.1607 20.7783 60.4451 25.0627 61.254C25.6988 61.3739 25.8696 61.7255 25.9834 62.2296C26.8106 65.9083 28.8857 68.8431 31.9343 70.8917C31.9343 70.8938 31.9404 70.8978 31.9465 70.9019C32.2778 71.1234 32.5643 71.3531 32.8143 71.595C33.735 72.4953 35.1028 73.1782 36.2247 73.7839C41.9175 76.8671 48.8237 76.928 54.5206 73.7595C59.0447 71.2434 62.4145 67.1785 64.1725 62.3271C64.4611 61.5345 64.9306 61.2134 65.705 61.1158C67.274 60.9187 68.7007 60.2724 69.7495 59.1383C72.7371 55.9088 73.9383 52.0553 73.3448 47.6734ZM24.4448 59.4817C20.254 57.9473 17.6728 53.5694 18.3699 49.1164C18.5142 48.2059 18.628 47.2832 18.9979 46.4275C19.8739 44.387 22.5364 43.9744 24.0221 45.6308C24.5444 46.2161 24.3473 46.9072 24.3798 47.5616C24.4082 48.09 24.3859 48.6185 24.3859 49.4416C23.4164 48.3238 22.577 47.5271 21.3535 47.2872C20.943 47.2059 20.5649 47.1389 20.3211 47.5596C20.0325 48.0575 20.0772 48.59 20.3068 49.0941C20.5324 49.594 20.882 49.2912 21.2113 49.2119C21.9145 49.0432 22.2254 49.6286 22.5811 50.031C22.9347 50.4294 22.449 50.6489 22.2519 50.9009C21.6381 51.6732 21.26 52.541 21.2092 53.5288C21.1787 54.0796 21.3901 54.5674 22.0202 54.5491C22.6197 54.5348 22.7904 54.2096 22.7112 53.539C22.5831 52.4496 23.5709 51.9598 24.3208 51.0066C24.5708 53.1121 24.7863 54.923 25.0037 56.7359C25.0891 57.4392 25.1338 58.1505 25.2802 58.8415C25.461 59.7134 25.1277 59.7317 24.4448 59.4817ZM61.2824 51.8419C60.3109 53.4739 58.9045 53.9698 56.4758 53.9759C53.4434 53.9556 51.1386 52.7727 49.6041 50.0249C47.8827 46.9356 50.3013 40.6839 55.2969 40.4156C58.9045 40.2205 61.4877 41.7733 62.4938 45.2345C63.1563 47.5189 62.4815 49.8237 61.2824 51.8419ZM28.2048 40.7327C29.1539 39.1027 29.0035 37.3081 28.9324 35.548C28.8979 34.7066 29.2556 34.4159 29.9893 34.294C31.1254 34.1009 32.1701 33.6538 33.1233 33.0176C34.1252 32.349 34.6598 31.3632 34.8224 30.1865C34.9057 29.5869 35.1354 29.408 35.7878 29.408C38.7571 29.4141 41.5659 28.7597 44.0272 27.0159C44.6227 26.5952 45.1267 26.0444 45.6714 25.5525C46.1043 26.1074 46.4884 26.711 46.9782 27.2069C48.405 28.6642 50.2525 28.5869 52.0654 28.4142C52.8967 28.3349 53.7929 27.6663 54.4982 27.8553C55.2197 28.0524 55.1323 29.2963 55.7034 29.9385C56.8152 31.1884 57.8741 32.4811 59.5691 32.9912C59.7967 33.0583 60.1158 33.1802 60.187 33.3591C60.8678 35.0195 62.0771 36.5032 61.63 38.5255C61.2662 40.1738 61.3983 40.1331 59.8638 39.5153C54.986 37.5458 50.4313 38.7226 47.9965 43.9581C47.7018 44.5861 47.4213 44.7061 46.7913 44.5313C45.7873 44.2488 44.7568 44.2549 43.7488 44.5516C43.3667 44.6674 43.1228 44.7061 42.9358 44.2223C40.7469 38.4848 33.8204 36.7044 28.8023 40.9583C28.6235 41.1107 28.5036 41.3729 28.2048 41.3424C28.0483 41.1331 28.1072 40.9034 28.2048 40.7327ZM34.7268 40.4116C38.7246 40.4238 41.6269 43.3992 41.631 47.4884C41.631 51.3378 38.4624 54.1446 34.1618 54.0938C30.4323 54.0511 28.093 51.2322 28.0971 46.7893C28.0991 43.3301 31.1478 40.3994 34.7268 40.4116ZM61.7011 63.5933C59.9207 67.459 57.0245 70.2922 53.3174 72.036C53.0715 72.1498 52.8276 72.2616 52.5796 72.3632C46.8157 74.8468 41.0192 74.609 35.5093 71.1438C35.4605 71.1153 35.4097 71.0828 35.3589 71.0503C32.6822 69.339 30.1701 67.4326 28.6885 64.4896C27.5991 62.3251 27.2557 59.9716 26.9264 57.616C26.3939 53.8215 26.0138 50.0188 26.2516 46.1755C26.2069 47.9295 26.5362 49.6204 27.1662 51.2464C28.3633 54.3235 30.3876 55.7218 33.6842 55.7441C34.7797 55.7502 35.8833 55.862 36.9727 55.612C39.0417 55.1344 40.633 53.9617 41.8606 52.2545C42.0639 51.974 42.3057 51.7179 42.5313 51.4517C43.0354 50.0452 43.5414 48.6449 43.4459 47.1145C43.4317 46.8665 43.4703 46.6287 43.702 46.4519C44.2406 46.0434 46.4437 46.0759 47.0128 46.4905C47.2953 46.6978 47.2628 46.9559 47.2669 47.2446C47.3156 51.9394 50.9679 55.5775 55.7542 55.7563C58.2135 55.8478 60.4979 55.5023 62.2966 53.604C63.5364 52.2992 63.9429 50.6732 64.1949 48.964C64.1055 53.9678 63.8514 58.9188 61.7011 63.5933ZM69.3166 57.0185C68.4386 58.2582 67.2415 59.0123 65.7416 59.3171C65.1156 59.4431 64.9875 59.3151 65.14 58.7013C65.6318 56.6994 65.7741 54.6446 66.0098 52.604C66.0403 52.35 65.8859 51.9577 66.274 51.8988C66.5748 51.8541 66.7456 52.1752 66.9163 52.3967C67.1439 52.6955 67.2415 53.0187 67.0464 53.3845C66.7557 53.9271 66.8512 54.3946 67.463 54.5674C68.1215 54.7503 68.4731 54.3072 68.5849 53.732C68.7881 52.7199 68.6174 51.7707 67.963 50.9293C67.7496 50.6549 67.2171 50.4537 67.5931 49.9761C67.8675 49.6306 68.2739 49.405 68.719 49.5513C69.1641 49.6936 69.5727 49.8298 69.784 49.2851C69.9568 48.8339 70.223 48.3339 69.8409 47.8746C69.4995 47.4681 68.9934 47.4966 68.5564 47.6571C67.8918 47.9031 67.2618 48.2303 66.6195 48.527C66.3309 48.6591 66.1094 48.7404 65.9915 48.3014C65.6277 46.9336 66.0708 45.9377 67.3919 45.2467C68.6438 44.5943 69.721 44.8077 70.6051 45.9052C71.2657 46.7263 71.6945 47.6449 71.6864 48.7262C71.6864 49.1164 71.6864 49.5066 71.6864 49.8969C71.8022 52.5654 70.8267 54.8885 69.3166 57.0185Z" fill="black"/>
<path d="M64.1949 48.964C64.1055 53.9678 63.8514 58.9188 61.7011 63.5933C59.9207 67.459 57.0245 70.2922 53.3174 72.036C53.0715 72.1498 52.8276 72.2616 52.5796 72.3632C46.8157 74.8468 41.0192 74.609 35.5093 71.1438C35.4605 71.1153 35.4097 71.0828 35.3589 71.0503C32.6822 69.339 30.1701 67.4326 28.6885 64.4896C27.5991 62.3251 27.2557 59.9716 26.9264 57.616C26.3939 53.8215 26.0138 50.0188 26.2516 46.1755C26.2069 47.9295 26.5362 49.6204 27.1662 51.2464C28.3633 54.3235 30.3876 55.7218 33.6842 55.7441C34.7797 55.7502 35.8833 55.862 36.9727 55.612C39.0417 55.1344 40.633 53.9617 41.8606 52.2545C42.0639 51.974 42.3057 51.7179 42.5313 51.4517C43.0354 50.0452 43.5414 48.6449 43.4459 47.1145C43.4317 46.8665 43.4703 46.6287 43.702 46.4519C44.2406 46.0434 46.4437 46.0759 47.0128 46.4905C47.2953 46.6978 47.2628 46.9559 47.2669 47.2446C47.3156 51.9394 50.9679 55.5775 55.7542 55.7563C58.2135 55.8478 60.4979 55.5023 62.2966 53.604C63.5364 52.2992 63.9429 50.6732 64.1949 48.964Z" fill="white"/>
</svg>
