<svg width="92" height="113" viewBox="0 0 92 113" fill="none" xmlns="http://www.w3.org/2000/svg">
<path d="M72.1465 42.674C71.6029 42.3222 71.6181 41.8193 71.7203 41.2893C72.4379 37.5343 72.0225 33.8245 71.3789 30.1101C70.807 26.8039 68.7455 24.3119 67.1712 21.5447C65.1467 17.9837 62.3546 15.282 58.8145 13.4146C53.5543 10.6407 47.9158 10.3543 42.2773 11.3037C37.0541 12.1833 32.1701 14.2107 28.1733 18.0243C24.9724 21.0802 22.5587 24.5848 21.528 29.1223C20.6495 32.9946 20.7386 36.8668 20.7843 40.7638C20.7952 41.6907 20.5473 42.2951 19.771 42.7958C17.8726 44.0272 16.8484 45.8652 16.5853 48.161C16.2156 51.3815 17.0854 54.3606 18.4662 57.1571C19.9623 60.1859 22.2825 62.2269 25.6922 62.6013C26.3119 62.6689 26.4032 63.1515 26.562 63.6026C27.6971 66.8253 29.2801 69.7391 31.9004 71.9334C32.207 72.1454 47.2917 82.4 59.2124 71.3087C59.2559 71.2636 59.3038 71.2185 59.3581 71.1734C61.774 69.1324 63.4701 66.5479 64.627 63.5778C64.9575 62.7298 65.5533 62.4885 66.3035 62.4254C67.6039 62.3149 68.7825 61.8322 69.8263 61.07C73.0206 58.7381 75.0495 55.6619 75.6018 51.5551C76.0976 47.8566 75.3778 44.7624 72.1465 42.674ZM24.7963 60.5468C23.3415 60.0799 22.0759 59.2613 21.167 58.0051C19.0207 55.044 18.0835 51.6859 18.4445 47.9896C18.6011 46.3907 19.5426 45.2518 20.7625 44.3497C21.4997 43.8062 22.1477 43.8828 22.9284 44.4466C24.1918 45.36 24.9637 46.4109 24.6419 48.0776C24.5832 48.391 24.7897 48.8308 24.4201 48.9864C24.12 49.1105 23.9373 48.7271 23.7264 48.5399C23.0762 47.9603 22.376 47.5634 21.4736 47.613C20.8126 47.6513 20.5603 48.0482 20.606 48.6391C20.6495 49.2029 21.0104 49.5525 21.5736 49.4217C22.1347 49.2909 22.5826 49.3518 22.8936 49.875C23.2219 50.4275 22.6739 50.6756 22.4739 51.0274C21.952 51.9498 21.5802 52.915 21.6193 53.9976C21.6367 54.4892 21.7193 55.0462 22.3325 55.0778C22.9414 55.1071 23.1045 54.6042 23.1328 54.0855C23.1915 53.0165 23.6373 52.1956 24.5636 51.4243C24.8637 54.4283 25.0964 57.2519 25.6117 60.0371C25.7596 60.8422 25.2181 60.6821 24.7963 60.5468ZM63.4571 61.4894C61.9458 65.4947 59.7669 68.8798 56.7378 71.2478C54.8003 72.7679 52.5127 73.8707 49.8337 74.4525C44.6518 75.5824 39.7679 74.6059 35.2862 71.841C34.6838 71.4688 34.088 71.0652 33.5009 70.6299C30.6153 68.4942 29.1192 65.5286 28.0124 62.2201C26.6903 58.2667 26.4685 54.1464 26.2815 50.0238C26.2293 48.824 26.3076 47.6198 26.2554 46.4222C26.2097 45.3713 26.4163 44.4489 26.986 43.5558C28.0515 41.8847 28.0341 39.9136 28.1777 38.0215C28.2516 37.045 28.6017 36.6571 29.4911 36.6864C30.4 36.718 31.1676 36.2962 31.9331 35.861C34.0315 34.6702 36.0125 33.2877 37.9869 31.894C38.5458 31.4993 38.9437 31.2152 39.1264 32.2503C39.2612 33.0103 39.8287 33.4434 40.5877 33.5651C43.1036 33.9711 45.4912 33.5448 47.7201 32.2932C48.3724 31.9256 48.716 31.7835 49.0944 32.6495C49.4945 33.5606 50.3143 34.0229 51.3146 33.9711C53.824 33.8403 56.1746 33.1772 58.1991 31.576C58.8862 31.0325 59.2472 31.0911 59.6908 31.903C60.6607 33.6779 61.3717 35.552 61.9915 37.4802C62.659 39.5505 63.4006 41.5915 65.0641 43.0822C65.4577 43.434 65.5229 43.9031 65.5207 44.4083C65.512 45.6103 65.5164 46.8101 65.5164 48.0122C65.5968 52.6286 65.0749 57.1955 63.4571 61.4894ZM67.0516 60.4205C66.7037 60.5716 66.2818 60.9076 65.9382 60.6099C65.6207 60.3325 65.9556 59.9085 66.0143 59.5567C66.4144 57.1211 66.832 54.6877 67.2603 52.2565C67.306 51.9904 67.206 51.5687 67.5865 51.5168C67.9018 51.4762 68.0736 51.8122 68.2236 52.0603C68.5498 52.5993 68.6672 53.1992 68.3759 53.7743C68.0127 54.4914 68.0888 55.0372 68.8651 55.2695C69.6197 55.4928 70.0481 54.9831 70.209 54.311C70.4895 53.1225 70.1938 51.9972 69.624 50.9643C68.9108 49.6698 68.8934 49.663 70.3242 49.2074C70.9896 48.9954 71.6094 48.7654 71.2528 47.8182C70.9374 46.9793 70.3373 46.747 69.5088 47.2409C68.7977 47.6649 68.1345 48.1745 67.3299 48.7271C67.3299 47.8453 67.3169 47.0717 67.3299 46.3004C67.3473 45.5472 68.0649 45.4277 68.4737 45.0601C70.1068 43.5874 70.82 43.6573 72.414 45.2382C73.3577 46.1719 73.8339 47.3491 73.8991 48.6436C74.1579 53.869 71.792 58.3614 67.0516 60.4205Z" fill="black"/>
<path fill-rule="evenodd" clip-rule="evenodd" d="M56.7378 71.2478C59.7669 68.8798 61.9458 65.4947 63.4571 61.4894C65.0749 57.1955 65.5968 52.6286 65.5164 48.0122C65.5164 47.7114 65.5161 47.4109 65.5158 47.1104C65.515 46.2097 65.5142 45.3096 65.5207 44.4083C65.5229 43.9031 65.4577 43.434 65.0641 43.0822C63.4006 41.5915 62.659 39.5505 61.9915 37.4802C61.3717 35.552 60.6607 33.6779 59.6908 31.903C59.2472 31.0911 58.8862 31.0325 58.1991 31.576C56.1746 33.1772 53.824 33.8403 51.3146 33.9711C50.3143 34.0229 49.4945 33.5606 49.0944 32.6495C48.716 31.7835 48.3724 31.9256 47.7201 32.2932C45.4912 33.5448 43.1036 33.9711 40.5877 33.5651C39.8287 33.4434 39.2612 33.0103 39.1264 32.2503C38.9442 31.218 38.5434 31.501 37.9869 31.894C36.0125 33.2877 34.0315 34.6702 31.9331 35.861C31.1676 36.2962 30.4 36.718 29.4911 36.6864C28.6017 36.6571 28.2516 37.045 28.1777 38.0215C28.1589 38.2691 28.1428 38.5181 28.1268 38.7677C28.0201 40.4245 27.9121 42.1034 26.986 43.5558C26.4163 44.4489 26.2097 45.3713 26.2554 46.4222C26.2815 47.0209 26.275 47.6213 26.2684 48.222C26.2619 48.8228 26.2554 49.4239 26.2815 50.0238C26.4685 54.1464 26.6903 58.2667 28.0124 62.2201C29.1192 65.5286 30.6153 68.4942 33.5009 70.6299C34.088 71.0652 34.6838 71.4688 35.2862 71.841C39.7679 74.6059 44.6518 75.5824 49.8337 74.4525C52.5127 73.8707 54.8003 72.7679 56.7378 71.2478Z" fill="white"/>
</svg>
