<svg width="91" height="113" viewBox="0 0 91 113" fill="none" xmlns="http://www.w3.org/2000/svg">
<g clip-path="url(#clip0_4520_16269)">
<path d="M73.8735 48.1683C73.489 45.3308 71.4205 43.106 68.8523 43.0937C67.633 43.0896 67.4891 42.6454 67.6063 41.6667C68.0771 37.7949 68.1285 33.9046 68.0566 30.5591C68.0566 27.919 68.071 25.8279 68.0545 23.7367C68.0072 18.7772 65.6878 15.6436 60.9709 14.0459C56.729 12.6127 52.3391 12.0925 47.9018 11.8951C44.0074 11.7224 40.115 11.9712 36.2473 12.3619C32.6901 12.7217 29.1926 13.4599 26.0075 15.2303C23.721 16.501 22.3002 18.3516 22.0514 21.041C21.9589 22.0486 21.8828 23.0479 21.8849 24.0595C21.9013 30.041 21.7718 36.0245 22.0967 42.0018C22.1398 42.8325 21.9157 43.18 21.011 43.3178C18.3976 43.7187 16.255 45.7523 16.0782 48.082C15.9116 50.2307 15.8911 52.3979 16.4771 54.524C17.6101 58.6364 20.4949 61.476 24.2084 61.8749C25.2138 61.9839 25.6477 62.3314 25.9006 63.271C26.9924 67.3505 28.989 70.7967 32.9122 72.8076C32.9122 72.8076 32.9143 72.8076 32.9163 72.8097C32.9204 72.8117 32.9287 72.8179 32.941 72.8241C32.9739 72.8488 33.0356 72.8899 33.1322 72.9475C34.7998 74.0043 45.7695 80.3641 56.9634 72.8117V72.8076C57.3541 72.2216 57.8682 71.6767 58.4973 71.136C60.9113 69.0551 62.8811 66.5136 63.8517 63.4088C64.2341 62.1792 64.8777 61.7453 66.0662 61.7104C67.2978 61.6754 68.3671 61.1367 69.2862 60.3348C72.9996 57.1066 74.5377 53.0497 73.8756 48.1642L73.8735 48.1683ZM24.1446 60.1004C22.3804 59.9441 20.937 59.0579 19.9932 57.6597C18.009 54.7296 17.39 51.4562 18.1735 47.9771C18.5292 46.4021 19.9068 45.2629 21.2804 45.2897C22.5408 45.3143 23.8876 46.5542 24.2125 48.0676C24.3687 48.7955 24.4654 49.546 24.233 50.3294C22.987 49.4925 21.7985 48.6947 20.6059 47.899C20.2029 47.6296 19.7197 47.3644 19.3393 47.79C18.9137 48.2691 19.3702 48.7029 19.693 48.9826C20.4805 49.6611 21.3091 50.3006 22.1748 50.8722C22.7012 51.2218 22.6642 51.4665 22.2817 51.8674C21.6093 52.5686 20.9472 53.2841 20.5545 54.193C20.3777 54.6042 20.2152 55.0525 20.7149 55.3321C21.1385 55.5686 21.5559 55.437 21.8766 55.0648C22.3681 54.4911 22.8636 53.9216 23.3427 53.3376C23.83 52.7392 24.3029 52.8482 24.3626 53.5391C24.5394 55.5459 24.8376 57.5343 25.074 59.5308C25.1522 60.1806 24.5682 60.1354 24.1467 60.0963L24.1446 60.1004ZM63.5638 54.4418C63.2369 56.6851 62.9963 58.951 62.5069 61.1593C61.5158 65.6192 58.7523 68.9831 55.0923 71.4362C54.2637 71.9934 53.361 72.4478 52.4151 72.8097C50.8052 73.4265 49.0697 73.7761 47.3261 73.9036C43.8079 74.1606 40.3679 73.9755 37.0842 72.8097C36.1528 72.4786 35.2316 72.0695 34.3269 71.5698C31.3968 69.9454 29.4023 67.6219 28.2961 64.5109C26.3427 59.0127 26.0404 53.3232 26.3982 47.5597C26.5462 45.1889 26.4599 42.8079 26.684 40.435C27.0233 36.8799 27.5682 33.3617 28.2734 29.8642C28.4338 29.0766 28.8759 28.688 29.6737 28.6366C34.4852 28.3241 39.2699 27.553 43.664 27.7319C49.4954 27.627 54.8291 28.2213 60.1608 28.8361C61.0306 28.9348 61.2711 29.4221 61.4398 30.1602C62.1183 33.117 62.3835 36.1314 62.7681 39.1293C63.0292 41.1608 63.5001 43.1656 63.827 45.193C64.3246 48.2897 64.0079 51.3719 63.5597 54.4438L63.5638 54.4418ZM72.2594 49.9511C72.2697 53.4898 70.8427 56.5309 68.2642 59.0785C67.4849 59.8516 66.4939 59.9811 65.4884 60.0922C64.9579 60.1497 64.7626 59.8125 64.8201 59.354C65.0874 57.1786 65.0998 54.9723 65.6693 52.8359C65.84 52.1902 66.0662 52.0257 66.5597 52.5809C66.8229 52.8749 67.1251 53.1361 67.415 53.4054C67.8366 53.8023 68.0196 54.2012 67.5322 54.6926C67.2855 54.9414 66.9565 55.254 67.3534 55.6015C67.6926 55.8975 68.036 55.6385 68.33 55.4328C69.7241 54.4582 69.8105 52.9058 68.5377 51.7708C67.8838 51.1882 67.9051 50.6214 68.6015 50.0703C69.1381 49.6488 69.7015 49.2519 70.2032 48.7914C70.5939 48.4315 70.853 47.9401 70.3986 47.4672C69.9585 47.0107 69.3931 47.0189 68.949 47.4569C68.2067 48.1868 67.524 48.9785 66.8002 49.731C66.609 49.9325 66.3972 50.2307 66.0847 50.1258C65.7331 50.0045 65.8791 49.6323 65.8647 49.363C65.803 48.3719 65.9922 47.4363 66.5062 46.5645C67.6597 44.6009 70.232 44.5618 71.4184 46.5357C72.0188 47.535 72.3766 48.631 72.2635 49.9511H72.2594Z" fill="black"/>
<path fill-rule="evenodd" clip-rule="evenodd" d="M63.3218 56.1841C63.4006 55.6028 63.4793 55.0215 63.5638 54.4418L63.5597 54.4438C64.0079 51.3719 64.3246 48.2897 63.827 45.193C63.6935 44.3652 63.536 43.5412 63.3786 42.7175C63.1505 41.524 62.9226 40.3314 62.7681 39.1293C62.682 38.4581 62.6018 37.786 62.5217 37.1139C62.244 34.7844 61.9664 32.455 61.4398 30.1602C61.2711 29.4221 61.0306 28.9348 60.1608 28.8361C54.8291 28.2213 49.4954 27.627 43.664 27.7319C40.7456 27.6131 37.6548 27.9133 34.4983 28.2199C32.9023 28.375 31.2895 28.5317 29.6737 28.6366C28.8759 28.688 28.4338 29.0766 28.2734 29.8642C27.5682 33.3617 27.0233 36.8799 26.684 40.435C26.5563 41.7869 26.5294 43.1414 26.5025 44.4952C26.4822 45.5176 26.4619 46.5396 26.3982 47.5597C26.0404 53.3232 26.3427 59.0127 28.2961 64.5109C29.4023 67.6219 31.3968 69.9454 34.3269 71.5698C35.2316 72.0695 36.1528 72.4786 37.0842 72.8097C40.3679 73.9755 43.8079 74.1606 47.3261 73.9036C49.0697 73.7761 50.8052 73.4265 52.4151 72.8097C53.361 72.4478 54.2637 71.9934 55.0923 71.4362C58.7523 68.9831 61.5158 65.6192 62.5069 61.1593C62.8698 59.5217 63.0959 57.8524 63.3218 56.1841Z" fill="white"/>
</g>
<defs>
<clipPath id="clip0_4520_16269">
<rect width="58.0462" height="64.6198" fill="white" transform="translate(15.9766 11.8398)"/>
</clipPath>
</defs>
</svg>
