<svg width="91" height="113" viewBox="0 0 91 113" fill="none" xmlns="http://www.w3.org/2000/svg">
<path d="M72.3678 47.4117C71.681 45.8749 70.5972 44.6173 68.7832 44.5325C67.7676 44.4849 67.5401 44.1064 67.6311 43.2273C67.9289 40.3791 67.7573 37.5185 67.8131 34.6641C67.8876 30.9451 66.7582 27.6936 64.2368 24.9426C63.999 24.684 63.8294 24.4358 63.8169 24.0449C63.6928 20.39 61.7196 17.9845 58.5942 16.3525C55.1772 14.5674 51.5306 13.6801 47.6978 13.5291C41.8132 13.2933 36.2037 14.4992 30.8237 16.8241C27.235 18.3754 24.2151 20.6465 22.1405 24.0242C21.0132 25.861 20.3948 27.8384 20.7609 30.0247C20.8912 30.8127 21.2883 31.2885 22.1736 31.1189C22.9865 30.9617 23.1768 31.3216 23.0982 32.089C22.6845 36.0644 22.4136 40.0441 23.0196 44.0258C23.1003 44.5635 22.9058 44.7249 22.4053 44.6421C21.1932 44.4456 20.2645 44.9938 19.4619 45.8108C18.4463 46.845 17.7452 48.0819 17.5528 49.5153C17.1784 52.3035 17.6128 55.0152 18.7814 57.5635C20.0142 60.2462 22.0743 61.9547 25.0921 62.2505C25.8244 62.3209 25.8761 62.7407 25.996 63.2516C26.8999 67.1237 27.8948 70.9565 30.8506 73.8936C30.8506 73.8936 30.8527 73.8957 30.8568 73.9019C30.9209 73.966 30.9685 74.0239 30.9995 74.0818C31.5022 74.6982 33.2893 76.6901 36.2078 77.8484C37.6185 78.1876 38.814 79.0771 40.2453 79.379C45.0564 80.3967 49.7352 80.2374 54.1988 77.9374C54.3519 77.8588 54.5112 77.7946 54.6642 77.714H54.6684C54.6684 77.714 54.687 77.6954 54.7035 77.6788L59.2478 73.5151C60.0938 72.7063 60.8653 71.8438 61.5024 70.8406C62.9027 68.6254 63.8107 66.2281 64.301 63.6715C64.452 62.8876 64.7498 62.4388 65.5896 62.3457C66.4583 62.2505 67.2278 61.8472 67.9455 61.3487C70.44 59.6174 71.9603 57.2139 72.6449 54.3016C73.1868 51.9974 73.3709 49.6498 72.3678 47.4117ZM24.7571 60.6454C22.4653 59.7664 20.6906 58.3433 19.9191 55.9171C19.3109 54.0017 19.0214 52.0429 19.253 50.0241C19.3564 49.1078 19.6729 48.2763 20.1983 47.5441C21.489 45.7425 23.0713 46.1397 24.4654 47.2649C24.6971 47.451 24.7633 47.7199 24.7633 48.0054C24.7674 48.7211 24.7633 49.4347 24.7633 50.3034C23.9607 49.6001 23.3154 48.9051 22.3225 48.8493C21.7517 48.8183 21.127 48.81 21.1394 49.6084C21.1477 50.2992 21.3338 50.9549 22.277 50.8122C22.8045 50.7315 23.2388 50.8701 23.5284 51.3252C23.8656 51.8568 23.2968 52.0388 23.0899 52.3408C22.6349 53.0047 22.2005 53.677 22.337 54.5229C22.4177 55.0276 22.6638 55.4723 23.2864 55.3834C23.8118 55.3069 23.8635 55.0173 23.7497 54.4878C23.6318 53.9397 24.1241 53.586 24.6867 53.2136C24.9701 55.6233 25.2328 57.9048 25.5079 60.1842C25.5948 60.9123 25.1976 60.8151 24.755 60.6454H24.7571ZM61.6989 44.5615C61.7858 46.3382 61.6782 48.0364 61.2087 49.7491C60.191 53.4556 57.1567 55.0649 53.4894 53.8259C49.5201 52.4856 48.3535 47.8151 48.9409 44.969C49.185 43.79 50.151 43.1777 51.3217 42.9605C52.269 42.7868 53.2225 42.6668 54.1926 42.6896C56.2466 42.824 58.3005 42.9564 60.3524 43.1012C61.25 43.1632 61.643 43.4756 61.6989 44.5615ZM27.9735 40.9459C28.0996 37.7874 28.0665 34.6041 29.1855 31.5739C29.1979 31.5408 29.2062 31.5077 29.2166 31.4767C30.348 28.2314 30.3397 28.2831 33.7009 28.7981C39.5255 29.6875 45.346 29.5427 51.1603 28.5933C53.4356 28.221 55.715 27.888 57.9323 27.2365C58.5197 27.0648 58.7886 27.2944 59.0741 27.7763C61.0246 31.0734 61.5417 33.21 61.552 38.2528C61.552 39.0802 61.5293 39.9076 61.5582 40.7328C61.5789 41.3182 61.3928 41.5188 60.7743 41.4299C58.0378 41.0286 55.2785 41.2148 52.5276 41.1879C50.5977 41.1713 48.9285 41.7236 47.793 43.4073C47.7164 43.519 47.6296 43.6369 47.522 43.7155C46.9552 44.125 43.3128 43.912 42.8763 43.3908C41.9828 42.3255 40.781 41.9098 39.4904 41.8725C36.1892 41.7753 32.8838 41.7195 29.6178 42.4C29.0904 42.5096 28.4657 43.0908 28.1017 42.7371C27.6901 42.3338 27.9486 41.554 27.9735 40.9459ZM35.9947 54.1961C31.8269 54.8063 28.6519 52.0491 28.8525 47.8068C28.9022 46.725 29.289 45.604 29.5351 44.5056C29.6923 43.8106 30.3831 43.8334 30.892 43.8065C32.7804 43.7093 34.6606 43.4321 36.5594 43.5686C37.6908 43.6121 38.8264 43.4838 39.9578 43.6514C41.0148 43.8086 41.5939 44.4125 41.8504 45.4219C42.9239 49.656 40.3239 53.5611 35.9947 54.1961ZM63.9907 46.6258C63.8232 49.6456 63.637 52.6655 63.4839 55.6875C63.4488 56.3907 63.1944 56.6906 62.4497 56.7837C60.9232 56.9761 59.6863 57.8159 58.6563 58.9142C58.0936 59.5161 57.7544 59.5864 57.0863 58.9845C56.2217 58.2068 55.1482 57.3629 54.0458 56.9637C51.905 56.1859 49.4973 56.2397 47.2407 56.279C44.3656 56.3287 41.5339 56.7382 38.6982 57.154C36.8221 57.427 34.582 57.6214 33.2975 59.2017C33.1362 59.4003 32.9252 59.6443 32.677 59.574C32.557 59.5409 32.4702 59.4375 32.3916 59.3382C31.6966 58.484 30.923 57.6297 29.895 57.2346C28.867 56.8396 27.5225 57.0588 26.9537 58.0041C26.4697 54.5105 25.9878 50.9363 26.6972 47.4841C27.204 47.8709 27.2971 48.5804 27.4005 49.2092C27.7149 51.137 28.5381 53.0254 29.9529 54.372C32.5405 56.8354 36.6277 56.5293 39.5173 54.7443C39.9785 54.4588 40.446 54.1796 41.0458 53.8155C41.1265 53.7204 43.7368 50.6012 43.6872 47.7841C43.6706 47.2008 43.6706 46.6113 43.7389 46.0342C43.7761 45.726 44.1008 45.6763 44.3884 45.635C46.4754 45.3268 46.7381 45.5419 47.1228 47.6C47.3565 48.8493 47.6647 50.0945 48.1942 51.259C49.5511 54.2292 52.0353 55.5572 55.1441 55.8798C57.9323 56.1673 60.2282 55.2696 61.8499 52.8972C62.9048 51.3541 63.031 49.5484 63.2916 47.782C63.3743 47.2173 63.455 46.6506 63.5481 46.0094C63.9555 46.21 64.0031 46.4148 63.9907 46.6258ZM66.5721 60.1738C66.0881 60.4696 65.4841 60.9578 64.9752 60.662C64.4995 60.3869 64.9297 59.7126 64.969 59.2286C65.12 57.276 65.3476 55.3296 65.5503 53.3812C65.5689 53.1868 65.513 52.9241 65.7737 52.8682C65.9991 52.8186 66.146 53.0109 66.2556 53.1909C66.5472 53.6687 66.7065 54.1879 66.7189 54.7546C66.7293 55.1993 66.8389 55.6027 67.3705 55.6461C67.8917 55.6875 68.204 55.3772 68.3612 54.9097C68.4998 54.5043 68.4523 54.0969 68.3447 53.6894C68.1668 53.0171 67.8359 52.4132 67.5194 51.803C67.3622 51.4989 67.1471 51.1928 67.4346 50.8536C67.7035 50.5392 68.0365 50.4399 68.4522 50.5164C68.868 50.593 69.3892 50.8432 69.6209 50.2537C69.8174 49.7511 69.7243 49.2299 69.3686 48.7955C69.0045 48.3529 68.5288 48.3736 68.0489 48.5514C67.3643 48.8038 66.7458 49.1658 66.2101 49.6725C66.0943 49.7821 65.904 49.9207 65.7778 49.8938C65.5275 49.8442 65.5813 49.5774 65.5606 49.3788C65.3745 47.5917 66.117 46.6464 68.0717 46.181C69.0997 45.939 70.3593 46.8305 70.8516 48.175C70.9923 48.5618 71.1308 48.961 71.1805 49.3664C71.2611 50.0117 71.2653 50.6674 71.3129 51.5527C71.2032 55.0669 69.8712 58.1509 66.5721 60.1738Z" fill="black"/>
</svg>
