<svg width="91" height="114" viewBox="0 0 91 114" fill="none" xmlns="http://www.w3.org/2000/svg">
<path d="M70.8278 43.3659C70.1595 43.0608 69.8949 42.6087 69.9566 41.902C69.9875 41.5398 70.0074 41.1623 69.9478 40.8067C69.7096 39.4394 70.1573 38.6734 71.5379 38.0632C74.3587 36.8165 75.2166 34.1542 74.0235 31.3492C72.6715 28.1711 70.9535 25.2147 68.898 22.4316C63.788 15.5179 57.24 11.5409 48.3277 12.3332C47.2757 12.4276 46.1708 12.4254 45.2423 13.0158C44.7108 13.3538 44.252 13.3626 43.6963 13.1409C41.0321 12.0852 38.2885 11.9842 35.4743 12.3903C29.5549 13.2441 24.9763 16.3849 21.205 20.7767C17.8307 24.7055 15.3186 29.1434 14.0571 34.2157C13.8211 35.1726 14.013 35.9781 14.7033 36.6212C15.5061 37.3696 16.3706 38.0434 17.4822 38.3332C18.0115 38.4714 18.8297 38.4517 18.7349 39.2769C18.5673 40.7431 19.3392 42.3124 18.2784 43.6798C18.2365 43.7324 18.1549 43.7544 18.0909 43.7917C16.45 44.7267 15.5524 46.1621 15.2172 47.986C14.8026 50.2313 15.5193 52.3208 16.106 54.4256C17.0632 57.8649 19.1032 60.3122 22.6121 61.403C22.9275 61.4996 23.2208 61.6927 23.5406 61.7388C24.3853 61.8639 24.7624 62.3731 24.9896 63.1501C26.0416 66.743 28.0353 69.7763 31.1119 71.8811C31.1119 71.8811 31.1229 71.8899 31.1274 71.8943C31.467 72.1248 31.7669 72.364 32.0338 72.6142C35.0817 74.8551 45.3018 80.9611 56.7239 72.2367C56.7261 72.2367 56.7305 72.2345 56.7327 72.2301C56.8695 72.1094 57.0216 71.9931 57.187 71.8767C60.3386 69.6731 62.8462 66.9076 64.0637 63.1676C64.2688 62.5399 64.6437 62.2941 65.2855 62.1075C68.2011 61.2516 70.6492 59.6998 72.0232 56.8926C73.3927 54.0833 74.0301 51.0961 73.7147 47.9597C73.514 45.9712 72.7906 44.2592 70.8278 43.3659ZM19.0062 56.6819C17.3543 54.2435 16.8845 51.5153 17.0786 48.6445C17.2661 45.9075 19.4473 44.4348 22.0034 45.2754C23.2561 45.6858 24.0522 47.9838 23.3134 49.0615C23.0377 49.4631 22.7268 49.2415 22.4599 49.0615C21.7895 48.6028 21.0661 48.2604 20.3008 47.9926C19.6171 47.7534 18.9996 47.8851 18.7614 48.5896C18.532 49.2744 19.101 49.5334 19.6546 49.7155C20.3162 49.9328 20.9668 50.1677 21.5755 50.5189C22.0629 50.802 22.2548 51.0061 21.6902 51.4341C21.1675 51.8292 20.6955 52.2967 20.2434 52.7729C19.7428 53.2997 19.4384 53.923 19.7229 54.6671C19.8707 55.049 20.1111 55.4045 20.5654 55.4419C20.9756 55.477 21.0749 55.0995 21.2425 54.8229C21.6593 54.1293 22.2482 53.5389 23.126 52.9376C23.8538 55.2816 23.5869 57.7267 24.2243 60.3012C21.9681 59.5615 20.2346 58.4971 19.0062 56.6819ZM26.1386 43.5108C26.4496 41.5661 26.529 39.5886 26.9987 37.6637C27.1289 37.1238 27.3715 36.9065 27.9206 37.0404C28.5801 37.2006 29.2263 37.0733 29.8835 36.9636C30.9531 36.7858 31.5552 36.1647 31.8485 35.1507C32.3536 33.397 32.8366 31.628 33.7254 30.0148C35.4655 26.8564 38.1098 25.568 41.6981 26.0333C43.4823 26.266 45.282 26.2857 47.0728 26.0399C51.2654 25.4627 54.7897 27.6399 56.4306 31.8606C57.1209 33.6318 57.7759 35.4162 58.4353 37.1984C58.9602 38.6163 59.688 39.0311 61.234 38.7611C62.5264 38.5351 62.769 38.6865 62.9852 40.0012C63.1396 40.9362 63.23 41.8822 63.3469 42.8238C63.3359 42.826 63.3248 42.826 63.3138 42.8282C63.327 43.0828 63.3601 43.3396 63.3557 43.5942C63.3447 44.3558 62.8749 44.6609 62.2155 44.2965C61.9398 44.1429 61.6707 43.8971 61.5097 43.6293C58.9889 39.424 52.4144 39.7203 49.179 42.8874C48.438 43.6117 48.0167 45.0164 47.0265 45.3917C46.3494 45.6485 45.5974 45.3391 44.8718 45.3434C44.2741 45.3456 43.694 45.5629 43.0964 45.5915C41.568 45.6639 40.9328 43.6117 40.0154 42.6679C38.9016 41.5222 37.4725 40.7606 35.8757 40.5653C32.8256 40.1944 30.2738 41.3028 28.1853 43.513C27.9581 43.7522 27.7729 44.0309 27.5347 44.2548C27.2281 44.5423 26.862 44.4984 26.5047 44.3426C26.132 44.178 26.0835 43.851 26.1386 43.5108ZM59.2183 53.5258C58.1155 54.5398 56.8717 55.128 55.2683 55.0819C51.3867 55.1214 48.8989 51.6514 48.6872 48.7257C48.5461 46.7833 49.662 45.2008 51.1419 43.9234C53.2282 42.1236 56.124 41.6781 58.3118 42.8479C58.7375 43.074 59.1234 43.3483 59.4366 43.7127C61.1767 45.7319 61.9045 51.0588 59.2183 53.5258ZM40.8292 48.9539C40.8292 52.4481 37.8915 55.0621 33.9305 55.0709C30.7679 55.0753 27.9449 52.0201 27.9074 48.5567C27.8765 45.5103 31.3214 42.1609 34.6451 42.2465C37.5055 42.3234 40.8292 44.7091 40.8292 48.9539ZM63.6909 53.9164C63.5939 56.4273 63.3844 58.9382 62.7139 61.392C61.3973 66.2141 58.3162 69.6248 54.1104 71.8767C53.8568 72.0128 53.601 72.1423 53.3407 72.2696C48.4093 74.6708 43.0853 75.1865 37.7878 73.6107C36.3124 73.1717 34.9671 72.5944 33.7519 71.8811C30.1393 69.7565 27.6868 66.4336 26.4099 62.0088C24.9962 57.1099 25.1395 52.1233 25.4439 47.1213C25.4726 46.6801 25.6049 46.296 26.1563 46.3662C26.6966 46.4365 26.4893 46.8403 26.4364 47.1344C25.7747 50.8152 27.0826 53.7628 30.1548 55.725C31.8927 56.8356 33.9217 57.1824 35.9353 56.739C37.7173 56.3461 39.6911 55.545 40.7365 53.9823C41.3055 53.1307 41.5923 52.1452 41.9253 51.1905C42.1943 50.4135 42.4921 49.2832 43.2772 48.8618C44.1197 48.4118 45.4253 48.7652 46.3274 48.8376C46.4773 48.8486 46.6339 48.8618 46.7663 48.9342C47.064 49.0966 47.139 49.4785 47.1985 49.8077C47.8646 53.4731 50.3413 56.3088 54.1611 56.7105C59.13 57.235 62.0523 54.5749 62.7007 49.4434C62.7999 48.6489 62.7161 47.8412 62.5507 47.0444C62.4691 46.645 62.4448 46.206 63.0558 46.1665C63.6336 46.127 63.5696 46.5638 63.6049 46.9127C63.8343 49.2437 63.7814 51.5877 63.6909 53.9164ZM66.397 59.8952C66.1302 60.0115 65.8743 60.1629 65.5987 60.2595C64.9458 60.4856 64.6525 60.3802 64.7892 59.5681C65.1708 57.3009 65.495 55.0226 65.8126 52.7466C65.9339 51.8709 66.2757 51.8006 66.9726 52.255C67.824 52.8124 68.4503 53.3787 67.7137 54.4542C67.5571 54.6824 67.3851 55.0073 67.6872 55.2465C68.0004 55.4945 68.2253 55.2004 68.4459 55.027C70.2566 53.6004 70.1794 52.0969 68.232 50.8393C68.0225 50.7054 67.8085 50.5737 67.5461 50.4113C68.4701 49.6453 69.3038 48.9912 70.0956 48.2889C70.5256 47.9048 70.8631 47.378 70.336 46.8688C69.7912 46.3421 69.4185 46.8886 69.0612 47.2354C68.3511 47.9246 67.6652 48.6379 66.944 49.3139C66.5073 49.7243 66.1544 49.7924 65.9471 49.0461C65.4773 47.3583 66.644 45.2732 68.3687 44.8057C69.928 44.3843 71.6703 45.5168 72.0099 47.3078C72.6517 50.6988 71.377 57.7047 66.397 59.8952Z" fill="black"/>
<path fill-rule="evenodd" clip-rule="evenodd" d="M62.7139 61.392C63.3844 58.9382 63.5939 56.4273 63.6909 53.9164C63.7814 51.5877 63.8343 49.2437 63.6049 46.9127C63.6002 46.8657 63.5972 46.817 63.5942 46.7681C63.5752 46.4546 63.5556 46.1323 63.0558 46.1665C62.4448 46.206 62.4691 46.645 62.5507 47.0444C62.7161 47.8412 62.7999 48.6489 62.7007 49.4434C62.0523 54.5749 59.13 57.235 54.1611 56.7105C50.3413 56.3088 47.8646 53.4731 47.1985 49.8077C47.139 49.4785 47.064 49.0966 46.7663 48.9342C46.6339 48.8618 46.4773 48.8486 46.3274 48.8376C46.1168 48.8207 45.8843 48.7885 45.6409 48.7548C44.8411 48.644 43.9231 48.5168 43.2772 48.8618C42.5782 49.2369 42.2656 50.1739 42.0155 50.9233C41.9847 51.0157 41.9548 51.1052 41.9253 51.1905C41.8761 51.3314 41.828 51.473 41.7798 51.6147C41.5015 52.4332 41.2216 53.2564 40.7365 53.9823C39.6911 55.545 37.7173 56.3461 35.9353 56.739C33.9217 57.1824 31.8927 56.8356 30.1548 55.725C27.0826 53.7628 25.7747 50.8152 26.4364 47.1344C26.4448 47.0872 26.4573 47.0372 26.47 46.9862C26.5366 46.7193 26.6099 46.4252 26.1563 46.3662C25.6049 46.296 25.4726 46.6801 25.4439 47.1213C25.1395 52.1233 24.9962 57.1099 26.4099 62.0088C27.6868 66.4336 30.1393 69.7565 33.7519 71.8811C34.9671 72.5944 36.3124 73.1717 37.7878 73.6107C43.0853 75.1865 48.4093 74.6708 53.3407 72.2696C53.601 72.1423 53.8568 72.0128 54.1104 71.8767C58.3162 69.6248 61.3973 66.2141 62.7139 61.392Z" fill="white"/>
</svg>
