<svg width="91" height="114" viewBox="0 0 91 114" fill="none" xmlns="http://www.w3.org/2000/svg">
<path d="M70.8278 44.3659C70.1595 44.0608 69.8949 43.6087 69.9566 42.902C69.9875 42.5398 70.0074 42.1623 69.9478 41.8067C69.7096 40.4394 70.1573 39.6734 71.5379 39.0632C74.3587 37.8165 75.2166 35.1542 74.0235 32.3492C72.6715 29.1711 70.9535 26.2147 68.898 23.4316C63.788 16.5179 57.24 12.5409 48.3277 13.3332C47.2757 13.4276 46.1708 13.4254 45.2423 14.0158C44.7108 14.3538 44.252 14.3626 43.6963 14.1409C41.0321 13.0852 38.2885 12.9842 35.4743 13.3903C29.5549 14.2441 24.9763 17.3849 21.205 21.7767C17.8307 25.7055 15.3186 30.1434 14.0571 35.2157C13.8211 36.1726 14.013 36.9781 14.7033 37.6212C15.5061 38.3696 16.3706 39.0434 17.4822 39.3332C18.0115 39.4714 18.8297 39.4517 18.7349 40.2769C18.5673 41.7431 19.3392 43.3124 18.2784 44.6798C18.2365 44.7324 18.1549 44.7544 18.0909 44.7917C16.45 45.7267 15.5524 47.1621 15.2172 48.986C14.8026 51.2313 15.5193 53.3208 16.106 55.4256C17.0632 58.8649 19.1032 61.3122 22.6121 62.403C22.9275 62.4996 23.2208 62.6927 23.5406 62.7388C24.3853 62.8639 24.7624 63.3731 24.9896 64.1501C26.0416 67.743 28.0353 70.7763 31.1119 72.8811C31.1119 72.8811 31.1229 72.8899 31.1274 72.8943C31.467 73.1248 31.7669 73.364 32.0338 73.6142C35.0817 75.8551 45.3018 81.9611 56.7239 73.2367C56.7261 73.2367 56.7305 73.2345 56.7327 73.2301C56.8695 73.1094 57.0216 72.9931 57.187 72.8767C60.3386 70.6731 62.8462 67.9076 64.0637 64.1676C64.2688 63.5399 64.6437 63.2941 65.2855 63.1075C68.2011 62.2516 70.6492 60.6998 72.0232 57.8926C73.3927 55.0833 74.0301 52.0961 73.7147 48.9597C73.514 46.9712 72.7906 45.2592 70.8278 44.3659ZM19.0062 57.6819C17.3543 55.2435 16.8845 52.5153 17.0786 49.6445C17.2661 46.9075 19.4473 45.4348 22.0034 46.2754C23.2561 46.6858 24.0522 48.9838 23.3134 50.0615C23.0377 50.4631 22.7268 50.2415 22.4599 50.0615C21.7895 49.6028 21.0661 49.2604 20.3008 48.9926C19.6171 48.7534 18.9996 48.8851 18.7614 49.5896C18.532 50.2744 19.101 50.5334 19.6546 50.7155C20.3162 50.9328 20.9668 51.1677 21.5755 51.5189C22.0629 51.802 22.2548 52.0061 21.6902 52.4341C21.1675 52.8292 20.6955 53.2967 20.2434 53.7729C19.7428 54.2997 19.4384 54.923 19.7229 55.6671C19.8707 56.049 20.1111 56.4045 20.5654 56.4419C20.9756 56.477 21.0749 56.0995 21.2425 55.8229C21.6593 55.1293 22.2482 54.5389 23.126 53.9376C23.8538 56.2816 23.5869 58.7267 24.2243 61.3012C21.9681 60.5615 20.2346 59.4971 19.0062 57.6819ZM26.1386 44.5108C26.4496 42.5661 26.529 40.5886 26.9987 38.6637C27.1289 38.1238 27.3715 37.9065 27.9206 38.0404C28.5801 38.2006 29.2263 38.0733 29.8835 37.9636C30.9531 37.7858 31.5552 37.1647 31.8485 36.1507C32.3536 34.397 32.8366 32.628 33.7254 31.0148C35.4655 27.8564 38.1098 26.568 41.6981 27.0333C43.4823 27.266 45.282 27.2857 47.0728 27.0399C51.2654 26.4627 54.7897 28.6399 56.4306 32.8606C57.1209 34.6318 57.7759 36.4162 58.4353 38.1984C58.9602 39.6163 59.688 40.0311 61.234 39.7611C62.5264 39.5351 62.769 39.6865 62.9852 41.0012C63.1396 41.9362 63.23 42.8822 63.3469 43.8238C63.3359 43.826 63.3248 43.826 63.3138 43.8282C63.327 44.0828 63.3601 44.3396 63.3557 44.5942C63.3447 45.3558 62.8749 45.6609 62.2155 45.2965C61.9398 45.1429 61.6707 44.8971 61.5097 44.6293C58.9889 40.424 52.4144 40.7203 49.179 43.8874C48.438 44.6117 48.0167 46.0164 47.0265 46.3917C46.3494 46.6485 45.5974 46.3391 44.8718 46.3434C44.2741 46.3456 43.694 46.5629 43.0964 46.5915C41.568 46.6639 40.9328 44.6117 40.0154 43.6679C38.9016 42.5222 37.4725 41.7606 35.8757 41.5653C32.8256 41.1944 30.2738 42.3028 28.1853 44.513C27.9581 44.7522 27.7729 45.0309 27.5347 45.2548C27.2281 45.5423 26.862 45.4984 26.5047 45.3426C26.132 45.178 26.0835 44.851 26.1386 44.5108ZM59.2183 54.5258C58.1155 55.5398 56.8717 56.128 55.2683 56.0819C51.3867 56.1214 48.8989 52.6514 48.6872 49.7257C48.5461 47.7833 49.662 46.2008 51.1419 44.9234C53.2282 43.1236 56.124 42.6781 58.3118 43.8479C58.7375 44.074 59.1234 44.3483 59.4366 44.7127C61.1767 46.7319 61.9045 52.0588 59.2183 54.5258ZM40.8292 49.9539C40.8292 53.4481 37.8915 56.0621 33.9305 56.0709C30.7679 56.0753 27.9449 53.0201 27.9074 49.5567C27.8765 46.5103 31.3214 43.1609 34.6451 43.2465C37.5055 43.3234 40.8292 45.7091 40.8292 49.9539ZM63.6909 54.9164C63.5939 57.4273 63.3844 59.9382 62.7139 62.392C61.3973 67.2141 58.3162 70.6248 54.1104 72.8767C53.8568 73.0128 53.601 73.1423 53.3407 73.2696C48.4093 75.6708 43.0853 76.1865 37.7878 74.6107C36.3124 74.1717 34.9671 73.5944 33.7519 72.8811C30.1393 70.7565 27.6868 67.4336 26.4099 63.0088C24.9962 58.1099 25.1395 53.1233 25.4439 48.1213C25.4726 47.6801 25.6049 47.296 26.1563 47.3662C26.6966 47.4365 26.4893 47.8403 26.4364 48.1344C25.7747 51.8152 27.0826 54.7628 30.1548 56.725C31.8927 57.8356 33.9217 58.1824 35.9353 57.739C37.7173 57.3461 39.6911 56.545 40.7365 54.9823C41.3055 54.1307 41.5923 53.1452 41.9253 52.1905C42.1943 51.4135 42.4921 50.2832 43.2772 49.8618C44.1197 49.4118 45.4253 49.7652 46.3274 49.8376C46.4773 49.8486 46.6339 49.8618 46.7663 49.9342C47.064 50.0966 47.139 50.4785 47.1985 50.8077C47.8646 54.4731 50.3413 57.3088 54.1611 57.7105C59.13 58.235 62.0523 55.5749 62.7007 50.4434C62.7999 49.6489 62.7161 48.8412 62.5507 48.0444C62.4691 47.645 62.4448 47.206 63.0558 47.1665C63.6336 47.127 63.5696 47.5638 63.6049 47.9127C63.8343 50.2437 63.7814 52.5877 63.6909 54.9164ZM66.397 60.8952C66.1302 61.0115 65.8743 61.1629 65.5987 61.2595C64.9458 61.4856 64.6525 61.3802 64.7892 60.5681C65.1708 58.3009 65.495 56.0226 65.8126 53.7466C65.9339 52.8709 66.2757 52.8006 66.9726 53.255C67.824 53.8124 68.4503 54.3787 67.7137 55.4542C67.5571 55.6824 67.3851 56.0073 67.6872 56.2465C68.0004 56.4945 68.2253 56.2004 68.4459 56.027C70.2566 54.6004 70.1794 53.0969 68.232 51.8393C68.0225 51.7054 67.8085 51.5737 67.5461 51.4113C68.4701 50.6453 69.3038 49.9912 70.0956 49.2889C70.5256 48.9048 70.8631 48.378 70.336 47.8688C69.7912 47.3421 69.4185 47.8886 69.0612 48.2354C68.3511 48.9246 67.6652 49.6379 66.944 50.3139C66.5073 50.7243 66.1544 50.7924 65.9471 50.0461C65.4773 48.3583 66.644 46.2732 68.3687 45.8057C69.928 45.3843 71.6703 46.5168 72.0099 48.3078C72.6517 51.6988 71.377 58.7047 66.397 60.8952Z" fill="black"/>
<path fill-rule="evenodd" clip-rule="evenodd" d="M62.7139 62.392C63.3844 59.9382 63.5939 57.4273 63.6909 54.9164C63.7814 52.5877 63.8343 50.2437 63.6049 47.9127C63.6002 47.8657 63.5972 47.817 63.5942 47.7681C63.5752 47.4546 63.5556 47.1323 63.0558 47.1665C62.4448 47.206 62.4691 47.645 62.5507 48.0444C62.7161 48.8412 62.7999 49.6489 62.7007 50.4434C62.0523 55.5749 59.13 58.235 54.1611 57.7105C50.3413 57.3088 47.8646 54.4731 47.1985 50.8077C47.139 50.4785 47.064 50.0966 46.7663 49.9342C46.6339 49.8618 46.4773 49.8486 46.3274 49.8376C46.1168 49.8207 45.8843 49.7885 45.6409 49.7548C44.8411 49.644 43.9231 49.5168 43.2772 49.8618C42.5782 50.2369 42.2656 51.1739 42.0155 51.9233C41.9847 52.0157 41.9548 52.1052 41.9253 52.1905C41.8761 52.3314 41.828 52.473 41.7798 52.6147C41.5015 53.4332 41.2216 54.2564 40.7365 54.9823C39.6911 56.545 37.7173 57.3461 35.9353 57.739C33.9217 58.1824 31.8927 57.8356 30.1548 56.725C27.0826 54.7628 25.7747 51.8152 26.4364 48.1344C26.4448 48.0872 26.4573 48.0372 26.47 47.9862C26.5366 47.7193 26.6099 47.4252 26.1563 47.3662C25.6049 47.296 25.4726 47.6801 25.4439 48.1213C25.1395 53.1233 24.9962 58.1099 26.4099 63.0088C27.6868 67.4336 30.1393 70.7565 33.7519 72.8811C34.9671 73.5944 36.3124 74.1717 37.7878 74.6107C43.0853 76.1865 48.4093 75.6708 53.3407 73.2696C53.601 73.1423 53.8568 73.0128 54.1104 72.8767C58.3162 70.6248 61.3973 67.2141 62.7139 62.392Z" fill="white"/>
</svg>
