<svg width="92" height="114" viewBox="0 0 92 114" fill="none" xmlns="http://www.w3.org/2000/svg">
<path d="M68.8462 43.5591C68.1522 43.3611 67.9926 43.1797 68.0879 42.4683C68.6349 38.3527 69.1322 34.2248 68.61 30.0659C67.8455 24.0018 64.8123 19.5584 59.0855 17.1233C56.4087 15.9872 53.6054 15.2758 50.7068 14.9542C50.0335 14.8779 49.3124 14.8779 49.1881 13.9294C49.1487 13.6139 48.7903 13.4882 48.4671 13.4263C46.8469 13.1232 45.2432 13.2428 43.6458 13.5974C43.3267 13.6676 43.0118 13.7892 42.9496 14.1274C42.8357 14.7315 42.4503 14.8325 41.9137 14.882C37.8942 15.2511 34.026 16.1748 30.4375 18.0739C27.9885 19.3729 26.0471 21.2327 24.9345 23.7544C23.132 27.837 23.0491 32.2206 23.074 36.5836C23.0843 38.5342 23.2666 40.4868 23.4096 42.4353C23.478 43.3962 23.0491 43.7632 22.1333 43.6828C20.8591 43.5694 19.8459 44.124 18.9923 44.9818C17.6062 46.3736 16.7609 48.0169 16.7816 50.0314C16.8003 51.8335 17.1297 53.5861 17.7451 55.2728C18.9136 58.4687 21.2258 60.4894 24.4787 61.4028C25.2909 61.6317 25.7218 61.9451 25.8317 62.7926C26.3973 67.1679 28.2475 70.9577 31.4403 73.9929L31.4486 74.0011C31.4486 74.0011 31.4589 74.0093 31.4672 74.0176C31.7096 74.2403 33.535 75.9146 35.1262 77.1187C35.1282 77.1187 35.1303 77.1208 35.1324 77.1208C35.1987 77.1538 35.265 77.195 35.3272 77.2404C35.4038 77.296 35.4784 77.362 35.5468 77.4218L35.5841 77.4548C37.5026 79.1414 39.8397 79.9724 42.2452 80.6075C46.5299 81.7395 50.3214 80.4013 53.8913 78.1352C54.5585 77.7105 55.1883 77.228 55.8182 76.7496L59.2803 74.0052C60.2603 73.1598 61.0704 72.1124 61.7479 70.9804C63.2418 68.4834 64.3523 65.8339 65.0029 63.0029C65.2018 62.1431 65.5519 61.6585 66.5672 61.6008C68.3511 61.4997 69.8822 60.7492 71.0549 59.3492C73.2532 56.7305 74.1897 53.6934 74.2145 50.3139C74.2435 46.4457 72.5487 44.6106 68.8462 43.5591ZM24.6507 59.7327C22.5767 59.1327 21.1492 57.7326 20.0884 55.9429C19.1643 54.382 18.6567 52.683 18.7313 50.8005C18.6484 49.3592 19.0213 47.9901 19.8667 46.7633C20.5815 45.7261 21.7749 45.3344 22.9621 45.7138C24.1203 46.0828 24.8019 47.0107 24.8351 48.2602C24.8371 48.3963 24.8537 48.5365 24.8309 48.6705C24.775 49.0211 25.0298 49.5304 24.5989 49.6809C24.2695 49.7963 24.0415 49.3427 23.8199 49.0974C23.2066 48.4169 22.411 48.0087 21.6174 47.5963C21.058 47.3056 20.538 47.3159 20.2272 47.9592C19.9454 48.5489 20.2127 48.953 20.7534 49.2046C21.5076 49.5551 22.1499 50.0829 22.8606 50.4953C23.594 50.9221 23.4614 51.2005 22.8709 51.6397C21.9282 52.3407 21.5035 53.3305 21.5387 54.5037C21.5511 54.9284 21.6091 55.3841 22.154 55.413C22.6306 55.4377 22.7715 55.0377 22.8274 54.648C22.9704 53.648 23.4883 52.8603 24.1949 52.1737C24.5512 51.8273 24.7936 51.8603 24.8392 52.4067C25.0319 54.7243 25.2308 57.044 25.4111 59.3636C25.4649 60.0585 24.9967 59.8317 24.6507 59.7327ZM38.2299 28.604C38.6732 27.8576 39.2534 27.2267 39.9516 26.7133C41.6278 25.4802 43.8965 24.7565 45.9394 24.7689C48.7302 24.8142 50.9368 25.8679 52.2566 28.4288C52.4244 28.7525 52.7083 29.1113 52.4617 29.4803C52.2048 29.87 51.7676 29.6989 51.4133 29.6391C47.7502 29.0247 44.0747 29.2267 40.3992 29.4309C39.8501 29.4597 39.299 29.4721 38.7478 29.4886C38.0392 29.5092 37.8735 29.204 38.2299 28.604ZM50.0438 64.8235C49.5093 65.4648 48.8753 65.9844 48.1128 66.3494C45.7011 67.5081 43.4904 67.1411 41.4537 65.4875C41.1326 65.2277 40.8384 64.9328 40.5587 64.6297C40.3992 64.4565 40.2582 64.2462 40.1754 64.0276C39.9703 63.4854 40.223 62.9884 40.7721 62.7946C41.1678 62.6544 41.5822 62.6297 41.9986 62.6276C43.1713 62.6235 44.3461 62.6255 45.5188 62.6255V62.5761C46.6231 62.5761 47.7274 62.5719 48.8338 62.5781C49.1425 62.5802 49.4575 62.5822 49.762 62.6359C50.2427 62.7183 50.4686 63.0008 50.4996 63.4895C50.5328 63.9967 50.3629 64.44 50.0438 64.8235ZM62.2038 57.8563C60.7327 59.1718 59.7548 59.2275 58.1283 58.11C56.9287 57.2831 55.7166 56.5367 54.2663 56.2089C52.5964 55.8357 50.7586 56.0439 49.0597 56.0481C47.197 56.0522 45.3323 56.0481 43.4697 56.0171C41.4102 55.9841 39.3446 55.9202 37.2913 56.1161C35.3769 56.2996 33.7649 57.0295 32.2918 58.2729C31.5459 58.9038 30.9699 58.912 30.2199 58.3141C29.4575 57.7058 28.7427 57.0996 28.3179 56.1903C28.1045 55.7305 27.8352 55.2913 27.3545 55.013C26.7391 54.6583 26.849 53.9923 26.8241 53.4397C26.7288 51.4438 27.0106 49.4706 27.2841 47.5014C27.6736 44.6869 28.3055 41.8992 28.0672 39.027C27.9864 38.0435 28.7779 37.7651 29.5051 37.5383C31.4506 36.93 33.479 36.7176 35.4784 36.3527C41.0311 35.3382 46.6128 35.6145 52.1799 36.0042C55.727 36.2517 59.1747 37.1775 62.5705 38.2373C63.076 38.396 63.6126 38.6125 63.5505 39.262C63.1195 43.9199 64.5471 48.454 64.4642 53.0975C64.4269 55.0955 63.6085 56.5986 62.2038 57.8563ZM69.3456 58.6193C68.6826 59.4543 67.715 59.8646 66.6335 59.9471C65.9788 59.9966 65.6887 59.7492 65.7674 59.0419C65.9912 57.0357 66.3496 55.0398 66.3413 53.0109C66.3413 52.8109 66.3082 52.5655 66.5174 52.4521C66.8137 52.2913 66.9463 52.5799 67.0996 52.7366C67.7274 53.3799 68.8379 53.7119 68.4567 55.0027C68.3593 55.3264 68.7696 55.3614 69.0659 55.2439C70.0065 54.8686 70.3836 53.681 69.8304 52.8274C69.5818 52.4418 69.2358 52.1634 68.8442 51.9366C67.6632 51.25 67.6673 51.2562 68.7199 50.4335C69.2068 50.052 69.6895 49.6623 70.1495 49.252C70.5183 48.9221 70.8871 48.5097 70.5286 48.0107C70.1826 47.5282 69.6605 47.6726 69.2275 47.9365C68.494 48.386 67.7771 48.8623 67.1618 49.4747C66.9567 49.6788 66.822 49.9984 66.3703 50.019C66.2647 48.8355 66.4014 47.6953 66.8945 46.6313C67.3586 45.6292 68.3842 45.3447 69.6543 45.7509C71.4796 46.3323 72.2897 47.7262 72.4078 49.4788C72.642 52.9181 71.4672 55.9511 69.3456 58.6193Z" fill="black"/>
</svg>
