<svg width="91" height="113" viewBox="0 0 91 113" fill="none" xmlns="http://www.w3.org/2000/svg">
<path d="M73.3448 48.6734C73.17 47.393 72.5745 46.265 71.5583 45.5008C70.5767 44.7671 70.2352 44.1045 70.3958 42.7651C70.6458 40.6758 70.6458 38.5174 70.3368 36.3955C70.3003 36.1476 70.2495 35.8752 70.4161 35.674C71.347 34.5562 71.3063 33.1477 71.477 31.8389C71.8205 29.2252 70.7068 27.3086 68.3105 26.1826C67.8512 25.9652 67.7801 25.7071 67.8532 25.266C68.0097 24.3433 67.9691 23.4368 67.589 22.5507C66.3188 19.5773 64.012 17.9635 60.88 17.4636C60 17.3233 59.3537 17.0185 58.7846 16.2502C56.0164 12.5207 51.4841 11.4354 47.1551 13.3987C46.7547 13.5776 46.4783 13.4922 46.1755 13.2849C44.0577 11.8236 41.7346 11.3561 39.1921 11.7057C36.4219 12.0898 33.5541 12.6345 32.0766 15.1649C31.0055 16.9981 29.6234 17.4493 27.8512 17.6729C27.5727 17.7075 27.2963 17.7908 27.024 17.8639C23.7782 18.7501 21.5811 21.569 21.6299 24.9225C21.6441 25.8798 21.3129 26.457 20.571 27.0505C17.437 29.5666 16.1017 32.8266 18.689 36.739C18.9309 37.1049 19.126 37.489 19.0264 37.9341C18.6281 39.7694 19.0406 41.5335 19.5162 43.2834C19.6646 43.8362 19.626 44.1817 19.1036 44.5273C18.1545 45.1553 17.5793 46.1044 17.2257 47.1735C16.4981 49.3664 16.2989 51.598 16.742 53.8886C17.5671 58.1607 20.7783 61.4451 25.0627 62.254C25.6988 62.3739 25.8696 62.7255 25.9834 63.2296C26.8106 66.9083 28.8857 69.8431 31.9343 71.8917C31.9343 71.8938 31.9404 71.8978 31.9465 71.9019C32.2778 72.1234 32.5643 72.3531 32.8143 72.595C33.735 73.4953 35.1028 74.1782 36.2247 74.7839C41.9175 77.8671 48.8237 77.928 54.5206 74.7595C59.0447 72.2434 62.4145 68.1785 64.1725 63.3271C64.4611 62.5345 64.9306 62.2134 65.705 62.1158C67.274 61.9187 68.7007 61.2724 69.7495 60.1383C72.7371 56.9088 73.9383 53.0553 73.3448 48.6734ZM24.4448 60.4817C20.254 58.9473 17.6728 54.5694 18.3699 50.1164C18.5142 49.2059 18.628 48.2832 18.9979 47.4275C19.8739 45.387 22.5364 44.9744 24.0221 46.6308C24.5444 47.2161 24.3473 47.9072 24.3798 48.5616C24.4082 49.09 24.3859 49.6185 24.3859 50.4416C23.4164 49.3238 22.577 48.5271 21.3535 48.2872C20.943 48.2059 20.5649 48.1389 20.3211 48.5596C20.0325 49.0575 20.0772 49.59 20.3068 50.0941C20.5324 50.594 20.882 50.2912 21.2113 50.2119C21.9145 50.0432 22.2254 50.6286 22.5811 51.031C22.9347 51.4294 22.449 51.6489 22.2519 51.9009C21.6381 52.6732 21.26 53.541 21.2092 54.5288C21.1787 55.0796 21.3901 55.5674 22.0202 55.5491C22.6197 55.5348 22.7904 55.2096 22.7112 54.539C22.5831 53.4496 23.5709 52.9598 24.3208 52.0066C24.5708 54.1121 24.7863 55.923 25.0037 57.7359C25.0891 58.4392 25.1338 59.1505 25.2802 59.8415C25.461 60.7134 25.1277 60.7317 24.4448 60.4817ZM61.2824 52.8419C60.3109 54.4739 58.9045 54.9698 56.4758 54.9759C53.4434 54.9556 51.1386 53.7727 49.6041 51.0249C47.8827 47.9356 50.3013 41.6839 55.2969 41.4156C58.9045 41.2205 61.4877 42.7733 62.4938 46.2345C63.1563 48.5189 62.4815 50.8237 61.2824 52.8419ZM28.2048 41.7327C29.1539 40.1027 29.0035 38.3081 28.9324 36.548C28.8979 35.7066 29.2556 35.4159 29.9893 35.294C31.1254 35.1009 32.1701 34.6538 33.1233 34.0176C34.1252 33.349 34.6598 32.3632 34.8224 31.1865C34.9057 30.5869 35.1354 30.408 35.7878 30.408C38.7571 30.4141 41.5659 29.7597 44.0272 28.0159C44.6227 27.5952 45.1267 27.0444 45.6714 26.5525C46.1043 27.1074 46.4884 27.711 46.9782 28.2069C48.405 29.6642 50.2525 29.5869 52.0654 29.4142C52.8967 29.3349 53.7929 28.6663 54.4982 28.8553C55.2197 29.0524 55.1323 30.2963 55.7034 30.9385C56.8152 32.1884 57.8741 33.4811 59.5691 33.9912C59.7967 34.0583 60.1158 34.1802 60.187 34.3591C60.8678 36.0195 62.0771 37.5032 61.63 39.5255C61.2662 41.1738 61.3983 41.1331 59.8638 40.5153C54.986 38.5458 50.4313 39.7226 47.9965 44.9581C47.7018 45.5861 47.4213 45.7061 46.7913 45.5313C45.7873 45.2488 44.7568 45.2549 43.7488 45.5516C43.3667 45.6674 43.1228 45.7061 42.9358 45.2223C40.7469 39.4848 33.8204 37.7044 28.8023 41.9583C28.6235 42.1107 28.5036 42.3729 28.2048 42.3424C28.0483 42.1331 28.1072 41.9034 28.2048 41.7327ZM34.7268 41.4116C38.7246 41.4238 41.6269 44.3992 41.631 48.4884C41.631 52.3378 38.4624 55.1446 34.1618 55.0938C30.4323 55.0511 28.093 52.2322 28.0971 47.7893C28.0991 44.3301 31.1478 41.3994 34.7268 41.4116ZM61.7011 64.5933C59.9207 68.459 57.0245 71.2922 53.3174 73.036C53.0715 73.1498 52.8276 73.2616 52.5796 73.3632C46.8157 75.8468 41.0192 75.609 35.5093 72.1438C35.4605 72.1153 35.4097 72.0828 35.3589 72.0503C32.6822 70.339 30.1701 68.4326 28.6885 65.4896C27.5991 63.3251 27.2557 60.9716 26.9264 58.616C26.3939 54.8215 26.0138 51.0188 26.2516 47.1755C26.2069 48.9295 26.5362 50.6204 27.1662 52.2464C28.3633 55.3235 30.3876 56.7218 33.6842 56.7441C34.7797 56.7502 35.8833 56.862 36.9727 56.612C39.0417 56.1344 40.633 54.9617 41.8606 53.2545C42.0639 52.974 42.3057 52.7179 42.5313 52.4517C43.0354 51.0452 43.5414 49.6449 43.4459 48.1145C43.4317 47.8665 43.4703 47.6287 43.702 47.4519C44.2406 47.0434 46.4437 47.0759 47.0128 47.4905C47.2953 47.6978 47.2628 47.9559 47.2669 48.2446C47.3156 52.9394 50.9679 56.5775 55.7542 56.7563C58.2135 56.8478 60.4979 56.5023 62.2966 54.604C63.5364 53.2992 63.9429 51.6732 64.1949 49.964C64.1055 54.9678 63.8514 59.9188 61.7011 64.5933ZM69.3166 58.0185C68.4386 59.2582 67.2415 60.0123 65.7416 60.3171C65.1156 60.4431 64.9875 60.3151 65.14 59.7013C65.6318 57.6994 65.7741 55.6446 66.0098 53.604C66.0403 53.35 65.8859 52.9577 66.274 52.8988C66.5748 52.8541 66.7456 53.1752 66.9163 53.3967C67.1439 53.6955 67.2415 54.0187 67.0464 54.3845C66.7557 54.9271 66.8512 55.3946 67.463 55.5674C68.1215 55.7503 68.4731 55.3072 68.5849 54.732C68.7881 53.7199 68.6174 52.7707 67.963 51.9293C67.7496 51.6549 67.2171 51.4537 67.5931 50.9761C67.8675 50.6306 68.2739 50.405 68.719 50.5513C69.1641 50.6936 69.5727 50.8298 69.784 50.2851C69.9568 49.8339 70.223 49.3339 69.8409 48.8746C69.4995 48.4681 68.9934 48.4966 68.5564 48.6571C67.8918 48.9031 67.2618 49.2303 66.6195 49.527C66.3309 49.6591 66.1094 49.7404 65.9915 49.3014C65.6277 47.9336 66.0708 46.9377 67.3919 46.2467C68.6438 45.5943 69.721 45.8077 70.6051 46.9052C71.2657 47.7263 71.6945 48.6449 71.6864 49.7262C71.6864 50.1164 71.6864 50.5066 71.6864 50.8969C71.8022 53.5654 70.8267 55.8885 69.3166 58.0185Z" fill="black"/>
<path d="M64.1949 49.964C64.1055 54.9678 63.8514 59.9188 61.7011 64.5933C59.9207 68.459 57.0245 71.2922 53.3174 73.036C53.0715 73.1498 52.8276 73.2616 52.5796 73.3632C46.8157 75.8468 41.0192 75.609 35.5093 72.1438C35.4605 72.1153 35.4097 72.0828 35.3589 72.0503C32.6822 70.339 30.1701 68.4326 28.6885 65.4896C27.5991 63.3251 27.2557 60.9716 26.9264 58.616C26.3939 54.8215 26.0138 51.0188 26.2516 47.1755C26.2069 48.9295 26.5362 50.6204 27.1662 52.2464C28.3633 55.3235 30.3876 56.7218 33.6842 56.7441C34.7797 56.7502 35.8833 56.862 36.9727 56.612C39.0417 56.1344 40.633 54.9617 41.8606 53.2545C42.0639 52.974 42.3057 52.7179 42.5313 52.4517C43.0354 51.0452 43.5414 49.6449 43.4459 48.1145C43.4317 47.8665 43.4703 47.6287 43.702 47.4519C44.2406 47.0434 46.4437 47.0759 47.0128 47.4905C47.2953 47.6978 47.2628 47.9559 47.2669 48.2446C47.3156 52.9394 50.9679 56.5775 55.7542 56.7563C58.2135 56.8478 60.4979 56.5023 62.2966 54.604C63.5364 53.2992 63.9429 51.6732 64.1949 49.964Z" fill="white"/>
</svg>
