<svg width="91" height="114" viewBox="0 0 91 114" fill="none" xmlns="http://www.w3.org/2000/svg">
<path d="M73.9873 48.5093C73.7804 45.5129 72.3467 43.7818 69.6405 43.3051C68.509 43.1059 68.01 42.4337 68.1437 41.2884C68.1655 41.1083 68.2068 40.9281 68.2352 40.748C68.9324 36.2314 69.2069 31.7367 67.6556 27.3167C67.1349 25.8295 67.1632 25.8185 68.6295 25.3594C69.9848 24.9376 70.2441 24.1468 69.3028 23.1121C68.1415 21.8313 66.8364 20.6472 65.1477 20.2189C63.8905 19.8981 63.4482 19.171 63.0974 18.0352C61.9361 14.2655 59.5546 11.4646 56.1404 9.54679C55.6414 9.2678 55.1337 9.06789 54.6261 9.48528C54.1772 9.85215 54.3079 10.3464 54.4387 10.8056C54.7895 12.038 54.979 13.2967 55.0749 14.8257C53.3972 12.954 51.6192 11.5613 49.3903 10.8187C46.8192 9.95979 44.1501 9.71375 41.481 9.45892C41.1695 9.43036 40.8317 9.52482 40.5245 9.61929C39.5353 9.92025 39.4242 10.3157 40.0931 11.0736C40.4069 11.4295 40.7468 11.7612 41.0365 12.1324C41.1607 12.2906 41.2806 12.552 41.237 12.7212C41.1629 13.0068 40.8797 12.853 40.6792 12.831C38.801 12.6267 37.0013 13.0155 35.2299 13.5845C30.1575 15.2123 25.9916 18.2461 22.366 22.0927C21.4683 23.0462 21.0064 23.6129 22.2635 24.7355C22.8388 25.2473 22.7473 25.6955 22.0783 26.1129C21.2133 26.6511 20.3854 27.2355 19.3766 27.4925C18.7316 27.6572 18.2784 28.0834 18.2109 28.7842C18.1455 29.4762 18.6292 29.8321 19.1434 30.1396C19.3286 30.2517 19.5226 30.3747 19.7274 30.4252C20.3483 30.5768 20.5488 30.9568 20.6381 31.5895C21.1175 34.9506 20.9606 38.382 21.7058 41.708C21.9563 42.824 21.7646 43.3512 20.466 43.4545C19.0345 43.5687 17.9603 44.4892 17.1127 45.6688C16.0168 47.1912 15.9514 48.9113 15.9819 50.6929C16.0713 55.7851 19.5225 60.3918 24.3444 61.6726C25.1396 61.8835 25.4665 62.2262 25.6081 63.0324C25.924 64.8491 26.6104 66.5275 27.7129 68.0323C29.018 69.8139 30.5672 71.4044 32.3146 72.6588C32.3146 72.6588 32.3211 72.6632 32.332 72.6698C32.3364 72.6742 32.3407 72.6785 32.3473 72.6829C32.3625 72.6983 32.3887 72.7159 32.4192 72.7401C32.4562 72.7642 32.4933 72.7928 32.5303 72.8235C32.5456 72.8345 32.5608 72.8477 32.5761 72.8587C33.9313 73.8538 40.4199 78.1728 48.8129 76.3362C50.2509 75.8463 51.6933 75.3564 53.1314 74.8688C54.5868 74.1965 56.0772 73.3156 57.5915 72.1909C60.631 69.7634 62.9275 66.7318 64.0496 62.9094C64.2174 62.336 64.5638 62.0702 65.1957 61.934C66.8756 61.5759 68.525 60.9828 69.7386 59.724C72.7345 56.6177 74.2902 52.9117 73.9873 48.5093ZM23.6776 59.7262C20.9127 58.9551 19.6446 56.7781 18.6728 54.344C17.8732 52.3427 17.5463 50.2667 18.0562 48.1205C18.4244 46.5629 20.0106 45.1065 21.3746 45.0625C22.9542 45.0142 24.0524 46.0862 24.0524 47.6811C24.0524 48.2918 24.0524 48.9047 24.0524 49.8142C22.9259 48.8828 22.074 48.1512 21.1916 47.457C20.7144 47.0814 20.1326 46.776 19.6816 47.4417C19.248 48.0809 19.5247 48.617 20.1566 48.986C20.3462 49.0959 20.5401 49.1947 20.7187 49.3199C22.3115 50.4381 22.3333 50.5941 21.1218 52.0769C20.5009 52.8392 20.1348 53.7091 20.1849 54.6977C20.2132 55.2645 20.4486 55.8159 21.1305 55.8356C21.7711 55.8532 21.7079 55.2821 21.7537 54.8713C21.8757 53.8146 22.6231 53.2193 23.3552 52.6217C23.7757 52.2768 24.0197 52.4658 24.0393 52.9776C24.1178 55.025 24.3858 57.0505 24.6777 59.0737C24.8019 59.9393 24.3422 59.9107 23.6776 59.7262ZM63.0822 59.2978C62.0146 65.2204 59.0143 69.5745 54.1053 72.2546C53.2839 72.7071 52.4102 73.1091 51.482 73.465C46.2723 75.4619 40.9407 75.4114 35.9838 72.7752C35.8748 72.7159 35.7659 72.6588 35.657 72.5973C30.7066 69.8754 27.2727 65.8465 26.5341 59.8228C25.8543 54.2693 25.9959 48.7532 26.6169 43.215C26.9612 40.1593 27.5081 37.1474 28.1682 34.151C28.3426 33.3558 28.7217 32.8527 29.5191 32.6198C30.0421 32.4682 30.4604 32.2617 30.7153 33.0021C30.8417 33.3711 31.2949 33.5007 31.6479 33.4239C34.0882 32.8944 36.6396 33.0724 39.0255 32.2024C39.9166 31.8773 40.7315 31.405 41.6597 30.8778C41.6423 31.0359 41.6488 31.0799 41.6314 31.104C41.2239 31.7038 40.2217 32.1233 40.6618 32.9955C41.0758 33.8171 42.0454 33.459 42.7622 33.4326C47.5688 33.2613 51.7456 31.5983 55.0074 27.934C55.5412 27.3321 56.0445 27.3914 56.6459 27.6836C58.8291 28.7447 60.071 30.6054 61.0668 32.7538C62.8817 36.6707 63.6465 40.7875 63.6509 45.0779C63.6574 49.8252 63.9341 54.5813 63.0822 59.2978ZM72.3946 49.8076C72.2159 52.9754 71.1396 55.7654 68.9411 58.0874C67.9519 59.1287 66.6577 59.601 65.3678 60.0931C64.8253 60.2974 64.7381 60.0645 64.8144 59.5768C65.1565 57.3427 65.4397 55.0997 65.8363 52.8744C66.0585 51.6354 66.5683 51.5211 67.5379 52.3581C68.5511 53.2346 68.6339 53.6652 68.0304 54.9086C67.941 55.0887 67.6883 55.2733 67.8996 55.4798C68.1219 55.6994 68.379 55.5457 68.586 55.3941C69.9586 54.3792 70.5295 52.58 68.9738 51.6002C67.8321 50.8797 67.9149 50.5479 68.915 49.5835C69.2832 49.2321 69.6645 48.8916 70.0109 48.5203C70.2724 48.2391 70.6864 47.9162 70.2898 47.5076C69.9281 47.1341 69.536 47.4351 69.2331 47.6899C68.4814 48.3204 67.7602 48.986 67.015 49.6209C66.8059 49.7988 66.5967 50.1305 66.2829 49.9526C66.0454 49.8164 66.1653 49.4847 66.1609 49.2386C66.1304 47.0353 67.3811 45.4206 69.2244 45.2734C70.5164 45.1702 71.3945 45.6908 71.8739 46.9078C72.2355 47.8305 72.4447 48.7927 72.3946 49.8076Z" fill="black"/>
<path fill-rule="evenodd" clip-rule="evenodd" d="M54.1053 72.2546C59.0143 69.5745 62.0146 65.2204 63.0822 59.2978C63.7696 55.4923 63.7222 51.661 63.6748 47.8294C63.6635 46.9121 63.6521 45.9949 63.6509 45.0779C63.6465 40.7875 62.8817 36.6707 61.0668 32.7538C60.071 30.6054 58.8291 28.7447 56.6459 27.6836C56.0445 27.3914 55.5412 27.3321 55.0074 27.934C51.7456 31.5983 47.5688 33.2613 42.7622 33.4326C42.6097 33.4382 42.4457 33.4589 42.2781 33.48C41.6579 33.558 40.9877 33.6423 40.6618 32.9955C40.3494 32.3764 40.7637 31.9854 41.1762 31.5961C41.3448 31.4369 41.5131 31.2781 41.6314 31.104C41.6421 31.0891 41.6438 31.0666 41.6475 31.0144C41.6499 30.982 41.653 30.9382 41.6597 30.8778C41.6157 30.9028 41.5719 30.9277 41.5283 30.9524C40.654 31.4495 39.8743 31.8927 39.0255 32.2024C37.6011 32.7218 36.1177 32.8677 34.6341 33.0136C33.6327 33.112 32.6313 33.2105 31.6479 33.4239C31.2949 33.5007 30.8417 33.3711 30.7153 33.0021C30.4829 32.327 30.1146 32.4392 29.655 32.5791C29.6106 32.5927 29.5652 32.6065 29.5191 32.6198C28.7217 32.8527 28.3426 33.3558 28.1682 34.151C27.5081 37.1474 26.9612 40.1593 26.6169 43.215C25.9959 48.7532 25.8543 54.2693 26.5341 59.8228C27.2727 65.8465 30.7066 69.8754 35.657 72.5973C35.7296 72.6383 35.8022 72.6773 35.8748 72.7163C35.9111 72.7359 35.9474 72.7554 35.9838 72.7752C40.9407 75.4114 46.2723 75.4619 51.482 73.465C52.4102 73.1091 53.2839 72.7071 54.1053 72.2546Z" fill="white"/>
</svg>
