<svg width="92" height="114" viewBox="0 0 92 114" fill="none" xmlns="http://www.w3.org/2000/svg">
<path d="M72.7576 44.6438C71.468 43.5139 69.9921 43.0103 68.3381 43.8598C67.6728 44.1996 67.5971 43.9192 67.5951 43.346C67.591 40.9613 67.6688 38.5765 67.3945 36.1979C67.0772 33.4591 66.8807 30.6874 65.9124 28.0816C64.1254 23.2753 60.5186 20.1577 55.9681 18.1946C50.5211 15.8406 44.8489 15.2736 39.1193 17.2182C31.959 19.65 26.995 24.1166 25.7607 31.9607C25.1609 35.7742 25.0974 39.6205 24.9889 43.4627C24.9685 44.1771 24.8886 44.3716 24.1497 43.9663C22.1784 42.8896 20.2727 43.3931 18.9565 45.2375C18.2543 46.2221 17.7794 47.3049 17.5604 48.4983C17.1469 50.7725 17.6423 52.9649 18.1397 55.1633C19.0342 59.1058 21.7752 61.1201 25.4638 61.9839C26.4853 62.2234 26.8435 62.596 27.0421 63.554C27.7749 67.0748 28.9396 70.5096 31.6887 72.9169C32.006 73.1973 32.2701 73.4778 32.4809 73.7623C32.4932 73.7889 32.6119 74.0018 32.8494 74.3457C33.3448 75.0601 34.3703 76.3354 36.0877 77.6168C36.0898 77.6189 36.0939 77.6209 36.0959 77.6229H36.098C38.9351 79.627 42.1346 80.6812 45.6124 80.6627C49.4567 80.6443 53.0061 79.5614 56.0132 77.0355L56.0398 77.0048L56.0684 76.972L59.358 73.3079C62.3855 70.5424 63.9883 66.9622 65.155 63.1384C65.3127 62.6226 65.5399 62.3606 66.1294 62.3053C70.0842 61.9368 73.5129 58.7845 74.3338 54.8481C74.6981 53.1061 74.8169 51.3355 74.8455 49.5709C74.8783 47.6591 74.2314 45.9314 72.7576 44.6438ZM25.1691 60.1723C22.377 59.2328 20.3218 57.5706 19.7773 54.4837C19.4887 52.8441 19.022 51.2249 19.1366 49.5341C19.2369 48.0521 19.7364 46.7318 20.854 45.7185C22.0413 44.6418 24.6369 45.4913 25.0074 47.0531C25.2141 47.9211 25.2141 48.7951 25.1199 49.8411C24.4117 49.2926 23.9593 48.7296 23.3268 48.3714C22.7291 48.0316 22.2112 48.1237 21.7363 48.5536C21.1304 49.1022 21.2532 49.6221 22.0249 49.8596C22.2194 49.9189 22.42 49.964 22.6062 50.0479C23.8467 50.6006 23.8754 50.793 23.0382 51.8022C22.2787 52.7172 21.724 53.7263 22.0945 54.9852C22.2419 55.4868 22.5407 55.8675 23.1323 55.7119C23.6604 55.5727 23.7689 55.1613 23.685 54.6618C23.6502 54.4633 23.6093 54.2422 23.6625 54.0559C23.8651 53.3517 24.338 52.7458 25.0483 52.7397C25.6911 52.7335 25.4352 53.4971 25.4966 53.8942C25.775 55.6751 25.9797 57.4682 26.1844 59.2614C26.3052 60.3197 26.1271 60.4937 25.1691 60.1723ZM65.2574 54.9607C65.2165 55.3783 65.1632 55.802 64.803 56.0558C63.8695 56.7129 63.2145 57.6361 62.4284 58.4344C61.0406 59.8509 59.2577 59.8305 57.6835 58.6146C54.7932 56.3854 51.7063 54.9996 47.9214 56.369C47.1006 56.6658 46.2388 56.672 45.3913 56.4959C45.3606 56.4898 45.3299 56.4836 45.3013 56.4775C40.6873 55.5277 38.3169 56.2257 37.4019 56.6494C37.2504 56.7293 37.103 56.8132 36.9557 56.8992C36.9454 56.9053 36.9413 56.9094 36.9413 56.9094C36.1553 57.372 35.404 57.9002 34.6671 58.4569C33.1421 59.6094 31.306 59.5848 29.8567 58.3116C28.2191 56.8726 26.9909 55.2247 27.0482 52.8134C27.1055 50.4368 26.7412 48.05 26.7944 45.6735C26.907 40.6501 26.645 35.5982 27.7892 30.6322C28.954 25.5679 32.1903 22.217 36.6998 20.0983C43.7947 16.7679 50.8425 17.1507 57.6385 21.0543C62.1419 23.6396 64.5921 27.619 65.2513 32.7549C65.6893 36.1713 65.9718 39.5918 65.8735 42.6828C65.9124 47.0245 65.6525 50.9957 65.2594 54.9607H65.2574ZM72.3134 55.5052C71.427 58.3116 69.2982 59.7588 66.5798 60.4937C66.0107 60.6472 65.7159 60.5203 65.8694 59.8469C66.3464 57.7589 66.9277 55.6915 67.0362 53.5319C67.0669 52.9546 67.4722 52.8605 67.896 53.2003C68.4057 53.6076 68.9379 54.0641 68.5408 54.8235C68.2849 55.3148 68.3176 55.7078 68.8499 55.8962C69.4517 56.109 69.9614 55.9084 70.1354 55.2616C70.4547 54.0784 70.033 53.0631 69.3473 52.1113C69.0894 51.753 68.3054 51.532 68.8765 50.8994C69.2797 50.4552 69.6789 49.7654 70.4649 50.4041C70.6594 50.5617 70.8641 50.4655 70.9787 50.2649C71.294 49.7142 71.0606 49.2086 70.8129 48.7173C70.5898 48.2732 70.2152 48.2322 69.769 48.3305C68.9133 48.5147 68.2726 49.0899 67.4743 49.6426C67.5214 48.7685 67.5705 48.093 67.591 47.4175C67.6442 45.5895 69.4906 44.5579 71.075 45.5159C72.383 46.306 72.905 47.5874 73.0114 49.0428C73.169 51.2352 72.9746 53.4091 72.3134 55.5052Z" fill="black"/>
</svg>
