<svg width="92" height="113" viewBox="0 0 92 113" fill="none" xmlns="http://www.w3.org/2000/svg">
<g clip-path="url(#clip0_4520_16263)">
<path d="M74.3735 48.1683C73.989 45.3308 71.9205 43.106 69.3523 43.0937C68.133 43.0896 67.9891 42.6454 68.1063 41.6667C68.5771 37.7949 68.6285 33.9046 68.5566 30.5591C68.5566 27.919 68.571 25.8279 68.5545 23.7367C68.5072 18.7772 66.1878 15.6436 61.4709 14.0459C57.229 12.6127 52.8391 12.0925 48.4018 11.8951C44.5074 11.7224 40.615 11.9712 36.7473 12.3619C33.1901 12.7217 29.6926 13.4599 26.5075 15.2303C24.221 16.501 22.8002 18.3516 22.5514 21.041C22.4589 22.0486 22.3828 23.0479 22.3849 24.0595C22.4013 30.041 22.2718 36.0245 22.5967 42.0018C22.6398 42.8325 22.4157 43.18 21.511 43.3178C18.8976 43.7187 16.755 45.7523 16.5782 48.082C16.4116 50.2307 16.3911 52.3979 16.9771 54.524C18.1101 58.6364 20.9949 61.476 24.7084 61.8749C25.7138 61.9839 26.1477 62.3314 26.4006 63.271C27.4924 67.3505 29.489 70.7967 33.4122 72.8076C33.4122 72.8076 33.4143 72.8076 33.4163 72.8097C33.4204 72.8117 33.4287 72.8179 33.441 72.8241C33.4739 72.8488 33.5356 72.8899 33.6322 72.9475C35.2998 74.0043 46.2695 80.3641 57.4634 72.8117V72.8076C57.8541 72.2216 58.3682 71.6767 58.9973 71.136C61.4113 69.0551 63.3811 66.5136 64.3517 63.4088C64.7341 62.1792 65.3777 61.7453 66.5662 61.7104C67.7978 61.6754 68.8671 61.1367 69.7862 60.3348C73.4996 57.1066 75.0377 53.0497 74.3756 48.1642L74.3735 48.1683ZM24.6446 60.1004C22.8804 59.9441 21.437 59.0579 20.4932 57.6597C18.509 54.7296 17.89 51.4562 18.6735 47.9771C19.0292 46.4021 20.4068 45.2629 21.7804 45.2897C23.0408 45.3143 24.3876 46.5542 24.7125 48.0676C24.8687 48.7955 24.9654 49.546 24.733 50.3294C23.487 49.4925 22.2985 48.6947 21.1059 47.899C20.7029 47.6296 20.2197 47.3644 19.8393 47.79C19.4137 48.2691 19.8702 48.7029 20.193 48.9826C20.9805 49.6611 21.8091 50.3006 22.6748 50.8722C23.2012 51.2218 23.1642 51.4665 22.7817 51.8674C22.1093 52.5686 21.4472 53.2841 21.0545 54.193C20.8777 54.6042 20.7152 55.0525 21.2149 55.3321C21.6385 55.5686 22.0559 55.437 22.3766 55.0648C22.8681 54.4911 23.3636 53.9216 23.8427 53.3376C24.33 52.7392 24.8029 52.8482 24.8626 53.5391C25.0394 55.5459 25.3376 57.5343 25.574 59.5308C25.6522 60.1806 25.0682 60.1354 24.6467 60.0963L24.6446 60.1004ZM64.0638 54.4418C63.7369 56.6851 63.4963 58.951 63.0069 61.1593C62.0158 65.6192 59.2523 68.9831 55.5923 71.4362C54.7637 71.9934 53.861 72.4478 52.9151 72.8097C51.3052 73.4265 49.5697 73.7761 47.8261 73.9036C44.3079 74.1606 40.8679 73.9755 37.5842 72.8097C36.6528 72.4786 35.7316 72.0695 34.8269 71.5698C31.8968 69.9454 29.9023 67.6219 28.7961 64.5109C26.8427 59.0127 26.5404 53.3232 26.8982 47.5597C27.0462 45.1889 26.9599 42.8079 27.184 40.435C27.5233 36.8799 28.0682 33.3617 28.7734 29.8642C28.9338 29.0766 29.3759 28.688 30.1737 28.6366C34.9852 28.3241 39.7699 27.553 44.164 27.7319C49.9954 27.627 55.3291 28.2213 60.6608 28.8361C61.5306 28.9348 61.7711 29.4221 61.9398 30.1602C62.6183 33.117 62.8835 36.1314 63.2681 39.1293C63.5292 41.1608 64.0001 43.1656 64.327 45.193C64.8246 48.2897 64.5079 51.3719 64.0597 54.4438L64.0638 54.4418ZM72.7594 49.9511C72.7697 53.4898 71.3427 56.5309 68.7642 59.0785C67.9849 59.8516 66.9939 59.9811 65.9884 60.0922C65.4579 60.1497 65.2626 59.8125 65.3201 59.354C65.5874 57.1786 65.5998 54.9723 66.1693 52.8359C66.34 52.1902 66.5662 52.0257 67.0597 52.5809C67.3229 52.8749 67.6251 53.1361 67.915 53.4054C68.3366 53.8023 68.5196 54.2012 68.0322 54.6926C67.7855 54.9414 67.4565 55.254 67.8534 55.6015C68.1926 55.8975 68.536 55.6385 68.83 55.4328C70.2241 54.4582 70.3105 52.9058 69.0377 51.7708C68.3838 51.1882 68.4051 50.6214 69.1015 50.0703C69.6381 49.6488 70.2015 49.2519 70.7032 48.7914C71.0939 48.4315 71.353 47.9401 70.8986 47.4672C70.4585 47.0107 69.8931 47.0189 69.449 47.4569C68.7067 48.1868 68.024 48.9785 67.3002 49.731C67.109 49.9325 66.8972 50.2307 66.5847 50.1258C66.2331 50.0045 66.3791 49.6323 66.3647 49.363C66.303 48.3719 66.4922 47.4363 67.0062 46.5645C68.1597 44.6009 70.732 44.5618 71.9184 46.5357C72.5188 47.535 72.8766 48.631 72.7635 49.9511H72.7594Z" fill="black"/>
<path fill-rule="evenodd" clip-rule="evenodd" d="M63.8218 56.1841C63.9006 55.6028 63.9793 55.0215 64.0638 54.4418L64.0597 54.4438C64.5079 51.3719 64.8246 48.2897 64.327 45.193C64.1935 44.3652 64.036 43.5412 63.8786 42.7175C63.6505 41.524 63.4226 40.3314 63.2681 39.1293C63.182 38.4581 63.1018 37.786 63.0217 37.1139C62.744 34.7844 62.4664 32.455 61.9398 30.1602C61.7711 29.4221 61.5306 28.9348 60.6608 28.8361C55.3291 28.2213 49.9954 27.627 44.164 27.7319C41.2456 27.6131 38.1548 27.9133 34.9983 28.2199C33.4023 28.375 31.7895 28.5317 30.1737 28.6366C29.3759 28.688 28.9338 29.0766 28.7734 29.8642C28.0682 33.3617 27.5233 36.8799 27.184 40.435C27.0563 41.7869 27.0294 43.1414 27.0025 44.4952C26.9822 45.5176 26.9619 46.5396 26.8982 47.5597C26.5404 53.3232 26.8427 59.0127 28.7961 64.5109C29.9023 67.6219 31.8968 69.9454 34.8269 71.5698C35.7316 72.0695 36.6528 72.4786 37.5842 72.8097C40.8679 73.9755 44.3079 74.1606 47.8261 73.9036C49.5697 73.7761 51.3052 73.4265 52.9151 72.8097C53.861 72.4478 54.7637 71.9934 55.5923 71.4362C59.2523 68.9831 62.0158 65.6192 63.0069 61.1593C63.3698 59.5217 63.5959 57.8524 63.8218 56.1841Z" fill="white"/>
</g>
<defs>
<clipPath id="clip0_4520_16263">
<rect width="58.0462" height="64.6198" fill="white" transform="translate(16.4766 11.8398)"/>
</clipPath>
</defs>
</svg>
