<svg width="92" height="113" viewBox="0 0 92 113" fill="none" xmlns="http://www.w3.org/2000/svg">
<path d="M74.6235 47.8285C74.239 44.991 72.1705 42.7662 69.6023 42.7538C68.383 42.7497 68.2391 42.3056 68.3563 41.3268C68.8271 37.455 68.8785 33.5647 68.8066 30.2193C68.8066 27.5792 68.821 25.488 68.8045 23.3969C68.7572 18.4373 66.4378 15.3037 61.7209 13.7061C57.479 12.2729 53.0891 11.7527 48.6518 11.5553C44.7574 11.3826 40.865 11.6314 36.9973 12.022C33.4401 12.3819 29.9426 13.12 26.7575 14.8904C24.471 16.1611 23.0502 18.0117 22.8014 20.7012C22.7089 21.7087 22.6328 22.708 22.6349 23.7197C22.6513 29.7011 22.5218 35.6846 22.8467 41.662C22.8898 42.4927 22.6657 42.8402 21.761 42.9779C19.1476 43.3789 17.005 45.4125 16.8282 47.7421C16.6616 49.8908 16.6411 52.0581 17.2271 54.1842C18.3601 58.2965 21.2449 61.1361 24.9584 61.535C25.9638 61.644 26.3977 61.9915 26.6506 62.9312C27.7424 67.0107 29.739 70.4568 33.6622 72.4678C33.6622 72.4678 33.6643 72.4678 33.6663 72.4698C33.6704 72.4719 33.6787 72.4781 33.691 72.4842C33.7239 72.5089 33.7856 72.55 33.8822 72.6076C35.5498 73.6645 46.5195 80.0243 57.7134 72.4719V72.4678C58.1041 71.8818 58.6182 71.3369 59.2473 70.7961C61.6613 68.7152 63.6311 66.1738 64.6017 63.069C64.9841 61.8394 65.6277 61.4055 66.8162 61.3705C68.0478 61.3356 69.1171 60.7969 70.0362 59.995C73.7496 56.7667 75.2877 52.7099 74.6256 47.8244L74.6235 47.8285ZM24.8946 59.7606C23.1304 59.6043 21.687 58.7181 20.7432 57.3199C18.759 54.3898 18.14 51.1163 18.9235 47.6373C19.2792 46.0622 20.6568 44.9231 22.0304 44.9498C23.2908 44.9745 24.6376 46.2144 24.9625 47.7277C25.1187 48.4556 25.2154 49.2061 24.983 49.9895C23.737 49.1527 22.5485 48.3549 21.3559 47.5591C20.9529 47.2898 20.4697 47.0245 20.0893 47.4502C19.6637 47.9292 20.1202 48.3631 20.443 48.6427C21.2305 49.3213 22.0591 49.9608 22.9248 50.5324C23.4512 50.8819 23.4142 51.1266 23.0317 51.5276C22.3593 52.2287 21.6972 52.9443 21.3045 53.8531C21.1277 54.2644 20.9652 54.7126 21.4649 54.9923C21.8885 55.2287 22.3059 55.0971 22.6266 54.7249C23.1181 54.1513 23.6136 53.5817 24.0927 52.9977C24.58 52.3994 25.0529 52.5084 25.1126 53.1993C25.2894 55.2061 25.5876 57.1944 25.824 59.191C25.9022 59.8407 25.3182 59.7955 24.8967 59.7564L24.8946 59.7606ZM64.3138 54.1019C63.9869 56.3452 63.7463 58.6111 63.2569 60.8195C62.2658 65.2794 59.5023 68.6433 55.8423 71.0963C55.0137 71.6535 54.111 72.108 53.1651 72.4698C51.5552 73.0867 49.8197 73.4363 48.0761 73.5637C44.5579 73.8208 41.1179 73.6357 37.8342 72.4698C36.9028 72.1388 35.9816 71.7296 35.0769 71.23C32.1468 69.6056 30.1523 67.2821 29.0461 64.1711C27.0927 58.6728 26.7904 52.9834 27.1482 47.2199C27.2962 44.8491 27.2099 42.468 27.434 40.0952C27.7733 36.54 28.3182 33.0219 29.0234 29.5243C29.1838 28.7368 29.6259 28.3482 30.4237 28.2968C35.2352 27.9842 40.0199 27.2132 44.414 27.392C50.2454 27.2872 55.5791 27.8814 60.9108 28.4962C61.7806 28.5949 62.0211 29.0822 62.1898 29.8204C62.8683 32.7772 63.1335 35.7916 63.5181 38.7895C63.7792 40.821 64.2501 42.8258 64.577 44.8532C65.0746 47.9498 64.7579 51.032 64.3097 54.104L64.3138 54.1019ZM73.0094 49.6112C73.0197 53.1499 71.5927 56.191 69.0142 58.7386C68.2349 59.5118 67.2439 59.6413 66.2384 59.7523C65.7079 59.8099 65.5126 59.4727 65.5701 59.0142C65.8374 56.8387 65.8498 54.6324 66.4193 52.496C66.59 51.8504 66.8162 51.6859 67.3097 52.2411C67.5729 52.5351 67.8751 52.7962 68.165 53.0656C68.5866 53.4624 68.7696 53.8613 68.2822 54.3528C68.0355 54.6016 67.7065 54.9141 68.1034 55.2616C68.4426 55.5577 68.786 55.2986 69.08 55.093C70.4741 54.1184 70.5605 52.5659 69.2877 51.4309C68.6338 50.8483 68.6551 50.2815 69.3515 49.7305C69.8881 49.3089 70.4515 48.9121 70.9532 48.4515C71.3439 48.0917 71.603 47.6003 71.1486 47.1273C70.7085 46.6709 70.1431 46.6791 69.699 47.1171C68.9567 47.847 68.274 48.6386 67.5502 49.3912C67.359 49.5927 67.1472 49.8908 66.8347 49.786C66.4831 49.6647 66.6291 49.2925 66.6147 49.0231C66.553 48.0321 66.7422 47.0965 67.2562 46.2247C68.4097 44.261 70.982 44.2219 72.1684 46.1959C72.7688 47.1952 73.1266 48.2911 73.0135 49.6112H73.0094Z" fill="black"/>
<path fill-rule="evenodd" clip-rule="evenodd" d="M64.0718 55.8443C64.1506 55.2629 64.2293 54.6817 64.3138 54.1019L64.3097 54.104C64.7579 51.032 65.0746 47.9498 64.577 44.8532C64.4435 44.0254 64.286 43.2013 64.1286 42.3777C63.9005 41.1842 63.6726 39.9915 63.5181 38.7895C63.432 38.1182 63.3518 37.4461 63.2717 36.7741C62.994 34.4446 62.7164 32.1151 62.1898 29.8204C62.0211 29.0822 61.7806 28.5949 60.9108 28.4962C55.5791 27.8814 50.2454 27.2872 44.414 27.392C41.4956 27.2732 38.4048 27.5735 35.2483 27.8801C33.6523 28.0351 32.0395 28.1918 30.4237 28.2968C29.6259 28.3482 29.1838 28.7368 29.0234 29.5243C28.3182 33.0219 27.7733 36.54 27.434 40.0952C27.3063 41.447 27.2794 42.8016 27.2525 44.1554C27.2322 45.1778 27.2119 46.1998 27.1482 47.2199C26.7904 52.9834 27.0927 58.6728 29.0461 64.1711C30.1523 67.2821 32.1468 69.6056 35.0769 71.23C35.9816 71.7296 36.9028 72.1388 37.8342 72.4698C41.1179 73.6357 44.5579 73.8208 48.0761 73.5637C49.8197 73.4363 51.5552 73.0867 53.1651 72.4698C54.111 72.108 55.0137 71.6535 55.8423 71.0963C59.5023 68.6433 62.2658 65.2794 63.2569 60.8195C63.6198 59.1818 63.8459 57.5125 64.0718 55.8443Z" fill="white"/>
</svg>
