<svg width="92" height="113" viewBox="0 0 92 113" fill="none" xmlns="http://www.w3.org/2000/svg">
<path d="M74.6719 48.3509C74.2836 45.5751 72.9788 43.8346 70.52 43.4205C69.6508 43.2738 69.5344 42.9891 69.6293 42.1631C70.1792 37.3599 70.9967 32.5718 70.3712 27.6996C69.6508 22.0703 67.4078 17.403 62.611 14.0254C58.3686 11.0383 53.6193 10.0612 48.6156 9.74204C45.5701 9.54577 42.6153 10.1238 39.6627 10.7601C34.7775 11.8104 31.2382 14.6315 29.0512 19.0745C28.4408 20.3147 27.9254 21.3348 26.3746 21.5397C25.5378 21.6519 24.8454 22.2946 24.248 22.9374C22.9647 24.3177 22.2055 25.959 21.813 27.7837C21.3493 29.934 21.304 32.1253 21.2155 34.3102C21.1034 37.0471 21.6297 39.741 21.8712 42.4521C21.9273 43.084 21.7698 43.4011 21.1508 43.5068C17.9847 44.0567 16.1967 47.417 16.2031 50.1217C16.2182 55.7164 19.7489 60.1982 25.2315 61.4923C25.7513 61.6131 26.0489 61.7857 26.1309 62.3572C26.7456 66.6363 29.2906 69.6429 32.6186 72.121C32.6186 72.121 32.6229 72.1254 32.6337 72.134C32.7803 72.2418 32.9076 72.3432 33.0176 72.4403C35.1528 74.0643 45.6262 80.9855 58.5843 71.7458C61.4809 69.4164 63.2883 66.3667 64.4443 62.8964C64.7269 62.0531 65.1819 61.6261 66.09 61.4664C68.0613 61.1214 69.9938 60.498 71.2943 58.8891C73.7595 55.835 75.2413 52.4359 74.6719 48.3509ZM24.9339 59.7669C23.7088 59.6785 22.7512 59.0293 21.882 58.2916C19.0437 55.889 17.8035 52.8091 18.2564 49.1015C18.429 47.6802 19.1321 46.5328 20.3269 45.7196C21.1746 45.1438 22.0912 44.844 23.0467 45.4112C24.0237 45.9914 24.7053 46.7937 24.5909 47.9217C24.5845 49.2374 24.4335 49.3301 23.3637 48.7694C22.6606 48.4006 22.033 47.9304 21.4506 47.3869C21.1206 47.0784 20.713 46.8735 20.314 47.2833C19.9473 47.6608 20.0358 48.0964 20.3313 48.4545C21.0408 49.3172 21.8 50.1346 22.8116 50.6544C23.3098 50.9111 23.4155 51.1354 22.9992 51.6142C22.363 52.3432 21.8151 53.1498 21.524 54.0967C21.3708 54.5906 21.2069 55.1233 21.841 55.3864C22.4385 55.6345 22.68 55.1556 22.8763 54.7243C23.1976 54.019 23.739 53.4949 24.2674 52.96C24.4141 52.8134 24.5586 52.6063 24.8088 52.7228C24.9964 52.8112 25.0137 53.0183 25.005 53.193C24.9058 55.1837 25.3221 57.1183 25.6521 59.0616C25.7535 59.6461 25.5097 59.8079 24.9339 59.7669ZM63.7649 58.8244C62.5808 64.0934 60.2321 68.6766 55.5044 71.6897C55.4483 71.7242 55.3944 71.7587 55.3383 71.7932C53.0909 73.1757 50.5545 73.7214 47.9879 74.1333C43.6226 74.8365 39.5095 74.2196 35.8236 72.0758C35.2391 71.7371 34.6675 71.3619 34.1068 70.9456C30.8155 68.5041 28.305 65.4328 27.7312 61.1192C27.1532 56.7797 26.5083 52.4532 26.8383 48.0511C27.0993 44.583 27.3258 41.1106 27.274 37.6273C27.2675 37.2068 27.4314 36.866 27.6903 36.5511C29.5753 34.2584 30.9535 31.6595 32.1807 28.9786C32.5582 28.1525 32.9701 27.9023 33.8307 28.3121C36.6 29.6256 39.585 30.044 42.5981 30.2856C47.287 30.6587 51.9845 30.7277 56.6841 30.6911C58.1249 30.6803 59.5397 30.7881 60.9028 31.364C63.3055 32.3798 64.2265 34.4309 64.3882 36.7624C64.6255 40.1573 65.0698 43.5477 64.908 46.5479C64.9857 50.9607 64.6384 54.9292 63.7649 58.8244ZM66.5105 59.851C65.458 60.1767 65.4062 60.1379 65.5529 59.0487C65.8139 57.1313 66.0511 55.2096 66.3294 53.2943C66.3811 52.9298 66.3531 52.2677 66.7586 52.3044C67.4401 52.3647 67.9254 52.9428 68.3266 53.5035C68.5897 53.8724 68.4236 54.1808 68.1346 54.4504C68.0828 54.5 68.0181 54.5388 67.9772 54.5949C67.7766 54.8817 67.0778 54.9594 67.4121 55.4447C67.7291 55.9041 68.1885 55.5309 68.553 55.3131C70.3647 54.2282 70.5459 52.8587 69.0016 51.4459C68.4926 50.9822 68.566 50.7558 69.0577 50.3977C69.6961 49.934 70.3087 49.4315 70.8953 48.9074C71.221 48.6184 71.5337 48.1978 71.221 47.7772C70.8586 47.2876 70.4445 47.6737 70.0951 47.9002C69.254 48.4437 68.4236 49.0088 67.5846 49.5631C67.3797 49.6968 67.1705 49.9362 66.9182 49.8391C66.5709 49.7011 66.709 49.3409 66.7111 49.0756C66.724 47.8592 66.9678 46.7398 67.9405 45.8685C69.3208 44.6305 71.2231 44.9065 72.1527 46.5198C72.5992 47.2941 73.0435 49.1921 73.0521 50.3675C72.9098 54.0514 70.8586 58.503 66.5105 59.851Z" fill="black"/>
<path d="M38.6835 62.9158C37.4304 62.9158 36.1773 62.9029 34.9242 62.9223C34.2922 62.9309 34.0183 62.6829 34.0183 62.0294C34.0205 61.0329 34.3289 60.2371 35.1399 59.6008C37.8229 57.5001 40.6893 56.825 43.8512 58.4254C45.4968 59.2579 47.0389 59.3096 48.7687 58.4922C51.6653 57.1227 55.761 58.7963 57.1112 61.7382C57.4347 62.4413 57.3614 63.1854 56.8912 63.7721C56.4465 64.3231 55.8214 64.0305 55.3222 63.7968C55.3153 63.7936 55.3085 63.7904 55.3016 63.7872C52.9076 62.6721 50.479 62.56 47.9771 63.3688C47.2525 63.6038 46.4695 63.5736 45.7362 63.4097C43.409 62.8942 41.056 62.7497 38.6835 62.9158Z" fill="black"/>
<path d="M33.0176 72.4403C32.804 72.2785 32.6746 72.1685 32.6337 72.134C32.7803 72.2418 32.9076 72.3432 33.0176 72.4403Z" fill="black"/>
<path fill-rule="evenodd" clip-rule="evenodd" d="M55.5044 71.6897C60.2321 68.6766 62.5808 64.0934 63.7649 58.8244C64.6384 54.9292 64.9857 50.9607 64.908 46.5479C65.0268 44.3457 64.819 41.9332 64.6062 39.4631C64.5291 38.568 64.4513 37.6654 64.3882 36.7624C64.2265 34.4309 63.3055 32.3798 60.9028 31.364C59.5397 30.7881 58.1249 30.6803 56.6841 30.6911C51.9845 30.7277 47.287 30.6587 42.5981 30.2856C39.585 30.044 36.6 29.6256 33.8307 28.3121C32.9701 27.9023 32.5582 28.1525 32.1807 28.9786C30.9535 31.6595 29.5753 34.2584 27.6903 36.5511C27.4314 36.866 27.2675 37.2068 27.274 37.6273C27.3258 41.1106 27.0993 44.583 26.8383 48.0511C26.5298 52.1666 27.0734 56.216 27.6178 60.2717C27.6557 60.5542 27.6936 60.8367 27.7312 61.1192C28.305 65.4328 30.8155 68.5041 34.1068 70.9456C34.6675 71.3619 35.2391 71.7371 35.8236 72.0758C39.5095 74.2196 43.6226 74.8365 47.9879 74.1333C50.5545 73.7214 53.0909 73.1757 55.3383 71.7932C55.3636 71.7776 55.3885 71.7621 55.4133 71.7465C55.4435 71.7276 55.4736 71.7086 55.5044 71.6897ZM37.6094 62.9137C36.7143 62.9111 35.8192 62.9084 34.9242 62.9223C34.2922 62.9309 34.0183 62.6829 34.0183 62.0294C34.0205 61.0329 34.3289 60.2371 35.1399 59.6008C37.8229 57.5001 40.6893 56.825 43.8512 58.4254C45.4968 59.2579 47.0389 59.3096 48.7687 58.4922C51.6653 57.1227 55.761 58.7963 57.1112 61.7382C57.4347 62.4413 57.3614 63.1854 56.8912 63.7721C56.4465 64.3231 55.8214 64.0305 55.3222 63.7968L55.3016 63.7872C52.9076 62.6721 50.479 62.56 47.9771 63.3688C47.2525 63.6038 46.4695 63.5736 45.7362 63.4097C43.409 62.8942 41.056 62.7497 38.6835 62.9158C38.3254 62.9158 37.9674 62.9148 37.6094 62.9137Z" fill="white"/>
</svg>
