<svg width="92" height="113" viewBox="0 0 92 113" fill="none" xmlns="http://www.w3.org/2000/svg">
<path d="M75.5355 47.2878C75.352 44.568 74.1216 41.6442 70.8445 41.2823C70.3231 41.2253 70.2056 40.8809 70.2015 40.4225C70.1974 39.5101 70.1685 38.5976 70.2015 37.6895C70.3251 34.1955 70.3787 30.6992 69.7687 27.2512C68.5568 20.4231 65.2467 15.2972 59.0739 12.5116C56.4069 11.3096 53.5915 10.8687 50.7514 10.5441C50.098 10.4673 49.6116 10.3379 49.3004 9.63603C48.9068 8.75647 48.1792 8.33754 47.2724 8.1489C45.471 7.76945 44.0757 8.57662 42.7813 9.7435C42.4042 10.0835 42.0703 10.4454 41.5159 10.52C40.2071 10.6976 38.8963 10.8863 37.6143 11.2043C29.7555 13.1652 24.436 17.9621 22.5233 26.5646C21.7381 30.0938 21.4392 33.68 21.2991 37.2816C21.2661 38.0865 21.0744 38.6086 20.3984 39.0297C18.696 40.0891 17.177 41.4183 15.8146 42.9361C14.6131 44.2719 13.6815 45.781 13.4424 47.6805C13.2445 49.2729 14.1019 50.9398 15.4354 51.1043C16.367 51.2206 16.571 51.7031 16.7462 52.5103C17.4532 55.8245 19.2195 58.4412 21.6309 60.5973C22.8593 61.694 24.2897 62.3915 25.9096 62.4793C26.4723 62.51 26.6454 62.8083 26.7959 63.2557C27.9295 66.6314 30.0173 69.3073 32.6822 71.3274C32.9048 71.4941 33.1047 71.663 33.2882 71.8341C33.2882 71.8341 38.6077 76.12 45.4792 76.12C52.3508 76.12 55.8463 73.7051 57.2437 72.8825C60.1972 70.1956 62.7199 67.1227 64.5315 63.4356C64.783 62.9267 65.1148 62.646 65.6837 62.5692C67.2748 62.3521 68.7052 61.6809 69.9686 60.6324C74.0639 57.2458 75.9064 52.7582 75.5355 47.2878ZM20.992 57.1515C18.7558 54.3506 17.8963 51.0561 17.9375 47.4348C17.9478 46.5618 18.2673 45.827 18.8897 45.3686C19.8852 44.636 20.9466 43.9934 22.0287 43.4231C22.7294 43.0568 24.4051 44.4737 24.4731 45.4147C24.4958 45.7525 24.4875 46.099 24.4525 46.4368C24.3968 46.9873 24.3082 47.5379 24.2319 48.1235C23.661 47.9766 23.457 47.4874 23.1252 47.1738C22.5089 46.5859 21.8246 46.2394 20.9879 46.3249C20.4211 46.382 20.0315 46.7044 20.0315 47.3383C20.0295 48.0095 20.3902 48.3516 21.0373 48.4087C22.5048 48.5381 22.7851 49.093 22.105 50.4573C21.6845 51.3061 21.4021 52.2054 21.3094 53.1595C21.2517 53.7583 21.365 54.3637 22.0122 54.5129C22.7027 54.673 22.6965 53.9821 22.8098 53.5522C22.9891 52.8854 23.222 52.2581 23.6054 51.6987C23.7682 51.4597 23.929 51.1 24.2381 51.157C24.5988 51.225 24.5226 51.6461 24.5514 51.9225C24.7513 53.9601 24.9327 55.9978 25.3429 58.0048C25.5201 58.8821 25.7118 59.7573 25.9364 60.8123C23.8115 60.1038 22.2946 58.7812 20.992 57.1515ZM65.5992 48.7793C65.356 52.7165 65.2199 56.7194 63.8081 60.4109C61.712 65.901 58.4844 70.4983 53.3112 72.7115C52.9134 72.8825 52.5012 73.0405 52.0787 73.183C46.955 74.9005 41.4994 74.5451 36.86 71.992C34.0879 70.4632 31.6064 68.1558 29.6587 65.0368C27.8676 62.1678 27.2266 58.8273 26.7299 55.4758C26.3569 52.9599 26.225 50.4222 26.2559 47.8757C26.2559 47.154 26.2744 46.4346 26.2518 45.713C26.2147 44.4803 26.3589 43.3397 26.9999 42.2364C27.7522 40.9467 27.8264 39.4267 27.8017 37.9374C27.7852 36.9745 28.1582 36.5753 29.0527 36.3516C32.5771 35.4676 36.1592 35.2264 39.7557 34.9719C43.6408 34.6999 47.5238 34.7285 51.4109 34.7833C55.331 34.8381 59.1295 35.6102 62.8312 36.9767C63.3774 37.1807 63.6412 37.4724 63.6968 38.0931C63.804 39.2644 63.9915 40.4225 64.1214 41.5894C64.2038 42.3154 64.2719 43.1006 64.6655 43.6556C65.7785 45.2282 65.7105 47.0115 65.5992 48.7793ZM73.7609 48.4043C73.8104 53.6728 71.5453 57.3774 67.551 60.0051C67.1903 60.242 66.776 60.3956 66.3762 60.5513C65.9434 60.7158 65.762 60.5513 65.8856 60.0534C66.5885 57.2173 66.8296 54.3023 67.1738 51.4048C67.2006 51.1592 67.1202 50.7951 67.4211 50.7117C67.7468 50.6262 67.9055 50.9727 68.0786 51.1987C68.532 51.7821 68.6928 52.4686 68.6598 53.2188C68.631 53.8614 68.8329 54.4054 69.511 54.4142C70.1912 54.4229 70.3705 53.8505 70.422 53.2363C70.5148 52.0979 70.2386 51.0605 69.6862 50.0844C68.9978 48.8693 69.171 48.5468 70.5312 48.4481C71.6545 48.367 71.9307 47.9305 71.5679 46.8777C71.3515 46.2547 70.9641 46.0902 70.3911 46.2372C69.5378 46.4543 68.7876 46.8821 68.1157 47.4611C67.6705 47.845 67.4603 47.8252 67.4046 47.1453C67.2727 45.498 68.699 43.5876 70.3437 43.2695C71.5412 43.0348 72.8932 44.1403 73.394 45.7525C73.6785 46.6627 73.831 47.5905 73.7609 48.4043Z" fill="black"/>
<path d="M65.5992 48.7793C65.356 52.7165 65.2199 56.7194 63.8081 60.4109C61.712 65.901 58.4844 70.4983 53.3112 72.7115C52.9134 72.8825 52.5012 73.0405 52.0787 73.183C46.955 74.9005 41.4994 74.5451 36.86 71.992C34.0879 70.4632 31.6064 68.1558 29.6587 65.0368C27.8676 62.1678 27.2266 58.8273 26.7299 55.4758C26.3569 52.9599 26.225 50.4222 26.2559 47.8757C26.2559 47.154 26.2744 46.4346 26.2518 45.713C26.2147 44.4803 26.3589 43.3397 26.9999 42.2364C27.7522 40.9467 27.8264 39.4267 27.8017 37.9374C27.7852 36.9745 28.1582 36.5753 29.0527 36.3516C32.5771 35.4676 36.1592 35.2264 39.7557 34.9719C43.6408 34.6999 47.5238 34.7285 51.4109 34.7833C55.331 34.8381 59.1295 35.6102 62.8312 36.9767C63.3774 37.1807 63.6412 37.4724 63.6968 38.0931C63.804 39.2644 63.9915 40.4225 64.1214 41.5894C64.2038 42.3154 64.2719 43.1006 64.6655 43.6556C65.7785 45.2282 65.7105 47.0115 65.5992 48.7793Z" fill="white"/>
</svg>
